<?xml version="1.0" encoding="UTF-8" standalone="no"?>
<!-- Created with Inkscape (http://www.inkscape.org/) -->

<svg
   xmlns:dc="http://purl.org/dc/elements/1.1/"
   xmlns:cc="http://creativecommons.org/ns#"
   xmlns:rdf="http://www.w3.org/1999/02/22-rdf-syntax-ns#"
   xmlns:svg="http://www.w3.org/2000/svg"
   xmlns="http://www.w3.org/2000/svg"
   xmlns:xlink="http://www.w3.org/1999/xlink"
   xmlns:sodipodi="http://sodipodi.sourceforge.net/DTD/sodipodi-0.dtd"
   xmlns:inkscape="http://www.inkscape.org/namespaces/inkscape"
   width="102"
   height="102"
   id="svg8685"
   version="1.1"
   inkscape:version="0.48.2 r9819"
   sodipodi:docname="button_level_locked.svg">
  <defs
     id="defs8687">
    <linearGradient
       inkscape:collect="always"
       xlink:href="#linearGradient5398-2"
       id="linearGradient8864-8"
       gradientUnits="userSpaceOnUse"
       gradientTransform="matrix(0.85671915,0,0,3.7676271,194.48981,633.64746)"
       x1="349.5"
       y1="45.933613"
       x2="349.60715"
       y2="71.290756" />
    <linearGradient
       id="linearGradient5398-2">
      <stop
         id="stop5400-5"
         offset="0"
         style="stop-color:#d9d1a9;stop-opacity:1;" />
      <stop
         id="stop5402-0"
         offset="1"
         style="stop-color:#a99c89;stop-opacity:1;" />
    </linearGradient>
    <linearGradient
       inkscape:collect="always"
       xlink:href="#linearGradient3783"
       id="linearGradient2991"
       gradientUnits="userSpaceOnUse"
       gradientTransform="matrix(0.85671915,0,0,3.7676271,-252.40078,781.49214)"
       x1="349.5"
       y1="45.933613"
       x2="349.60715"
       y2="71.290756" />
    <linearGradient
       id="linearGradient3783">
      <stop
         style="stop-color:#e4dec1;stop-opacity:1;"
         offset="0"
         id="stop3785" />
      <stop
         id="stop3787"
         offset="0.2409419"
         style="stop-color:#c1b9a2;stop-opacity:1" />
      <stop
         style="stop-color:#b6ab96;stop-opacity:1"
         offset="0.8028776"
         id="stop3789" />
      <stop
         style="stop-color:#94846c;stop-opacity:1"
         offset="1"
         id="stop3791" />
    </linearGradient>
    <linearGradient
       y2="71.290756"
       x2="349.60715"
       y1="45.933613"
       x1="349.5"
       gradientTransform="matrix(0.85671915,0,0,3.7676271,-255.43368,-170.56041)"
       gradientUnits="userSpaceOnUse"
       id="linearGradient3811"
       xlink:href="#linearGradient3783"
       inkscape:collect="always" />
    <linearGradient
       inkscape:collect="always"
       xlink:href="#linearGradient5398-2"
       id="linearGradient3861"
       gradientUnits="userSpaceOnUse"
       gradientTransform="matrix(0.85671915,0,0,3.7676271,-404.60836,782.20643)"
       x1="349.5"
       y1="45.933613"
       x2="349.60715"
       y2="71.290756" />
    <linearGradient
       inkscape:collect="always"
       xlink:href="#linearGradient3783-0"
       id="linearGradient2991-5"
       gradientUnits="userSpaceOnUse"
       gradientTransform="matrix(0.85671915,0,0,3.7676271,-252.40078,781.49214)"
       x1="349.5"
       y1="45.933613"
       x2="349.60715"
       y2="71.290756" />
    <linearGradient
       id="linearGradient3783-0">
      <stop
         style="stop-color:#e4dec1;stop-opacity:1;"
         offset="0"
         id="stop3785-6" />
      <stop
         id="stop3787-6"
         offset="0.2409419"
         style="stop-color:#c1b9a2;stop-opacity:1" />
      <stop
         style="stop-color:#b6ab96;stop-opacity:1"
         offset="0.8028776"
         id="stop3789-9" />
      <stop
         style="stop-color:#94846c;stop-opacity:1"
         offset="1"
         id="stop3791-7" />
    </linearGradient>
    <linearGradient
       y2="71.290756"
       x2="349.60715"
       y1="45.933613"
       x1="349.5"
       gradientTransform="matrix(0.85671915,0,0,3.7676271,-144.72588,783.27839)"
       gradientUnits="userSpaceOnUse"
       id="linearGradient3811-9"
       xlink:href="#linearGradient3783-0"
       inkscape:collect="always" />
    <linearGradient
       inkscape:collect="always"
       xlink:href="#linearGradient5398-2"
       id="linearGradient3886"
       gradientUnits="userSpaceOnUse"
       gradientTransform="matrix(0.85671915,0,0,3.7676271,194.48981,633.64746)"
       x1="349.5"
       y1="45.933613"
       x2="349.60715"
       y2="71.290756" />
    <linearGradient
       inkscape:collect="always"
       xlink:href="#linearGradient3783"
       id="linearGradient3890"
       gradientUnits="userSpaceOnUse"
       gradientTransform="matrix(0.85671915,0,0,3.7676271,-252.40078,781.49214)"
       x1="349.5"
       y1="45.933613"
       x2="349.60715"
       y2="71.290756" />
  </defs>
  <sodipodi:namedview
     id="base"
     pagecolor="#ffffff"
     bordercolor="#666666"
     borderopacity="1.0"
     inkscape:pageopacity="0.0"
     inkscape:pageshadow="2"
     inkscape:zoom="1.979899"
     inkscape:cx="-23.87982"
     inkscape:cy="3.0715127"
     inkscape:document-units="px"
     inkscape:current-layer="layer1"
     showgrid="false"
     inkscape:window-width="1920"
     inkscape:window-height="1028"
     inkscape:window-x="0"
     inkscape:window-y="0"
     inkscape:window-maximized="1" />
  <metadata
     id="metadata8690">
    <rdf:RDF>
      <cc:Work
         rdf:about="">
        <dc:format>image/svg+xml</dc:format>
        <dc:type
           rdf:resource="http://purl.org/dc/dcmitype/StillImage" />
        <dc:title />
      </cc:Work>
    </rdf:RDF>
  </metadata>
  <g
     inkscape:label="Layer 1"
     inkscape:groupmode="layer"
     id="layer1"
     transform="translate(0,-950.36218)">
    <g
       id="g3892">
      <rect
         style="fill:url(#linearGradient3890);fill-opacity:1.0;stroke:#342700;stroke-width:5;stroke-linecap:square;stroke-linejoin:round;stroke-miterlimit:4;stroke-opacity:1;stroke-dasharray:none;stroke-dashoffset:0"
         id="rect5359-5"
         width="91.791336"
         height="94.190666"
         x="5.5329022"
         y="954.55255"
         ry="12.756766" />
      <path
         sodipodi:nodetypes="ssccccccccccssssccss"
         inkscape:connector-curvature="0"
         id="path5395-3"
         d="m 52.49069,974.41191 c -7.10998,0 -11.79556,3.5738 -14.30333,8.5894 -2.01836,4.0367 -2.86706,8.3221 -3.13346,11.5938 l -2.02753,0 c -1.16903,0 -2.23484,1.0612 -2.23028,2.2303 l 0,23.59309 c -0.004,1.169 1.06125,2.2348 2.23028,2.2303 l 38.3388,0 c 1.16902,0 2.23485,-1.0613 2.2303,-2.2303 l 0,-23.59309 c 0.004,-1.1691 -1.06128,-2.2349 -2.2303,-2.2303 l -2.0091,0 c -0.22288,-3.2328 -0.95217,-7.5056 -2.83855,-11.5385 -2.35132,-5.027 -6.91687,-8.6447 -14.02683,-8.6447 z m 0,8.8474 c 3.12386,0 5.14953,0.6775 6.70929,3.797 1.18817,2.3764 1.74467,5.1379 2.0091,7.5388 l -17.43679,0 c 0.26442,-2.4009 0.82093,-5.1624 2.00911,-7.5388 1.55975,-3.1195 4.34998,-3.797 6.70929,-3.797 z"
         style="fill:#2b240a;fill-opacity:1;stroke:none" />
    </g>
    <g
       id="g3896">
      <rect
         style="fill:url(#linearGradient3861);fill-opacity:1;stroke:#342700;stroke-width:5;stroke-linecap:square;stroke-linejoin:round;stroke-miterlimit:4;stroke-opacity:1;stroke-dasharray:none;stroke-dashoffset:0"
         id="rect5359-5-6"
         width="91.791336"
         height="94.190666"
         x="-146.67468"
         y="955.26685"
         ry="12.756766" />
      <path
         sodipodi:nodetypes="ssccccccccccssssccss"
         inkscape:connector-curvature="0"
         id="path5395-3-2"
         d="m -99.716895,975.1262 c -7.109975,0 -11.795555,3.5738 -14.303325,8.5894 -2.01836,4.0367 -2.86706,8.3221 -3.13346,11.5938 l -2.02753,0 c -1.16903,0 -2.23484,1.0612 -2.23028,2.23027 l 0,23.59303 c -0.004,1.169 1.06125,2.2348 2.23028,2.2303 l 38.338795,0 c 1.16902,0 2.23485,-1.0613 2.2303,-2.2303 l 0,-23.59303 c 0.004,-1.16907 -1.06128,-2.23487 -2.2303,-2.23027 l -2.0091,0 c -0.22288,-3.2328 -0.95217,-7.5056 -2.83855,-11.5385 -2.35132,-5.027 -6.91687,-8.6447 -14.02683,-8.6447 z m 0,8.8474 c 3.12386,0 5.14953,0.6775 6.70929,3.797 1.18817,2.3764 1.74467,5.1379 2.0091,7.5388 l -17.436785,0 c 0.26442,-2.4009 0.82093,-5.1624 2.00911,-7.5388 1.55975,-3.1195 4.34998,-3.797 6.709285,-3.797 z"
         style="fill:#2b240a;fill-opacity:1;stroke:none" />
    </g>
  </g>
</svg>
