<?xml version="1.0" encoding="UTF-8" standalone="no"?>
<!-- Created with Inkscape (http://www.inkscape.org/) -->

<svg
   xmlns:dc="http://purl.org/dc/elements/1.1/"
   xmlns:cc="http://creativecommons.org/ns#"
   xmlns:rdf="http://www.w3.org/1999/02/22-rdf-syntax-ns#"
   xmlns:svg="http://www.w3.org/2000/svg"
   xmlns="http://www.w3.org/2000/svg"
   xmlns:xlink="http://www.w3.org/1999/xlink"
   xmlns:sodipodi="http://sodipodi.sourceforge.net/DTD/sodipodi-0.dtd"
   xmlns:inkscape="http://www.inkscape.org/namespaces/inkscape"
   width="350"
   height="90"
   id="svg7990"
   version="1.1"
   inkscape:version="0.48.2 r9819"
   sodipodi:docname="button_back_normal.svg">
  <defs
     id="defs7992">
    <linearGradient
       inkscape:collect="always"
       xlink:href="#linearGradient3831"
       id="linearGradient5280"
       gradientUnits="userSpaceOnUse"
       gradientTransform="matrix(3.1519677,0,0,3.1519677,-803.36829,832.87483)"
       x1="349.5"
       y1="45.933613"
       x2="349.60715"
       y2="71.290756" />
    <linearGradient
       id="linearGradient3831">
      <stop
         style="stop-color:#ffd40b;stop-opacity:1;"
         offset="0"
         id="stop3833" />
      <stop
         style="stop-color:#d57a05;stop-opacity:1;"
         offset="1"
         id="stop3835" />
    </linearGradient>
    <linearGradient
       inkscape:collect="always"
       xlink:href="#linearGradient5648"
       id="linearGradient3036"
       gradientUnits="userSpaceOnUse"
       gradientTransform="matrix(3.1519677,0,0,3.1519677,-943.96745,822.58107)"
       x1="349.5"
       y1="45.933613"
       x2="349.60715"
       y2="71.290756" />
    <linearGradient
       id="linearGradient5648">
      <stop
         id="stop5650"
         offset="0"
         style="stop-color:#ffed9b;stop-opacity:1;" />
      <stop
         style="stop-color:#f8c240;stop-opacity:1;"
         offset="0.30965549"
         id="stop5652" />
      <stop
         id="stop5658"
         offset="0.73630762"
         style="stop-color:#e69e22;stop-opacity:1;" />
      <stop
         id="stop5654"
         offset="1"
         style="stop-color:#d57a05;stop-opacity:1;" />
    </linearGradient>
    <linearGradient
       inkscape:collect="always"
       xlink:href="#linearGradient5648"
       id="linearGradient3809"
       gradientUnits="userSpaceOnUse"
       gradientTransform="matrix(3.1519677,0,0,3.1519677,-942.10853,823.18154)"
       x1="349.5"
       y1="45.933613"
       x2="349.60715"
       y2="71.290756" />
  </defs>
  <sodipodi:namedview
     id="base"
     pagecolor="#ffffff"
     bordercolor="#666666"
     borderopacity="1.0"
     inkscape:pageopacity="0.0"
     inkscape:pageshadow="2"
     inkscape:zoom="2.8"
     inkscape:cx="175.61701"
     inkscape:cy="74.023938"
     inkscape:document-units="px"
     inkscape:current-layer="layer1"
     showgrid="false"
     inkscape:window-width="1920"
     inkscape:window-height="1028"
     inkscape:window-x="0"
     inkscape:window-y="0"
     inkscape:window-maximized="1" />
  <metadata
     id="metadata7995">
    <rdf:RDF>
      <cc:Work
         rdf:about="">
        <dc:format>image/svg+xml</dc:format>
        <dc:type
           rdf:resource="http://purl.org/dc/dcmitype/StillImage" />
        <dc:title />
      </cc:Work>
    </rdf:RDF>
  </metadata>
  <g
     inkscape:label="Layer 1"
     inkscape:groupmode="layer"
     id="layer1"
     transform="translate(0,-962.36218)">
    <rect
       ry="10.672211"
       y="967.96259"
       x="6.858881"
       height="78.799179"
       width="337.71082"
       id="rect5212"
       style="fill:url(#linearGradient3809);fill-opacity:1.0;stroke:#342700;stroke-width:5;stroke-linecap:square;stroke-linejoin:round;stroke-miterlimit:4;stroke-opacity:1;stroke-dasharray:none;stroke-dashoffset:0" />
    <g
       id="g5453"
       style="font-size:43.53641129px;font-style:normal;font-variant:normal;font-weight:600;font-stretch:normal;text-align:start;line-height:125%;letter-spacing:0px;word-spacing:0px;writing-mode:lr-tb;text-anchor:start;fill:#2b240a;fill-opacity:1;stroke:none;font-family:LMSansDemiCond10;-inkscape-font-specification:LMSansDemiCond10 Semi-Bold"
       transform="matrix(1.0884103,0,0,0.91877118,-127.72668,-324.73896)">
      <g
         id="g5455"
         style="font-size:42.89398575px;fill:#2b240a;fill-opacity:1;font-family:LMSansDemiCond10;-inkscape-font-specification:LMSansDemiCond10 Semi-Bold"
         transform="matrix(0.9852439,0,0,1.0149771,-253.37104,-105.5482)">
        <path
           style="fill:#2b240a;fill-opacity:1"
           transform="matrix(1.2456211,0,0,1.1403549,197.86787,282.69323)"
           d="m 236.21875,1080.3125 c -0.79793,0 -1.44275,0.076 -1.90625,0.5313 -0.4635,0.455 -0.5625,1.1144 -0.5625,1.9374 l 0,25.9063 c 0,0.7979 0.0761,1.4428 0.53125,1.9063 0.45511,0.4634 1.11442,0.5624 1.9375,0.5624 l 9.65625,0 c 3.85494,0 6.48413,-1.1043 8.125,-2.7812 1.64087,-1.6769 2.25,-3.8684 2.25,-5.9688 0,-1.6582 -0.4295,-3.3971 -1.59375,-4.8437 -0.90129,-1.1198 -2.24847,-2.0178 -4.09375,-2.5937 2.76558,-1.1689 4.59375,-3.3973 4.59375,-6.4688 0,-2.0717 -0.69761,-4.1489 -2.375,-5.6875 -1.67739,-1.5386 -4.282,-2.5 -8,-2.5 l -8.5625,0 z m 63.90625,0 c -0.79793,0 -1.44275,0.076 -1.90625,0.5313 -0.4635,0.455 -0.5625,1.1144 -0.5625,1.9374 l 0,25.9063 c 0,0.7979 0.0761,1.4428 0.53125,1.9063 0.45511,0.4634 1.11442,0.5624 1.9375,0.5624 l 0.25,0 c 0.80073,0 1.42906,-0.077 1.875,-0.5312 0.44594,-0.4544 0.53125,-1.0995 0.53125,-1.875 l 0,-5.1562 1.1875,-1.2188 4.90625,7.875 a 0.5416225,0.5416225 0 0 0 0.0312,0.031 c 0.28195,0.4229 0.66772,0.6705 1.0625,0.7813 0.39478,0.1108 0.77846,0.094 1.125,0.094 l 1.1875,0 c 0.30191,0 0.72235,0.013 1.15625,-0.1562 0.4339,-0.1693 0.84375,-0.6569 0.84375,-1.2812 0,-0.066 0.0301,-0.2251 -0.0312,-0.4063 -0.0575,-0.1699 -0.16707,-0.3518 -0.3125,-0.5625 l -0.0312,-0.031 -6.40625,-10.25 5.53125,-6.0313 c 0.19085,-0.212 0.34335,-0.3733 0.46875,-0.5625 0.1254,-0.1892 0.1875,-0.4501 0.1875,-0.6875 0,-0.293 -0.0574,-0.564 -0.21875,-0.7813 -0.16132,-0.2172 -0.38557,-0.3612 -0.59375,-0.4374 -0.41636,-0.1525 -0.82549,-0.125 -1.125,-0.125 l -1.4375,0 c -0.45381,0 -0.87172,-0.021 -1.3125,0.125 -0.44078,0.1455 -0.85638,0.4341 -1.28125,0.9062 l -4.8125,5.25 0,-13.375 c 0,-0.6981 -0.0215,-1.3253 -0.4375,-1.8125 -0.41603,-0.4872 -1.08992,-0.625 -1.96875,-0.625 l -0.375,0 z m -60.34375,4.2813 3.71875,0 c 0.46659,0 1.99707,0.04 3.34375,0.5624 0.67334,0.2614 1.27434,0.6451 1.71875,1.1876 0.44441,0.5424 0.75,1.2322 0.75,2.25 0,1.2425 -0.37656,2.3778 -1.25,3.2187 -0.87344,0.8409 -2.29842,1.4375 -4.5625,1.4375 l -3.71875,0 0,-8.6562 z m 28.28125,4.625 c -2.4704,0 -4.30947,0.4581 -6.125,1.3437 a 0.5416225,0.5416225 0 0 0 0,0.031 c -0.40527,0.2132 -0.68854,0.3118 -0.9375,0.5312 -0.24896,0.2194 -0.375,0.6189 -0.375,0.9375 0,0.399 0.0784,1.2209 0.125,1.5937 0.0433,0.4978 0.0544,0.7949 0.1875,1.125 0.0666,0.1651 0.19242,0.3581 0.375,0.4688 0.18258,0.1107 0.36857,0.125 0.53125,0.125 0.15075,0 0.40233,-0.049 0.5625,-0.1562 0.16017,-0.1072 0.28761,-0.2152 0.5,-0.4063 a 0.5416225,0.5416225 0 0 0 0,-0.031 c 1.64356,-1.6034 3.46069,-1.9687 5,-1.9687 0.47491,0 0.99923,0.026 1.4375,0.4063 0.43827,0.3803 0.90625,1.231 0.90625,3.25 l 0,0.875 c 0,0.266 -0.0107,0.2724 0,0.2812 -0.9354,0.043 -3.64846,0.1619 -6.1875,1.0938 -1.27746,0.4688 -2.4958,1.1393 -3.4375,2.1562 -0.9417,1.0169 -1.5625,2.3805 -1.5625,4.0938 0,3.3512 2.45496,6.625 6.125,6.625 2.40172,0 4.13821,-1.1603 5.21875,-2.3438 0.0321,0.4836 0.0943,0.9251 0.40625,1.2812 0.42044,0.48 1.09337,0.6251 1.96875,0.625 l 0.875,0 c 0.80074,0 1.42906,-0.077 1.875,-0.5312 0.44594,-0.4544 0.53125,-1.0995 0.53125,-1.875 l 0,-12.3125 c 0,-2.0977 -0.59466,-3.9257 -1.9375,-5.2187 -1.34284,-1.2931 -3.37356,-2 -6.0625,-2 z m 19.78125,0 c -3.07989,0 -5.50761,1.0372 -7.125,3 -1.61739,1.9627 -2.40625,4.7793 -2.40625,8.25 0,1.3318 -0.0161,5.2167 2.40625,8.1874 1.85094,2.2212 4.62639,2.9376 6.96875,2.9376 0.81492,0 2.55057,-0.071 4.375,-0.9376 a 0.5416225,0.5416225 0 0 0 0.0312,-0.031 c 0,0 0.66713,-0.3226 1.34375,-0.7812 0.33831,-0.2294 0.68558,-0.4898 0.96875,-0.7813 0.28317,-0.2915 0.53125,-0.6118 0.53125,-1.0937 0,-0.3991 -0.0784,-1.2211 -0.125,-1.5938 -0.0433,-0.4983 -0.0491,-0.7959 -0.1875,-1.125 -0.0692,-0.1646 -0.19178,-0.3345 -0.375,-0.4375 -0.18322,-0.103 -0.37517,-0.125 -0.53125,-0.125 -0.13409,0 -0.37392,0.01 -0.5625,0.125 -0.1626,0.1013 -0.25754,0.2534 -0.375,0.4063 -0.0188,0.024 -0.0429,0.036 -0.0625,0.062 -0.63877,0.6485 -2.0419,2.25 -4.9375,2.25 -0.92248,0 -1.53699,-0.2928 -2.03125,-0.75 -0.49426,-0.4571 -0.84906,-1.1154 -1.09375,-1.875 -0.48938,-1.5191 -0.53125,-3.3868 -0.53125,-4.5 0,-1.5519 0.0727,-3.4176 0.59375,-4.8124 0.26051,-0.6975 0.62753,-1.2609 1.125,-1.6563 0.49747,-0.3954 1.144,-0.6563 2.0625,-0.6563 2.26982,0 3.06089,0.5114 4.40625,1.5626 l 0,-0.031 c 0.17957,0.1785 0.29214,0.3141 0.4375,0.4063 0.15612,0.099 0.40718,0.125 0.5,0.125 0.15078,0 0.32345,-0.016 0.5,-0.125 0.17655,-0.1088 0.30883,-0.2851 0.375,-0.4376 0.13234,-0.3048 0.16434,-0.6011 0.25,-1.0937 0.0183,-0.092 0.0829,-0.4539 0.15625,-0.8125 0.0367,-0.1793 0.098,-0.3557 0.125,-0.5 0.0135,-0.072 0.0225,-0.1322 0.0312,-0.1875 0.009,-0.055 0,-0.077 0,-0.1875 0,-0.2483 -0.10558,-0.5907 -0.3125,-0.7812 -0.20692,-0.1906 -0.36519,-0.2712 -0.65625,-0.4376 -1.69766,-1.0011 -3.06225,-1.5625 -5.875,-1.5624 z m -48.0625,7.8124 4.09375,0 c 0.59724,0 2.26177,0.02 3.71875,0.6876 1.45698,0.6674 2.71875,1.8782 2.71875,4.5937 0,1.5492 -0.49713,2.6246 -1.4375,3.375 -0.94037,0.7504 -2.39704,1.1875 -4.3125,1.1875 l -4.78125,0 0,-9.8438 z m 30.46875,3.2188 0,3.7188 c 0,1.809 -0.67232,2.6783 -1.40625,3.1874 -0.73393,0.5092 -1.61943,0.6251 -1.875,0.625 -0.68576,0 -1.2374,-0.317 -1.65625,-0.8437 -0.41885,-0.5267 -0.6875,-1.2779 -0.6875,-2.0625 0,-1.9966 0.98478,-3.0389 2.28125,-3.7188 1.09935,-0.5764 2.36142,-0.8082 3.34375,-0.9062 z"
           id="path5457"
           inkscape:original="M 236.21875 1080.8438 C 234.71746 1080.8438 234.28125 1081.237 234.28125 1082.7812 L 234.28125 1108.6875 C 234.28125 1110.1888 234.67457 1110.625 236.21875 1110.625 L 245.875 1110.625 C 253.38144 1110.625 255.71875 1106.3954 255.71875 1102.4062 C 255.71875 1099.2749 254.11174 1095.9633 248.75 1095.0625 C 252.3102 1094.2475 254.625 1091.9315 254.625 1088.5 C 254.625 1084.5967 252.03033 1080.8438 244.78125 1080.8438 L 236.21875 1080.8438 z M 300.125 1080.8438 C 298.62371 1080.8438 298.1875 1081.237 298.1875 1082.7812 L 298.1875 1108.6875 C 298.1875 1110.1888 298.58082 1110.625 300.125 1110.625 L 300.375 1110.625 C 301.87628 1110.625 302.25 1110.2084 302.25 1108.75 L 302.25 1103.375 L 304.0625 1101.5 L 309.34375 1109.9688 C 309.77269 1110.6121 310.40745 1110.625 311.09375 1110.625 L 312.28125 1110.625 C 312.88177 1110.625 313.75 1110.6195 313.75 1109.7188 C 313.75 1109.5473 313.76901 1109.4603 313.46875 1109.0312 L 306.8125 1098.4062 L 312.625 1092.0625 C 313.01104 1091.6336 313.15625 1091.4878 313.15625 1091.1875 C 313.15625 1090.3725 312.35052 1090.375 311.75 1090.375 L 310.3125 1090.375 C 309.41173 1090.375 308.89709 1090.3921 308.125 1091.25 L 302.375 1097.5312 L 302.375 1082.75 C 302.375 1081.4203 302.12997 1080.8438 300.5 1080.8438 L 300.125 1080.8438 z M 239.25 1084.0625 L 243.5 1084.0625 C 244.44366 1084.0625 249.84375 1084.0899 249.84375 1088.5938 C 249.84375 1091.296 248.21833 1093.7812 243.5 1093.7812 L 239.25 1093.7812 L 239.25 1084.0625 z M 268.0625 1089.75 C 265.66043 1089.75 263.94615 1090.2046 262.1875 1091.0625 C 261.37251 1091.4914 261.15625 1091.5907 261.15625 1092.0625 C 261.15625 1092.3628 261.23836 1093.2505 261.28125 1093.5938 C 261.36705 1094.5803 261.41481 1094.8438 261.84375 1094.8438 C 262.05822 1094.8438 262.10231 1094.7921 262.53125 1094.4062 C 264.2899 1092.6905 266.27628 1092.2812 267.90625 1092.2812 C 268.84992 1092.2812 270.78125 1092.2651 270.78125 1096.4688 L 270.78125 1097.3438 C 270.78125 1098.0729 270.74144 1098.1133 270.3125 1098.1562 C 268.46806 1098.2423 259.59375 1098.6205 259.59375 1104.9688 C 259.59375 1108.0572 261.84177 1111.0625 265.1875 1111.0625 C 268.27586 1111.0625 270.21994 1108.9001 270.90625 1107.6562 L 270.90625 1108.75 C 270.90625 1110.0797 271.15128 1110.625 272.78125 1110.625 L 273.65625 1110.625 C 275.15754 1110.625 275.53125 1110.2084 275.53125 1108.75 L 275.53125 1096.4375 C 275.53125 1092.4484 273.25266 1089.75 268.0625 1089.75 z M 287.84375 1089.75 C 281.92439 1089.75 278.84375 1093.6916 278.84375 1100.4688 C 278.84375 1101.7985 278.85162 1105.5244 281.125 1108.3125 C 282.84076 1110.3714 285.45701 1111.0625 287.6875 1111.0625 C 288.45959 1111.0625 290.128 1110.9709 291.84375 1110.1562 C 291.84375 1110.1562 294.40625 1108.8696 294.40625 1107.9688 C 294.40625 1107.6684 294.32413 1106.7806 294.28125 1106.4375 C 294.19545 1105.4509 294.14769 1105.2188 293.71875 1105.2188 C 293.50428 1105.2188 293.41361 1105.2507 293.15625 1105.5938 C 292.59863 1106.1514 290.9554 1108.0625 287.78125 1108.0625 C 283.62053 1108.0625 283.59375 1102.6368 283.59375 1100.4062 C 283.59375 1097.275 283.83132 1092.75 287.90625 1092.75 C 290.26541 1092.75 291.28364 1093.3338 292.65625 1094.4062 C 293.0423 1094.7922 293.12131 1094.8125 293.25 1094.8125 C 293.63604 1094.8125 293.67218 1094.5804 293.84375 1093.5938 C 293.88665 1093.3792 294.15625 1092.1287 294.15625 1092 C 294.15625 1091.614 294.03802 1091.5932 293.4375 1091.25 C 291.76464 1090.2635 290.58897 1089.75 287.84375 1089.75 z M 239.25 1096.5 L 243.875 1096.5 C 245.07603 1096.5 250.84375 1096.5218 250.84375 1102.3125 C 250.84375 1105.6582 248.55164 1107.4063 244.5625 1107.4062 L 239.25 1107.4062 L 239.25 1096.5 z M 270.78125 1099.6562 L 270.78125 1103.9688 C 270.78125 1107.8721 267.69795 1108.3125 266.96875 1108.3125 C 265.25299 1108.3125 264.09375 1106.6766 264.09375 1104.875 C 264.09375 1100.4998 268.72234 1099.7849 270.78125 1099.6562 z "
           inkscape:radius="0.54156834"
           sodipodi:type="inkscape:offset" />
      </g>
    </g>
  </g>
</svg>
