<?xml version="1.0" encoding="UTF-8" standalone="no"?>
<!-- Created with Inkscape (http://www.inkscape.org/) -->

<svg
   xmlns:dc="http://purl.org/dc/elements/1.1/"
   xmlns:cc="http://creativecommons.org/ns#"
   xmlns:rdf="http://www.w3.org/1999/02/22-rdf-syntax-ns#"
   xmlns:svg="http://www.w3.org/2000/svg"
   xmlns="http://www.w3.org/2000/svg"
   xmlns:sodipodi="http://sodipodi.sourceforge.net/DTD/sodipodi-0.dtd"
   xmlns:inkscape="http://www.inkscape.org/namespaces/inkscape"
   width="60"
   height="50"
   id="svg3684"
   version="1.1"
   inkscape:version="0.48.2 r9819"
   sodipodi:docname="New document 5">
  <defs
     id="defs3686" />
  <sodipodi:namedview
     id="base"
     pagecolor="#ffffff"
     bordercolor="#666666"
     borderopacity="1.0"
     inkscape:pageopacity="0.0"
     inkscape:pageshadow="2"
     inkscape:zoom="7.9195959"
     inkscape:cx="72.085261"
     inkscape:cy="26.760533"
     inkscape:document-units="px"
     inkscape:current-layer="layer1"
     showgrid="false"
     inkscape:window-width="1920"
     inkscape:window-height="1028"
     inkscape:window-x="0"
     inkscape:window-y="0"
     inkscape:window-maximized="1" />
  <metadata
     id="metadata3689">
    <rdf:RDF>
      <cc:Work
         rdf:about="">
        <dc:format>image/svg+xml</dc:format>
        <dc:type
           rdf:resource="http://purl.org/dc/dcmitype/StillImage" />
        <dc:title></dc:title>
      </cc:Work>
    </rdf:RDF>
  </metadata>
  <g
     inkscape:label="Layer 1"
     inkscape:groupmode="layer"
     id="layer1"
     transform="translate(0,-1002.3622)">
    <g
       transform="matrix(0.72765675,0,0,0.72765675,-179.88944,548.2758)"
       id="g6170">
      <path
         sodipodi:nodetypes="ssssccccssscccscssscsscc"
         inkscape:connector-curvature="0"
         id="path6172"
         d="m 261.80925,627.04776 c -2.26318,-0.15566 -4.29245,0.22383 -5.86595,1.14841 -1.5735,0.92458 -2.60953,2.32337 -3.27349,3.86329 -1.32793,3.07985 -1.41598,6.87623 -1.38938,10.99286 0.0248,3.84265 0.29443,8.67952 2.06177,13.60396 0.36715,1.02107 1.66082,1.75715 2.80981,1.59873 l 19.97971,-2.74907 c 1.02499,-0.13931 1.82577,-0.95958 1.84699,-1.89193 0.11528,-4.70523 -0.57292,-10.2545 -2.32349,-15.09938 -1.75058,-4.84489 -4.63049,-9.33388 -9.65494,-10.70224 -1.49767,-0.40788 -2.88233,-0.67462 -4.19103,-0.76463 z m 17.19476,41.32074 c -0.15477,-0.004 -0.30882,0.005 -0.45924,0.0273 l -16.46108,2.26059 c -0.72402,0.0978 -1.35605,0.52048 -1.65208,1.1049 -0.29604,0.5844 -0.24886,1.31629 0.12332,1.9131 2.0222,3.25885 4.62605,7.59833 7.88406,11.00081 1.629,1.70123 3.42547,3.19947 5.58741,4.14121 2.16195,0.94173 4.76767,1.20278 7.16569,0.39064 0.49167,-0.16652 0.9603,-0.37388 1.40035,-0.65059 1.44768,-0.91017 2.22228,-2.37948 2.45168,-3.83861 0.22939,-1.45913 0.0394,-2.97248 -0.32313,-4.55505 -0.725,-3.16515 -2.18157,-6.67377 -3.36828,-10.14062 -0.30578,-0.89776 -1.3156,-1.60877 -2.3487,-1.6537 z"
         style="fill:#2b240a;fill-opacity:1;stroke:none" />
      <path
         style="fill:#2b240a;fill-opacity:1;stroke:none"
         d="m 315.04704,626.62213 c 2.26317,-0.15566 4.29244,0.22382 5.86594,1.1484 1.5735,0.92459 2.60953,2.32338 3.2735,3.8633 1.32792,3.07985 1.41598,6.87623 1.38938,10.99286 -0.0248,3.84264 -0.29444,8.67952 -2.06178,13.60395 -0.36715,1.02108 -1.66082,1.75715 -2.80981,1.59874 l -19.97971,-2.74907 c -1.02499,-0.13931 -1.82577,-0.95958 -1.84698,-1.89193 -0.11529,-4.70524 0.57292,-10.2545 2.32349,-15.09938 1.75057,-4.8449 4.63048,-9.33388 9.65493,-10.70224 1.49767,-0.40788 2.88233,-0.67462 4.19104,-0.76463 z m -17.19476,41.32074 c 0.15476,-0.004 0.30881,0.005 0.45924,0.0273 l 16.46107,2.26059 c 0.72402,0.0978 1.35605,0.52048 1.65208,1.10489 0.29604,0.58441 0.24886,1.3163 -0.12332,1.91311 -2.02219,3.25885 -4.62604,7.59833 -7.88406,11.0008 -1.629,1.70124 -3.42546,3.19948 -5.58741,4.14121 -2.16195,0.94174 -4.76766,1.20279 -7.16568,0.39065 -0.49167,-0.16652 -0.96031,-0.37389 -1.40036,-0.65059 -1.44767,-0.91017 -2.22227,-2.37948 -2.45167,-3.83861 -0.2294,-1.45914 -0.0394,-2.97248 0.32312,-4.55505 0.725,-3.16515 2.18157,-6.67377 3.36828,-10.14062 0.30578,-0.89776 1.31561,-1.60877 2.34871,-1.65371 z"
         id="path6174"
         inkscape:connector-curvature="0"
         sodipodi:nodetypes="ssssccccssscccscssscsscc" />
    </g>
  </g>
</svg>
