<?xml version="1.0" encoding="UTF-8" standalone="no"?>
<!-- Created with Inkscape (http://www.inkscape.org/) -->

<svg
   xmlns:dc="http://purl.org/dc/elements/1.1/"
   xmlns:cc="http://creativecommons.org/ns#"
   xmlns:rdf="http://www.w3.org/1999/02/22-rdf-syntax-ns#"
   xmlns:svg="http://www.w3.org/2000/svg"
   xmlns="http://www.w3.org/2000/svg"
   xmlns:xlink="http://www.w3.org/1999/xlink"
   xmlns:sodipodi="http://sodipodi.sourceforge.net/DTD/sodipodi-0.dtd"
   xmlns:inkscape="http://www.inkscape.org/namespaces/inkscape"
   width="48"
   height="48"
   id="svg6358"
   version="1.1"
   inkscape:version="0.48.2 r9819"
   sodipodi:docname="robotNorth.svg">
  <defs
     id="defs6360">
    <linearGradient
       inkscape:collect="always"
       xlink:href="#linearGradient5301"
       id="linearGradient3383"
       gradientUnits="userSpaceOnUse"
       gradientTransform="translate(40.634762,-271.61131)"
       x1="590"
       y1="342.36218"
       x2="565"
       y2="342.36218" />
    <linearGradient
       id="linearGradient5301">
      <stop
         style="stop-color:#63dd6e;stop-opacity:1;"
         offset="0"
         id="stop5303" />
      <stop
         style="stop-color:#3ba335;stop-opacity:1;"
         offset="1"
         id="stop5305" />
    </linearGradient>
    <linearGradient
       inkscape:collect="always"
       xlink:href="#linearGradient5301"
       id="linearGradient3380"
       gradientUnits="userSpaceOnUse"
       gradientTransform="translate(40.634762,-271.61131)"
       x1="595"
       y1="332.36218"
       x2="595"
       y2="307.36218" />
    <linearGradient
       id="linearGradient6280">
      <stop
         style="stop-color:#63dd6e;stop-opacity:1;"
         offset="0"
         id="stop6282" />
      <stop
         style="stop-color:#3ba335;stop-opacity:1;"
         offset="1"
         id="stop6284" />
    </linearGradient>
    <linearGradient
       inkscape:collect="always"
       xlink:href="#linearGradient5301"
       id="linearGradient3377"
       gradientUnits="userSpaceOnUse"
       gradientTransform="translate(40.634762,-271.61131)"
       x1="595"
       y1="362.36218"
       x2="595"
       y2="372.36218" />
    <linearGradient
       id="linearGradient6287">
      <stop
         style="stop-color:#63dd6e;stop-opacity:1;"
         offset="0"
         id="stop6289" />
      <stop
         style="stop-color:#3ba335;stop-opacity:1;"
         offset="1"
         id="stop6291" />
    </linearGradient>
    <linearGradient
       inkscape:collect="always"
       xlink:href="#linearGradient5301"
       id="linearGradient3374"
       gradientUnits="userSpaceOnUse"
       gradientTransform="translate(40.634762,-271.61131)"
       x1="595"
       y1="342.36218"
       x2="620"
       y2="342.36218" />
    <linearGradient
       id="linearGradient6294">
      <stop
         style="stop-color:#63dd6e;stop-opacity:1;"
         offset="0"
         id="stop6296" />
      <stop
         style="stop-color:#3ba335;stop-opacity:1;"
         offset="1"
         id="stop6298" />
    </linearGradient>
    <linearGradient
       inkscape:collect="always"
       xlink:href="#linearGradient5169"
       id="linearGradient5626"
       gradientUnits="userSpaceOnUse"
       gradientTransform="translate(-20.317383,-29.941403)"
       x1="571"
       y1="312.36218"
       x2="571"
       y2="340.36218" />
    <linearGradient
       id="linearGradient5169">
      <stop
         id="stop5171"
         offset="0"
         style="stop-color:#383838;stop-opacity:1;" />
      <stop
         style="stop-color:#575757;stop-opacity:1;"
         offset="0.5"
         id="stop5175" />
      <stop
         id="stop5173"
         offset="1"
         style="stop-color:#383838;stop-opacity:1;" />
    </linearGradient>
    <linearGradient
       inkscape:collect="always"
       xlink:href="#linearGradient5169"
       id="linearGradient5628"
       gradientUnits="userSpaceOnUse"
       gradientTransform="translate(-20.317383,-29.941403)"
       x1="571"
       y1="342.36218"
       x2="571"
       y2="369.36218" />
    <linearGradient
       id="linearGradient6306">
      <stop
         id="stop6308"
         offset="0"
         style="stop-color:#383838;stop-opacity:1;" />
      <stop
         style="stop-color:#575757;stop-opacity:1;"
         offset="0.5"
         id="stop6310" />
      <stop
         id="stop6312"
         offset="1"
         style="stop-color:#383838;stop-opacity:1;" />
    </linearGradient>
    <linearGradient
       inkscape:collect="always"
       xlink:href="#linearGradient5169"
       id="linearGradient5630"
       gradientUnits="userSpaceOnUse"
       gradientTransform="translate(-20.317383,-29.941403)"
       x1="623"
       y1="312.36218"
       x2="623"
       y2="340.36218" />
    <linearGradient
       id="linearGradient6315">
      <stop
         id="stop6317"
         offset="0"
         style="stop-color:#383838;stop-opacity:1;" />
      <stop
         style="stop-color:#575757;stop-opacity:1;"
         offset="0.5"
         id="stop6319" />
      <stop
         id="stop6321"
         offset="1"
         style="stop-color:#383838;stop-opacity:1;" />
    </linearGradient>
    <linearGradient
       inkscape:collect="always"
       xlink:href="#linearGradient5169"
       id="linearGradient5632"
       gradientUnits="userSpaceOnUse"
       gradientTransform="translate(-20.317383,-29.941403)"
       x1="621"
       y1="341.36218"
       x2="621"
       y2="370.36218" />
    <linearGradient
       id="linearGradient6324">
      <stop
         id="stop6326"
         offset="0"
         style="stop-color:#383838;stop-opacity:1;" />
      <stop
         style="stop-color:#575757;stop-opacity:1;"
         offset="0.5"
         id="stop6328" />
      <stop
         id="stop6330"
         offset="1"
         style="stop-color:#383838;stop-opacity:1;" />
    </linearGradient>
  </defs>
  <sodipodi:namedview
     id="base"
     pagecolor="#ffffff"
     bordercolor="#666666"
     borderopacity="1.0"
     inkscape:pageopacity="0.0"
     inkscape:pageshadow="2"
     inkscape:zoom="7.9195959"
     inkscape:cx="45.420746"
     inkscape:cy="23.056181"
     inkscape:document-units="px"
     inkscape:current-layer="layer1"
     showgrid="false"
     inkscape:window-width="1920"
     inkscape:window-height="1028"
     inkscape:window-x="0"
     inkscape:window-y="0"
     inkscape:window-maximized="1" />
  <metadata
     id="metadata6363">
    <rdf:RDF>
      <cc:Work
         rdf:about="">
        <dc:format>image/svg+xml</dc:format>
        <dc:type
           rdf:resource="http://purl.org/dc/dcmitype/StillImage" />
        <dc:title></dc:title>
      </cc:Work>
    </rdf:RDF>
  </metadata>
  <g
     inkscape:label="Layer 1"
     inkscape:groupmode="layer"
     id="layer1"
     transform="translate(0,-1004.3622)">
    <g
       transform="matrix(0,0.59503883,-0.66450513,0,71.409158,651.56739)"
       id="g5934">
      <path
         inkscape:connector-curvature="0"
         id="path5475"
         d="m 608.31845,100.78692 0.13368,-63.89282 17.64404,21.25305 2.807,33.95141 z"
         style="fill:url(#linearGradient3383);fill-opacity:1;stroke:none" />
      <path
         inkscape:connector-curvature="0"
         id="path5477"
         d="m 658.3099,36.22576 -50.25878,0.401 18.57971,21.78772 16.9757,-0.13367 z"
         style="fill:url(#linearGradient3380);fill-opacity:1;stroke:none" />
      <path
         inkscape:connector-curvature="0"
         id="path5479"
         d="m 608.05112,101.32158 21.11938,-9.35669 9.22302,0 19.91638,9.35669 z"
         style="fill:url(#linearGradient3377);fill-opacity:1;stroke:none" />
      <path
         inkscape:connector-curvature="0"
         id="path5481"
         d="m 658.3099,36.62676 -14.5697,21.92139 -5.21301,33.41674 20.05005,9.22303 z"
         style="fill:url(#linearGradient3374);fill-opacity:1;stroke:none" />
      <path
         inkscape:connector-curvature="0"
         id="path5483"
         d="m 626.36349,58.54815 16.57471,-0.13367 -4.94568,33.14941 -9.08936,0 z"
         style="fill:#63dd6e;fill-opacity:1;stroke:none" />
      <path
         id="path5485"
         style="fill:none;stroke:#08250d;stroke-width:2;stroke-linecap:round;stroke-linejoin:round;stroke-miterlimit:4;stroke-opacity:1;stroke-dasharray:none"
         d="m 609.09749,100.59868 19.28507,-8.3558 m 29.19502,8.3558 -18.69102,-8.2775 m 18.69102,-54.72249 -13.79539,20.18174 m -34.6847,-20.18174 16.51329,20.18023 m 1.03829,0.25002 16.09482,0.002 c 0.43671,5e-5 0.85341,0.35645 0.78829,0.78829 l -4.89563,32.46418 c -0.0651,0.43184 -0.3516,0.79235 -0.78829,0.78829 l -8.42741,-0.0783 c -0.43669,-0.004 -0.75105,-0.35315 -0.78829,-0.78829 l -2.77178,-32.38739 c -0.0372,-0.43512 0.78829,-0.35157 0.78829,-0.78829 z m -17.48008,-21.43023 48.33708,0 c 0.59361,0 1.0715,0.47789 1.0715,1.0715 l 0,62.857 c 0,0.59361 -0.47789,1.0715 -1.0715,1.0715 l -48.33708,0 c -0.59361,0 -1.0715,-0.47789 -1.0715,-1.0715 l 0,-62.857 c 0,-0.59361 0.47789,-1.0715 1.0715,-1.0715 z"
         inkscape:connector-curvature="0"
         sodipodi:nodetypes="ccccccccsssssssssssssssssss" />
      <g
         transform="translate(60.952145,-241.66991)"
         id="g5586">
        <path
           style="fill:url(#linearGradient5626);fill-opacity:1;stroke:#000000;stroke-width:1.34128654;stroke-opacity:1"
           d="m 539.68995,283.29099 c 0.39204,-0.22019 5.10082,-0.41826 7.63656,-0.27876 3.33794,0 6.04387,5.93846 6.04387,13.26393 0,7.32546 -2.37536,13.06224 -6.04387,13.26393 -3.41044,0.33223 -6.83099,0.31072 -7.08018,0.17209"
           id="path5487"
           inkscape:connector-curvature="0"
           sodipodi:nodetypes="ccscc" />
        <path
           d="m 520.97676,335.92459 c 0,6.05522 -1.81961,10.96395 -4.06422,10.96395 -2.24461,0 -4.06423,-4.90873 -4.06423,-10.96395 0,-6.05522 1.81962,-10.96395 4.06423,-10.96395 2.24461,0 4.06422,4.90873 4.06422,10.96395 z"
           sodipodi:ry="10.963952"
           sodipodi:rx="4.0642238"
           sodipodi:cy="335.92459"
           sodipodi:cx="516.91254"
           id="path5489"
           style="fill:#373737;fill-opacity:1;stroke:#000000;stroke-opacity:1"
           sodipodi:type="arc"
           transform="matrix(1.4870919,0,0,1.2097769,-228.55967,-109.91596)" />
        <path
           sodipodi:type="arc"
           style="fill:#a5a5a5;fill-opacity:1;stroke:#000000;stroke-opacity:1"
           id="path5491"
           sodipodi:cx="516.91254"
           sodipodi:cy="335.92459"
           sodipodi:rx="4.0642238"
           sodipodi:ry="10.963952"
           d="m 520.97676,335.92459 c 0,6.05522 -1.81961,10.96395 -4.06422,10.96395 -2.24461,0 -4.06423,-4.90873 -4.06423,-10.96395 0,-6.05522 1.81962,-10.96395 4.06423,-10.96395 2.24461,0 4.06422,4.90873 4.06422,10.96395 z"
           transform="matrix(0.8743488,0,0,0.71129898,88.188018,57.33333)" />
      </g>
      <g
         transform="translate(60.952145,-241.66991)"
         id="g5581">
        <path
           sodipodi:nodetypes="ccscc"
           inkscape:connector-curvature="0"
           id="path5493"
           d="m 539.68995,312.69773 c 0.39204,-0.22019 5.10082,-0.41827 7.63656,-0.27877 3.33794,0 6.04387,5.93847 6.04387,13.26394 0,7.32546 -2.37536,13.06224 -6.04387,13.26393 -3.41044,0.33223 -6.83099,0.31072 -7.08018,0.17209"
           style="fill:url(#linearGradient5628);fill-opacity:1;stroke:#000000;stroke-width:1.34128654;stroke-opacity:1" />
        <path
           transform="matrix(1.4870919,0,0,1.2097769,-228.55967,-80.509227)"
           sodipodi:type="arc"
           style="fill:#373737;fill-opacity:1;stroke:#000000;stroke-opacity:1"
           id="path5495"
           sodipodi:cx="516.91254"
           sodipodi:cy="335.92459"
           sodipodi:rx="4.0642238"
           sodipodi:ry="10.963952"
           d="m 520.97676,335.92459 c 0,6.05522 -1.81961,10.96395 -4.06422,10.96395 -2.24461,0 -4.06423,-4.90873 -4.06423,-10.96395 0,-6.05522 1.81962,-10.96395 4.06423,-10.96395 2.24461,0 4.06422,4.90873 4.06422,10.96395 z" />
        <path
           d="m 520.97676,335.92459 c 0,6.05522 -1.81961,10.96395 -4.06422,10.96395 -2.24461,0 -4.06423,-4.90873 -4.06423,-10.96395 0,-6.05522 1.81962,-10.96395 4.06423,-10.96395 2.24461,0 4.06422,4.90873 4.06422,10.96395 z"
           sodipodi:ry="10.963952"
           sodipodi:rx="4.0642238"
           sodipodi:cy="335.92459"
           sodipodi:cx="516.91254"
           id="path5497"
           style="fill:#a5a5a5;fill-opacity:1;stroke:#000000;stroke-opacity:1"
           sodipodi:type="arc"
           transform="matrix(0.8743488,0,0,0.71129898,88.188018,86.740067)" />
      </g>
      <g
         transform="translate(60.952145,-241.66991)"
         id="g5567">
        <path
           sodipodi:nodetypes="ccscc"
           inkscape:connector-curvature="0"
           id="path5499"
           d="m 605.72283,283.29099 c -0.39204,-0.22019 -5.10082,-0.41826 -7.63656,-0.27876 -3.33794,0 -6.04387,5.93846 -6.04387,13.26393 0,7.32546 2.37536,13.06224 6.04387,13.26393 3.41044,0.33223 6.83099,0.31072 7.08018,0.17209"
           style="fill:url(#linearGradient5630);fill-opacity:1;stroke:#000000;stroke-width:1.34128654;stroke-opacity:1" />
        <path
           transform="matrix(-1.4870919,0,0,1.2097769,1373.9725,-109.91596)"
           sodipodi:type="arc"
           style="fill:#373737;fill-opacity:1;stroke:#000000;stroke-opacity:1"
           id="path5501"
           sodipodi:cx="516.91254"
           sodipodi:cy="335.92459"
           sodipodi:rx="4.0642238"
           sodipodi:ry="10.963952"
           d="m 520.97676,335.92459 c 0,6.05522 -1.81961,10.96395 -4.06422,10.96395 -2.24461,0 -4.06423,-4.90873 -4.06423,-10.96395 0,-6.05522 1.81962,-10.96395 4.06423,-10.96395 2.24461,0 4.06422,4.90873 4.06422,10.96395 z" />
        <path
           d="m 520.97676,335.92459 c 0,6.05522 -1.81961,10.96395 -4.06422,10.96395 -2.24461,0 -4.06423,-4.90873 -4.06423,-10.96395 0,-6.05522 1.81962,-10.96395 4.06423,-10.96395 2.24461,0 4.06422,4.90873 4.06422,10.96395 z"
           sodipodi:ry="10.963952"
           sodipodi:rx="4.0642238"
           sodipodi:cy="335.92459"
           sodipodi:cx="516.91254"
           id="path5503"
           style="fill:#a5a5a5;fill-opacity:1;stroke:#000000;stroke-opacity:1"
           sodipodi:type="arc"
           transform="matrix(-0.8743488,0,0,0.71129898,1057.2248,57.33333)" />
      </g>
      <g
         transform="translate(60.952145,-241.66991)"
         id="g5572">
        <path
           style="fill:url(#linearGradient5632);fill-opacity:1;stroke:#000000;stroke-width:1.34128654;stroke-opacity:1"
           d="m 605.72283,312.69773 c -0.39204,-0.22019 -5.10082,-0.41827 -7.63656,-0.27877 -3.33794,0 -6.04387,5.93847 -6.04387,13.26394 0,7.32546 2.37536,13.06224 6.04387,13.26393 3.41044,0.33223 6.83099,0.31072 7.08018,0.17209"
           id="path5505"
           inkscape:connector-curvature="0"
           sodipodi:nodetypes="ccscc" />
        <path
           d="m 520.97676,335.92459 c 0,6.05522 -1.81961,10.96395 -4.06422,10.96395 -2.24461,0 -4.06423,-4.90873 -4.06423,-10.96395 0,-6.05522 1.81962,-10.96395 4.06423,-10.96395 2.24461,0 4.06422,4.90873 4.06422,10.96395 z"
           sodipodi:ry="10.963952"
           sodipodi:rx="4.0642238"
           sodipodi:cy="335.92459"
           sodipodi:cx="516.91254"
           id="path5507"
           style="fill:#373737;fill-opacity:1;stroke:#000000;stroke-opacity:1"
           sodipodi:type="arc"
           transform="matrix(-1.4870919,0,0,1.2097769,1373.9725,-80.509227)" />
        <path
           sodipodi:type="arc"
           style="fill:#a5a5a5;fill-opacity:1;stroke:#000000;stroke-opacity:1"
           id="path5509"
           sodipodi:cx="516.91254"
           sodipodi:cy="335.92459"
           sodipodi:rx="4.0642238"
           sodipodi:ry="10.963952"
           d="m 520.97676,335.92459 c 0,6.05522 -1.81961,10.96395 -4.06422,10.96395 -2.24461,0 -4.06423,-4.90873 -4.06423,-10.96395 0,-6.05522 1.81962,-10.96395 4.06423,-10.96395 2.24461,0 4.06422,4.90873 4.06422,10.96395 z"
           transform="matrix(-0.8743488,0,0,0.71129898,1057.2248,86.740067)" />
      </g>
      <g
         transform="translate(60.952145,-241.66991)"
         id="g5577">
        <path
           sodipodi:nodetypes="ccscc"
           inkscape:connector-curvature="0"
           id="path5511"
           d="m 566.35067,346.5251 c -0.11046,-0.077 -0.20983,-6.06456 -0.13985,-6.5623 0,-0.65519 2.97903,-1.18632 6.65386,-1.18632 3.67482,0 6.55268,0.46624 6.65386,1.18632 0.16666,0.66942 0.15588,6.40418 0.0864,6.4531"
           style="fill:#6f6f6f;fill-opacity:1;stroke:#373737;stroke-width:1.21135724;stroke-miterlimit:4;stroke-opacity:1;stroke-dasharray:none" />
        <path
           transform="matrix(0,-0.29189508,0.60688526,0,369.09817,497.32164)"
           sodipodi:type="arc"
           style="fill:#191919;fill-opacity:1;stroke:#343434;stroke-width:2.87809777;stroke-miterlimit:4;stroke-opacity:1;stroke-dasharray:none"
           id="path5513"
           sodipodi:cx="516.91254"
           sodipodi:cy="335.92459"
           sodipodi:rx="4.0642238"
           sodipodi:ry="10.963952"
           d="m 520.97676,335.92459 c 0,6.05522 -1.81961,10.96395 -4.06422,10.96395 -2.24461,0 -4.06423,-4.90873 -4.06423,-10.96395 0,-6.05522 1.81962,-10.96395 4.06423,-10.96395 2.24461,0 4.06422,4.90873 4.06422,10.96395 z" />
      </g>
    </g>
  </g>
</svg>
