<?xml version="1.0" encoding="UTF-8" standalone="no"?>
<!-- Created with Inkscape (http://www.inkscape.org/) -->

<svg
   xmlns:dc="http://purl.org/dc/elements/1.1/"
   xmlns:cc="http://creativecommons.org/ns#"
   xmlns:rdf="http://www.w3.org/1999/02/22-rdf-syntax-ns#"
   xmlns:svg="http://www.w3.org/2000/svg"
   xmlns="http://www.w3.org/2000/svg"
   xmlns:xlink="http://www.w3.org/1999/xlink"
   xmlns:sodipodi="http://sodipodi.sourceforge.net/DTD/sodipodi-0.dtd"
   xmlns:inkscape="http://www.inkscape.org/namespaces/inkscape"
   width="350"
   height="90"
   id="svg3987"
   version="1.1"
   inkscape:version="0.48.2 r9819"
   sodipodi:docname="button_play_hover.svg">
  <defs
     id="defs3989">
    <linearGradient
       id="linearGradient3800">
      <stop
         style="stop-color:#55d0ff;stop-opacity:1"
         offset="0"
         id="stop3802" />
      <stop
         id="stop3810"
         offset="0.25023299"
         style="stop-color:#3697f0;stop-opacity:1;" />
      <stop
         style="stop-color:#1f77e8;stop-opacity:1;"
         offset="0.7507028"
         id="stop3814" />
      <stop
         style="stop-color:#044bc5;stop-opacity:1;"
         offset="1"
         id="stop3808" />
    </linearGradient>
    <linearGradient
       id="linearGradient3792">
      <stop
         style="stop-color:#f2b647;stop-opacity:1;"
         offset="0"
         id="stop3794" />
      <stop
         style="stop-color:#f2b647;stop-opacity:0;"
         offset="1"
         id="stop3796" />
    </linearGradient>
    <linearGradient
       inkscape:collect="always"
       xlink:href="#linearGradient3831"
       id="linearGradient5516"
       gradientUnits="userSpaceOnUse"
       gradientTransform="matrix(3.1519677,0,0,3.1519677,-773.54974,619.57584)"
       x1="349.5"
       y1="45.933613"
       x2="349.60715"
       y2="71.290756" />
    <linearGradient
       id="linearGradient3831">
      <stop
         style="stop-color:#ffd40b;stop-opacity:1;"
         offset="0"
         id="stop3833" />
      <stop
         style="stop-color:#d57a05;stop-opacity:1;"
         offset="1"
         id="stop3835" />
    </linearGradient>
    <linearGradient
       inkscape:collect="always"
       xlink:href="#linearGradient3831"
       id="linearGradient4021"
       gradientUnits="userSpaceOnUse"
       gradientTransform="matrix(3.1519677,0,0,3.1519677,-703.53715,711.03865)"
       x1="349.5"
       y1="45.933613"
       x2="349.60715"
       y2="71.290756" />
    <linearGradient
       inkscape:collect="always"
       xlink:href="#linearGradient5329"
       id="linearGradient4813"
       gradientUnits="userSpaceOnUse"
       gradientTransform="matrix(3.1519677,0,0,3.1519677,-943.96745,822.58108)"
       x1="349.5"
       y1="45.933613"
       x2="349.60715"
       y2="71.290756" />
    <linearGradient
       id="linearGradient5329">
      <stop
         id="stop5331"
         offset="0"
         style="stop-color:#55d0ff;stop-opacity:1" />
      <stop
         id="stop5333"
         offset="1"
         style="stop-color:#0555df;stop-opacity:1" />
    </linearGradient>
    <linearGradient
       y2="71.290756"
       x2="349.60715"
       y1="45.933613"
       x1="349.5"
       gradientTransform="matrix(3.1519677,0,0,3.1519677,-946.67832,723.78188)"
       gradientUnits="userSpaceOnUse"
       id="linearGradient3010"
       xlink:href="#linearGradient5329"
       inkscape:collect="always" />
    <linearGradient
       inkscape:collect="always"
       xlink:href="#linearGradient3800"
       id="linearGradient3780"
       gradientUnits="userSpaceOnUse"
       gradientTransform="matrix(3.1519677,0,0,3.1519677,-943.96745,822.58107)"
       x1="355.00601"
       y1="71.314537"
       x2="355.00601"
       y2="45.933563" />
    <linearGradient
       inkscape:collect="always"
       xlink:href="#linearGradient5648"
       id="linearGradient3036"
       gradientUnits="userSpaceOnUse"
       gradientTransform="matrix(3.1519677,0,0,3.1519677,-943.96745,822.58107)"
       x1="349.5"
       y1="45.933613"
       x2="349.60715"
       y2="71.290756" />
    <linearGradient
       id="linearGradient5648">
      <stop
         id="stop5650"
         offset="0"
         style="stop-color:#ffed9b;stop-opacity:1;" />
      <stop
         style="stop-color:#f8c240;stop-opacity:1;"
         offset="0.30965549"
         id="stop5652" />
      <stop
         id="stop5658"
         offset="0.73630762"
         style="stop-color:#e69e22;stop-opacity:1;" />
      <stop
         id="stop5654"
         offset="1"
         style="stop-color:#d57a05;stop-opacity:1;" />
    </linearGradient>
    <linearGradient
       inkscape:collect="always"
       xlink:href="#linearGradient5329"
       id="linearGradient3798"
       x1="-185"
       y1="10"
       x2="-70"
       y2="10"
       gradientUnits="userSpaceOnUse" />
  </defs>
  <sodipodi:namedview
     id="base"
     pagecolor="#ffffff"
     bordercolor="#666666"
     borderopacity="1.0"
     inkscape:pageopacity="0.0"
     inkscape:pageshadow="2"
     inkscape:zoom="1"
     inkscape:cx="123.35439"
     inkscape:cy="11.894692"
     inkscape:document-units="px"
     inkscape:current-layer="layer1"
     showgrid="false"
     inkscape:window-width="1920"
     inkscape:window-height="1028"
     inkscape:window-x="0"
     inkscape:window-y="0"
     inkscape:window-maximized="1">
    <inkscape:grid
       type="xygrid"
       id="grid5603" />
  </sodipodi:namedview>
  <metadata
     id="metadata3992">
    <rdf:RDF>
      <cc:Work
         rdf:about="">
        <dc:format>image/svg+xml</dc:format>
        <dc:type
           rdf:resource="http://purl.org/dc/dcmitype/StillImage" />
        <dc:title></dc:title>
      </cc:Work>
    </rdf:RDF>
  </metadata>
  <g
     inkscape:label="Layer 1"
     inkscape:groupmode="layer"
     id="layer1"
     transform="translate(0,-962.36218)">
    <rect
       style="fill:url(#linearGradient3780);fill-opacity:1;stroke:#342700;stroke-width:5;stroke-linecap:square;stroke-linejoin:round;stroke-miterlimit:4;stroke-opacity:1;stroke-dasharray:none;stroke-dashoffset:0"
       id="rect4691"
       width="337.71082"
       height="78.799179"
       x="4.9999976"
       y="967.36218"
       ry="10.672211" />
    <g
       transform="matrix(1.2193035,0,0,0.91877118,-172.78923,206.16752)"
       style="font-size:43.53641129px;font-style:normal;font-variant:normal;font-weight:600;font-stretch:normal;text-align:start;line-height:125%;letter-spacing:0px;word-spacing:0px;writing-mode:lr-tb;text-anchor:start;fill:#2b240a;fill-opacity:1;stroke:none;font-family:LMSansDemiCond10;-inkscape-font-specification:LMSansDemiCond10 Semi-Bold"
       id="g4811">
      <path
         sodipodi:type="inkscape:offset"
         inkscape:radius="0.98961258"
         inkscape:original="M 251.28125 852.40625 C 249.75748 852.40625 249.34375 852.80769 249.34375 854.375 L 249.34375 880.65625 C 249.34375 882.18002 249.71394 882.625 251.28125 882.625 L 252.71875 882.625 C 254.24252 882.625 254.65625 882.19898 254.65625 880.71875 L 254.65625 870.53125 L 260.65625 870.53125 C 264.83574 870.53125 269.9375 868.57185 269.9375 861.5625 C 269.9375 856.07691 266.73692 852.40625 260.25 852.40625 L 251.28125 852.40625 z M 276.59375 852.40625 C 275.06998 852.40625 274.65625 852.80769 274.65625 854.375 L 274.65625 880.65625 C 274.65625 882.18002 275.02644 882.625 276.59375 882.625 L 277.4375 882.625 C 278.96128 882.625 279.34375 882.19898 279.34375 880.71875 L 279.34375 854.34375 C 279.34375 852.99412 279.09189 852.40625 277.4375 852.40625 L 276.59375 852.40625 z M 254.5 855.6875 L 258.96875 855.6875 C 264.45433 855.6875 264.96875 858.67682 264.96875 861.59375 C 264.96875 864.38008 264.5414 867.53125 258.96875 867.53125 L 254.5 867.53125 L 254.5 855.6875 z M 291.96875 861.4375 C 289.53071 861.4375 287.78499 861.91052 286 862.78125 C 285.17281 863.21661 284.96875 863.30235 284.96875 863.78125 C 284.96875 864.08601 285.05024 864.99546 285.09375 865.34375 C 285.18085 866.34509 285.22089 866.59375 285.65625 866.59375 C 285.87393 866.59375 285.90839 866.54811 286.34375 866.15625 C 288.12874 864.41479 290.12686 864 291.78125 864 C 292.73905 864 294.71875 863.98344 294.71875 868.25 L 294.71875 869.125 C 294.71875 869.86512 294.65415 869.92522 294.21875 869.96875 C 292.34669 870.05585 283.34375 870.43162 283.34375 876.875 C 283.34375 880.00962 285.63541 883.0625 289.03125 883.0625 C 292.16587 883.0625 294.14717 880.88755 294.84375 879.625 L 294.84375 880.71875 C 294.84375 882.06837 295.09561 882.625 296.75 882.625 L 297.625 882.625 C 299.14878 882.625 299.53125 882.19898 299.53125 880.71875 L 299.53125 868.21875 C 299.53125 864.16986 297.23665 861.4375 291.96875 861.4375 z M 304.15625 862.09375 C 303.5032 862.09375 302.5625 862.08012 302.5625 863.125 C 302.5625 863.125 302.53232 863.34028 302.75 863.90625 L 309.6875 882.03125 C 309.86165 882.55369 309.875 882.6875 309.875 882.6875 C 309.875 883.12286 309.11726 885.2711 308.8125 885.75 C 308.46421 886.35951 307.65545 887.25 306.21875 887.25 C 305.91399 887.25 304.90652 887.19101 303.6875 886.625 C 303.46982 886.5379 303.375 886.5 303.375 886.5 C 303.07025 886.5 302.84375 886.68964 302.84375 887.125 C 302.84375 887.47329 303.03232 889.7321 303.25 889.90625 C 303.59829 890.16747 305.28553 890.34375 306.15625 890.34375 C 309.55209 890.34375 311.89824 887.84776 312.8125 884.84375 L 319.0625 864 C 319.28018 863.34696 319.25 863.15625 319.25 863.15625 C 319.25 862.06784 318.30823 862.09375 317.4375 862.09375 C 316.17495 862.09375 315.3539 862.07104 314.875 863.8125 L 313.25 869.4375 C 311.90037 874.09589 311.55583 876.45513 311.46875 877.5 C 311.42525 876.5422 311.37017 874.56678 307.84375 865.25 C 306.84242 862.55075 306.69018 862.09375 304.6875 862.09375 L 304.15625 862.09375 z M 294.71875 871.46875 L 294.71875 875.875 C 294.71875 879.8368 291.58387 880.28125 290.84375 880.28125 C 289.1023 880.28125 287.90625 878.60978 287.90625 876.78125 C 287.90625 872.34054 292.62901 871.59936 294.71875 871.46875 z "
         id="path4815"
         d="m 251.28125,851.40625 c -0.84879,0 -1.65193,0.0846 -2.25,0.6875 -0.59807,0.60289 -0.6875,1.41052 -0.6875,2.28125 l 0,26.28125 c 0,0.84202 0.0694,1.63614 0.65625,2.25 0.58689,0.61386 1.40394,0.71875 2.28125,0.71875 l 1.4375,0 c 0.85411,0 1.65569,-0.098 2.25,-0.6875 0.59431,-0.58952 0.6875,-1.38643 0.6875,-2.21875 l 0,-9.1875 5,0 c 2.24439,0 4.77879,-0.51729 6.8125,-2.0625 2.03371,-1.54521 3.46875,-4.16148 3.46875,-7.90625 0,-2.93526 -0.89007,-5.52375 -2.71875,-7.34375 -1.82868,-1.82 -4.53863,-2.8125 -7.96875,-2.8125 l -8.96875,0 z m 25.3125,0 c -0.84879,0 -1.65193,0.0846 -2.25,0.6875 -0.59807,0.60289 -0.6875,1.41052 -0.6875,2.28125 l 0,26.28125 c 0,0.84202 0.0694,1.63614 0.65625,2.25 0.58689,0.61386 1.40394,0.71875 2.28125,0.71875 l 0.84375,0 c 0.85412,0 1.63225,-0.12109 2.21875,-0.71875 0.5865,-0.59766 0.6875,-1.36215 0.6875,-2.1875 l 0,-26.375 c 0,-0.73637 -0.0486,-1.48705 -0.59375,-2.125 -0.54517,-0.63795 -1.36809,-0.8125 -2.3125,-0.8125 l -0.84375,0 z M 255.5,856.6875 l 3.46875,0 c 2.56303,0 3.65309,0.62241 4.25,1.4375 0.59691,0.81509 0.75,2.06846 0.75,3.46875 0,1.34257 -0.12608,2.59943 -0.71875,3.4375 -0.59267,0.83807 -1.68146,1.5 -4.28125,1.5 l -3.46875,0 0,-9.84375 z m 36.46875,3.75 c -2.56604,0 -4.51968,0.54847 -6.40625,1.46875 a 0.98971154,0.98971154 0 0 0 -0.0312,0 c -0.40761,0.21453 -0.67119,0.336 -1,0.625 -0.32881,0.289 -0.5625,0.86999 -0.5625,1.25 0,0.47233 0.10518,1.24222 0.15625,1.65625 l -0.0312,0 c 0.0441,0.50667 0.0373,0.82991 0.21875,1.28125 0.0907,0.22567 0.31146,0.52172 0.59375,0.6875 0.28229,0.16578 0.54696,0.1875 0.75,0.1875 0.178,0 0.59312,-0.10319 0.8125,-0.25 0.21938,-0.14681 0.31812,-0.24566 0.53125,-0.4375 a 0.98971154,0.98971154 0 0 0 0.0312,-0.0312 c 1.57698,-1.53853 3.26102,-1.875 4.75,-1.875 0.4846,0 0.87015,0.008 1.1875,0.28125 0.31735,0.27322 0.75,0.98853 0.75,2.96875 l 0,0.75 c -1.14328,0.0556 -3.53509,0.20221 -5.96875,1.09375 -1.33912,0.49057 -2.66622,1.21004 -3.6875,2.3125 -1.02128,1.10246 -1.71875,2.62745 -1.71875,4.46875 0,3.61694 2.69855,7.1875 6.6875,7.1875 2.27969,0 3.82006,-0.99107 5,-2.09375 0.0832,0.29657 0.17351,0.60939 0.40625,0.875 0.55307,0.63118 1.37432,0.78125 2.3125,0.78125 l 0.875,0 c 0.85412,0 1.63225,-0.12109 2.21875,-0.71875 0.5865,-0.59766 0.6875,-1.36215 0.6875,-2.1875 l 0,-12.5 c 0,-2.21139 -0.66514,-4.21601 -2.125,-5.625 -1.45986,-1.40899 -3.63245,-2.15625 -6.4375,-2.15625 z m 12.1875,0.65625 c -0.31964,0 -0.81753,-0.0176 -1.40625,0.21875 -0.55683,0.22358 -1.098,0.91887 -1.15625,1.6875 0,0 1.4e-4,0.029 0,0.0312 -0.002,0.0339 -0.0312,0.0596 -0.0312,0.0937 l 0.0312,0 c -0.003,0.0864 -0.0239,0.19236 0,0.34375 0.0326,0.20645 0.0893,0.44472 0.21875,0.78125 l 6.9375,18.09375 c 0.005,0.0152 -0.005,0.0168 0,0.0312 0.0621,0.18858 0.10618,0.30456 0.125,0.375 0.001,0.005 -0.001,0.0265 0,0.0312 -0.009,0.0273 -0.0143,0.0471 -0.0625,0.21875 -0.0677,0.24126 -0.17287,0.56475 -0.28125,0.875 -0.21675,0.6205 -0.57051,1.35634 -0.5625,1.34375 a 0.98971154,0.98971154 0 0 0 0,0.0312 c -0.22688,0.39703 -0.72222,1 -1.75,1 -0.17706,0 -1.07106,-0.0419 -2.125,-0.53125 a 0.98971154,0.98971154 0 0 0 -0.0312,0 c -0.21778,-0.0871 -0.3125,-0.125 -0.3125,-0.125 A 0.98971154,0.98971154 0 0 0 303.375,885.5 c -0.35765,0 -0.78916,0.14129 -1.09375,0.46875 -0.30459,0.32746 -0.4375,0.76695 -0.4375,1.15625 0,0.35274 0.047,0.90195 0.125,1.5625 0.039,0.33028 0.0988,0.68106 0.15625,0.96875 0.0287,0.14385 0.0469,0.26347 0.0937,0.40625 0.0469,0.14278 -0.001,0.29904 0.40625,0.625 a 0.98971154,0.98971154 0 0 0 0.0312,0 c 0.35115,0.26336 0.57138,0.27804 0.84375,0.34375 0.27237,0.0657 0.56476,0.14605 0.875,0.1875 0.62048,0.0829 1.27911,0.125 1.78125,0.125 3.88076,0 6.58664,-2.90967 7.59375,-6.21875 l 6.25,-20.8125 0,-0.0312 c 0.11405,-0.34722 0.18906,-0.61727 0.21875,-0.8125 0.0154,-0.10113 0.0297,-0.17193 0.0312,-0.25 4.5e-4,-0.0219 0.001,-0.0357 0,-0.0625 -0.002,-0.0287 -0.0292,-0.0384 -0.0312,-0.0625 -8e-4,-0.0302 0.002,-0.0635 0,-0.0937 -0.0223,-0.36152 -0.10909,-0.73056 -0.3125,-1.03125 -0.23338,-0.345 -0.56382,-0.57038 -0.875,-0.6875 -0.62236,-0.23423 -1.1682,-0.1875 -1.59375,-0.1875 -0.62534,0 -1.31098,-0.0485 -2.03125,0.3125 -0.70993,0.35586 -1.18839,1.13538 -1.46875,2.125 -0.003,0.01 0.003,0.0213 0,0.0312 l -1.625,5.59375 c -0.62418,2.15444 -0.5695,2.48947 -0.84375,3.78125 -0.5193,-1.83532 -1.16536,-4.00975 -2.6875,-8.03125 -0.50002,-1.34788 -0.75975,-2.2002 -1.40625,-2.90625 -0.32325,-0.35302 -0.76174,-0.62528 -1.21875,-0.75 -0.45701,-0.12472 -0.93044,-0.15625 -1.46875,-0.15625 l -0.53125,0 z m -10.4375,11.5 0,3.28125 c 0,1.71988 -0.57665,2.43068 -1.21875,2.875 -0.6421,0.44432 -1.48428,0.53125 -1.65625,0.53125 -0.55411,0 -0.98273,-0.23582 -1.34375,-0.6875 -0.36102,-0.45168 -0.59375,-1.11401 -0.59375,-1.8125 0,-1.86953 0.86653,-2.76221 2.09375,-3.40625 0.86765,-0.45534 1.83411,-0.65514 2.71875,-0.78125 z"
         style="fill:#2b240a;fill-opacity:1" />
    </g>
  </g>
</svg>
