<?xml version="1.0" encoding="UTF-8" standalone="no"?>
<!-- Created with Inkscape (http://www.inkscape.org/) -->

<svg
   xmlns:dc="http://purl.org/dc/elements/1.1/"
   xmlns:cc="http://creativecommons.org/ns#"
   xmlns:rdf="http://www.w3.org/1999/02/22-rdf-syntax-ns#"
   xmlns:svg="http://www.w3.org/2000/svg"
   xmlns="http://www.w3.org/2000/svg"
   xmlns:sodipodi="http://sodipodi.sourceforge.net/DTD/sodipodi-0.dtd"
   xmlns:inkscape="http://www.inkscape.org/namespaces/inkscape"
   width="802.28998"
   height="38.290001"
   id="svg7175"
   version="1.1"
   inkscape:version="0.48.2 r9819"
   sodipodi:docname="New document 11">
  <defs
     id="defs7177" />
  <sodipodi:namedview
     id="base"
     pagecolor="#ffffff"
     bordercolor="#666666"
     borderopacity="1.0"
     inkscape:pageopacity="0.0"
     inkscape:pageshadow="2"
     inkscape:zoom="1.4"
     inkscape:cx="416.84315"
     inkscape:cy="-58.981195"
     inkscape:document-units="px"
     inkscape:current-layer="layer1"
     showgrid="false"
     inkscape:window-width="1920"
     inkscape:window-height="1028"
     inkscape:window-x="0"
     inkscape:window-y="0"
     inkscape:window-maximized="1">
    <inkscape:grid
       type="xygrid"
       id="grid7322"
       empspacing="5"
       visible="true"
       enabled="true"
       snapvisiblegridlinesonly="true" />
  </sodipodi:namedview>
  <metadata
     id="metadata7180">
    <rdf:RDF>
      <cc:Work
         rdf:about="">
        <dc:format>image/svg+xml</dc:format>
        <dc:type
           rdf:resource="http://purl.org/dc/dcmitype/StillImage" />
        <dc:title></dc:title>
      </cc:Work>
    </rdf:RDF>
  </metadata>
  <g
     inkscape:label="Layer 1"
     inkscape:groupmode="layer"
     id="layer1"
     transform="translate(0,-1014.0722)">
    <path
       inkscape:connector-curvature="0"
       id="path6841"
       d="m 363.85489,1023.8514 c -2.82643,0 -5.41396,0.9517 -6.91863,2.736 -1.09367,1.3306 -1.95196,3.1625 -1.95196,6.2466 0,2.03 0.32226,4.5939 2.43505,6.5943 1.39783,1.3208 3.70246,2.1825 6.43547,2.1825 2.08255,0 4.72225,-0.5046 6.53213,-2.2615 2.03303,-1.9614 2.35774,-4.5507 2.35774,-6.5153 0,-0.9955 -0.0157,-3.7023 -1.68132,-5.883 -2.07694,-2.7094 -5.4518,-3.0996 -7.20848,-3.0996 z"
       style="font-size:44.94163513px;font-style:normal;font-variant:normal;font-weight:600;font-stretch:normal;text-align:start;line-height:125%;letter-spacing:0px;word-spacing:0px;writing-mode:lr-tb;text-anchor:start;fill:#2b240a;fill-opacity:1;stroke:none;font-family:LMSansDemiCond10;-inkscape-font-specification:LMSansDemiCond10 Semi-Bold" />
    <path
       inkscape:connector-curvature="0"
       id="path6843"
       d="m 414.11256,1023.8514 c -2.82641,0 -5.43156,0.9498 -6.93797,2.736 -1.09583,1.3326 -1.93264,3.1644 -1.93264,6.2466 0,2.027 0.30161,4.5925 2.41571,6.5943 1.40001,1.3247 3.7218,2.1825 6.45483,2.1825 0.5908,0 0.97875,-0.038 1.48812,-0.1188 l 0.79245,1.0922 a 0.68233257,0.55834571 0 0 0 0,0.019 c 0.31896,0.4079 0.4877,0.6702 0.86973,0.8847 0.38205,0.2164 0.78044,0.2049 1.21746,0.2049 l 1.66201,0 c 0.19318,0 0.48375,0.019 0.85041,-0.099 0.36666,-0.1187 0.73431,-0.5285 0.73431,-0.9326 0,-0.038 -0.0188,-0.2518 -0.0966,-0.3963 -0.077,-0.1379 -0.1853,-0.294 -0.38656,-0.5544 a 0.68233257,0.55834571 0 0 0 -0.0193,-0.019 l -1.44948,-1.7386 c 0.8989,-0.6109 1.74379,-1.4509 2.33841,-2.6885 0.83878,-1.7407 0.86973,-3.6276 0.86973,-4.4437 0,-0.9954 -0.0157,-3.7022 -1.68131,-5.8829 -2.07597,-2.7079 -5.43261,-3.0996 -7.18928,-3.0996 z"
       style="font-size:44.94163513px;font-style:normal;font-variant:normal;font-weight:600;font-stretch:normal;text-align:start;line-height:125%;letter-spacing:0px;word-spacing:0px;writing-mode:lr-tb;text-anchor:start;fill:#2b240a;fill-opacity:1;stroke:none;font-family:LMSansDemiCond10;-inkscape-font-specification:LMSansDemiCond10 Semi-Bold" />
    <path
       inkscape:connector-curvature="0"
       id="path6845"
       d="m 464.06667,1023.8514 c -2.29182,0 -3.98493,0.5831 -5.06336,1.5494 -1.07849,0.966 -1.50743,2.2582 -1.50743,3.5742 0,2.025 1.38542,3.236 1.62336,3.4316 l 0.0193,0 c 1.34737,1.1453 2.42193,1.4233 3.96176,1.7386 0.007,10e-4 0.0122,-10e-4 0.0193,0 0.30044,0.077 0.68385,0.1579 1.02429,0.2365 0.33769,0.077 0.66887,0.1581 0.69567,0.1581 6.3e-4,2e-4 0.019,-2e-4 0.0193,0 0.57403,0.1972 1.43016,0.8263 1.43016,1.8984 0,0.4749 -0.13596,0.9817 -0.44453,1.3286 -0.30851,0.3466 -0.77649,0.6166 -1.85519,0.6166 -0.78023,0 -2.69746,-0.158 -4.5029,-1.3917 -0.009,-0.01 -0.0122,-0.01 -0.0193,-0.019 -0.15772,-0.1187 -0.26909,-0.2011 -0.42521,-0.2681 -0.16364,-0.077 -0.44215,-0.077 -0.46385,-0.077 -0.3501,0 -0.69231,0.1973 -0.8311,0.3629 -0.13213,0.1581 -0.15371,0.2958 -0.17338,0.3782 -6.5e-4,0 6.1e-4,0.01 0,0.019 -0.0512,0.1771 -0.13596,0.5266 -0.21251,0.8846 -0.0395,0.1772 -0.0888,0.3668 -0.11629,0.5228 -0.0275,0.1581 -0.0395,0.2499 -0.0395,0.3964 0,0.057 -0.0139,0.1379 0.0395,0.2843 0.0533,0.1379 0.16556,0.2844 0.27065,0.3629 0.21192,0.1579 0.42205,0.2327 0.81159,0.428 1.9705,0.9857 3.92922,1.3444 5.68179,1.3444 2.17244,0 3.86475,-0.583 4.96671,-1.581 1.10194,-0.9975 1.58472,-2.3559 1.58472,-3.8428 0,-0.7764 -0.14397,-2.2665 -1.66199,-3.7322 -1.26144,-1.2084 -2.70542,-1.516 -4.17439,-1.8353 -0.84529,-0.1771 -1.34106,-0.2997 -1.64267,-0.3964 -0.27874,-0.099 -0.39386,-0.1378 -0.56045,-0.268 -0.0122,-0.011 -0.0275,-0.019 -0.0393,-0.038 -0.32232,-0.2863 -0.715,-0.5755 -0.715,-1.2972 0,-0.6855 0.24602,-1.0487 0.6184,-1.2971 0.37237,-0.248 0.96022,-0.3964 1.71994,-0.3964 1.75149,0 2.60578,0.5161 3.38201,1.1078 0.005,0.01 0.0139,0.01 0.0193,0.019 0.063,0.057 0.10045,0.099 0.23183,0.1772 0.14397,0.077 0.41594,0.1379 0.56043,0.1379 0.36765,0 0.72721,-0.2164 0.85041,-0.3964 0.11629,-0.1772 0.12221,-0.3055 0.13596,-0.3648 6.3e-4,0 0.0186,-0.01 0.0193,-0.019 l -0.0193,0 c 0.0473,-0.1771 0.14989,-0.5142 0.232,-0.8694 0.0414,-0.1771 0.0867,-0.3523 0.11629,-0.5064 0.0296,-0.1581 0.0395,-0.2586 0.0395,-0.4118 0,-0.1187 -0.10654,-0.4653 -0.3093,-0.6175 -0.19713,-0.1379 -0.39171,-0.225 -0.69566,-0.3629 -0.007,0 -0.0122,-0.01 -0.0193,-0.019 -0.99177,-0.4749 -2.36453,-0.9639 -4.58017,-0.9639 z"
       style="font-size:44.94163513px;font-style:normal;font-variant:normal;font-weight:600;font-stretch:normal;text-align:start;line-height:125%;letter-spacing:0px;word-spacing:0px;writing-mode:lr-tb;text-anchor:start;fill:#2b240a;fill-opacity:1;stroke:none;font-family:LMSansDemiCond10;-inkscape-font-specification:LMSansDemiCond10 Semi-Bold" />
    <path
       inkscape:connector-curvature="0"
       id="path6847"
       d="m 64.672233,1024.057 c -2.585068,0 -5.204452,0.6817 -6.976607,2.3247 l 0,0.019 c -1.901303,1.7604 -2.454387,4.0948 -2.454387,6.3256 0,2.231 0.553112,4.5654 2.454387,6.3258 l 0,0.019 c 1.770613,1.642 4.387947,2.3404 6.976607,2.3404 0.945663,0 1.938568,-0.057 2.918192,-0.2997 0.0056,0 0.0134,0 0.01915,0 0.977758,-0.2345 1.821071,-0.6797 2.589666,-1.1236 0.213508,-0.1187 0.425199,-0.428 0.425199,-0.6798 a 0.68233257,0.55834571 0 0 0 0,-0.038 l -0.173493,-1.4548 a 0.68233257,0.55834571 0 0 0 0,-0.057 c -0.03351,-0.1379 -0.102536,-0.2719 -0.251327,-0.4117 -0.147833,-0.1379 -0.425774,-0.2681 -0.715016,-0.2681 a 0.68233257,0.55834571 0 0 0 -0.153769,0.019 c 0,0 -0.03926,0 -0.0966,0.019 -0.05745,0.01 -0.110388,0 -0.251329,0.057 a 0.68233257,0.55834571 0 0 0 -0.0966,0.058 c -0.635359,0.3906 -1.272275,0.7094 -1.932651,0.8847 -0.0049,0 -0.01445,0 -0.01915,0 -0.702762,0.1771 -1.466244,0.2364 -2.261109,0.2364 -1.357422,0 -2.60172,-0.4806 -3.382014,-1.3444 -1.035519,-1.1709 -1.314259,-2.7046 -1.314259,-4.2698 0,-1.5889 0.262818,-3.1078 1.294737,-4.2538 0.781654,-0.8713 2.04421,-1.3602 3.401344,-1.3602 0.697782,0 1.338109,0.077 1.951971,0.2365 0.591985,0.1579 1.165023,0.4356 1.719945,0.7592 l 0.01915,-0.038 c 0.12226,0.077 0.315954,0.2049 0.579729,0.2049 0.541911,0 0.90459,-0.2978 0.985646,-0.6961 l 0.386615,-1.7859 a 0.68233257,0.55834571 0 0 0 0,-0.099 c 0,-0.315 -0.226722,-0.6702 -0.560486,-0.8061 a 0.68233257,0.55834571 0 0 0 -0.05745,-0.019 c -0.768442,-0.2566 -1.585118,-0.5008 -2.454379,-0.6482 -0.868972,-0.1579 -1.711471,-0.1771 -2.570342,-0.1771 z"
       style="font-size:44.94163513px;font-style:normal;font-variant:normal;font-weight:600;font-stretch:normal;text-align:start;line-height:125%;letter-spacing:0px;word-spacing:0px;writing-mode:lr-tb;text-anchor:start;fill:#2b240a;fill-opacity:1;stroke:none;font-family:LMSansDemiCond10;-inkscape-font-specification:LMSansDemiCond10 Semi-Bold" />
    <path
       inkscape:connector-curvature="0"
       id="path6849"
       d="m 164.3798,1024.057 c -2.58507,0 -5.20445,0.6817 -6.97661,2.3247 l 0,0.019 c -1.9013,1.7604 -2.45437,4.0948 -2.45437,6.3256 0,2.231 0.55312,4.5654 2.45437,6.3258 l 0,0.019 c 1.77061,1.642 4.38798,2.3404 6.97661,2.3404 1.99561,0 3.96212,-0.3944 5.7011,-1.1866 0.009,0 0.0106,-0.01 0.0192,-0.019 0.36058,-0.1581 0.52181,-0.4338 0.52181,-0.7277 l 0,-6.3098 c 0,-0.4558 -0.43037,-0.8062 -0.98565,-0.8062 l -4.9474,0 c -0.55531,0 -0.98564,0.3524 -0.98564,0.8062 l 0,1.3286 c 0,0.4558 0.43037,0.8062 0.98564,0.8062 l 1.48813,0 0,2.8465 c -0.59591,0.099 -1.19934,0.1972 -1.79723,0.1972 -1.35743,0 -2.6017,-0.4807 -3.38199,-1.3444 -1.03355,-1.167 -1.29475,-2.7011 -1.29475,-4.2698 0,-1.5928 0.24559,-3.1101 1.27543,-4.254 0.78165,-0.8732 2.04418,-1.3603 3.40133,-1.3603 0.75734,0 1.48577,0.099 2.14516,0.2997 0.006,0 0.0134,0 0.0191,0 0.67146,0.2193 1.24783,0.5582 1.81655,0.9797 a 0.68233257,0.55834571 0 0 0 0.15377,0.099 c -0.0747,-0.038 0.14983,0.1188 0.50246,0.1188 0.44981,0 0.91531,-0.3351 0.98565,-0.6798 l 0.38652,-1.8037 a 0.68233257,0.55834571 0 0 0 0,-0.098 c 0,-0.1379 -0.0162,-0.2681 -0.0966,-0.4117 -0.0804,-0.1379 -0.21801,-0.2566 -0.3286,-0.3169 a 0.68233257,0.55834571 0 0 0 -0.0574,-0.038 c -0.82598,-0.3725 -1.66455,-0.7114 -2.62827,-0.9326 a 0.68233257,0.55834571 0 0 0 -0.0192,0 c -0.93456,-0.1972 -1.91925,-0.2681 -2.87954,-0.2681 z"
       style="font-size:44.94163513px;font-style:normal;font-variant:normal;font-weight:600;font-stretch:normal;text-align:start;line-height:125%;letter-spacing:0px;word-spacing:0px;writing-mode:lr-tb;text-anchor:start;fill:#2b240a;fill-opacity:1;stroke:none;font-family:LMSansDemiCond10;-inkscape-font-specification:LMSansDemiCond10 Semi-Bold" />
    <path
       inkscape:connector-curvature="0"
       id="path6851"
       d="m 11.07966,1024.2784 c -0.248168,0 -0.663889,-0.019 -1.1208739,0.1379 -0.45689,0.1581 -0.90775,0.5381 -1.120866,1.0744 l -5.3725696,14.0117 a 0.68233257,0.55834571 0 0 0 0,0.038 c 0.0013,0 -0.02777,0.077 -0.05745,0.1581 -0.0316,0.077 -0.0766,0.158 -0.0766,0.3494 0,0.4654 0.416295,0.8828 0.811623,1.0113 0.39523,0.1379 0.732536,0.1187 0.927663,0.1187 l 0.44454,0 c 0.702569,0 1.261034,-0.1379 1.6426686,-0.4117 0.381636,-0.2843 0.500742,-0.6166 0.59907,-0.8693 l 1.004959,-2.6092 5.7011059,0 0.792472,2.0559 c 0.22318,0.5811 0.351284,0.9955 0.753602,1.3601 0.402316,0.3648 1.022114,0.4749 1.700634,0.4749 l 0.947004,0 c 0.195125,0 0.532432,0.019 0.927663,-0.1177 0.39523,-0.1379 0.811812,-0.5476 0.811812,-1.0112 a 0.68233257,0.55834571 0 0 0 0,-0.038 c 0,0 -0.01619,-0.099 -0.03926,-0.1772 -0.02202,-0.057 -0.06128,-0.1579 -0.116324,-0.2843 l 0.01915,0 -5.353249,-14.0273 c -0.207572,-0.5381 -0.625495,-0.9163 -1.082233,-1.0901 -0.456795,-0.1772 -0.878834,-0.1581 -1.159517,-0.1581 l -1.584716,0 z"
       style="font-size:44.94163513px;font-style:normal;font-variant:normal;font-weight:600;font-stretch:normal;text-align:start;line-height:125%;letter-spacing:0px;word-spacing:0px;writing-mode:lr-tb;text-anchor:start;fill:#2b240a;fill-opacity:1;stroke:none;font-family:LMSansDemiCond10;-inkscape-font-specification:LMSansDemiCond10 Semi-Bold" />
    <path
       inkscape:connector-curvature="0"
       id="path6853"
       d="m 32.380374,1024.2784 c -0.546027,0 -1.066473,0.038 -1.468808,0.3629 -0.402316,0.3236 -0.46388,0.7554 -0.46388,1.2183 l 0,13.7424 c 0,0.4471 0.04309,0.877 0.444539,1.2025 0.400403,0.3255 0.927856,0.3629 1.48813,0.3629 l 6.261554,0 c 2.560433,0 4.372773,-0.5994 5.507837,-1.5494 1.135073,-0.9517 1.546083,-2.2018 1.546083,-3.3684 0,-0.9268 -0.288764,-1.9121 -1.101553,-2.7357 -0.495572,-0.5026 -1.248808,-0.8866 -2.125844,-1.2025 1.524599,-0.7172 2.512372,-1.9082 2.512372,-3.4318 0,-1.1572 -0.465796,-2.3404 -1.623359,-3.2103 -1.157536,-0.8693 -2.945632,-1.3917 -5.411222,-1.3917 l -5.56583,0 z"
       style="font-size:44.94163513px;font-style:normal;font-variant:normal;font-weight:600;font-stretch:normal;text-align:start;line-height:125%;letter-spacing:0px;word-spacing:0px;writing-mode:lr-tb;text-anchor:start;fill:#2b240a;fill-opacity:1;stroke:none;font-family:LMSansDemiCond10;-inkscape-font-specification:LMSansDemiCond10 Semi-Bold" />
    <path
       inkscape:connector-curvature="0"
       id="path6855"
       d="m 81.86911,1024.2784 c -0.546028,0 -1.071193,0.038 -1.468799,0.3629 -0.397433,0.3274 -0.444539,0.7592 -0.444539,1.2183 l 0,13.7424 c 0,0.4433 0.02968,0.8713 0.425199,1.2025 0.395614,0.3294 0.927855,0.3629 1.48812,0.3629 l 6.087615,0 c 2.076869,0 4.614076,-0.5027 6.319535,-2.1189 0.0037,0 -0.0037,-0.01 0,-0.019 1.871939,-1.7367 2.377075,-3.9971 2.377075,-6.1992 0,-2.4367 -0.575614,-4.3381 -1.894008,-5.8827 -1.569934,-1.8648 -4.231052,-2.6727 -6.822,-2.6727 l -6.068293,0 z"
       style="font-size:44.94163513px;font-style:normal;font-variant:normal;font-weight:600;font-stretch:normal;text-align:start;line-height:125%;letter-spacing:0px;word-spacing:0px;writing-mode:lr-tb;text-anchor:start;fill:#2b240a;fill-opacity:1;stroke:none;font-family:LMSansDemiCond10;-inkscape-font-specification:LMSansDemiCond10 Semi-Bold" />
    <path
       inkscape:connector-curvature="0"
       id="path6857"
       d="m 182.07394,1024.2784 c -0.54622,0 -1.06647,0.038 -1.46881,0.3629 -0.40231,0.3236 -0.46388,0.7554 -0.46388,1.2183 l 0,13.7424 c 0,0.4471 0.0431,0.877 0.44454,1.2025 0.4004,0.3255 0.92786,0.3629 1.48813,0.3629 l 0.92767,0 c 0.55014,0 1.07908,-0.038 1.46881,-0.3629 0.38977,-0.3255 0.4252,-0.7506 0.4252,-1.1867 l 0,-5.7247 6.18425,0 0,5.7247 c 0,0.3887 -3.5e-4,0.7803 0.36728,1.1236 0.36746,0.3428 0.92201,0.428 1.52676,0.428 l 0.947,0 c 0.55015,0 1.07909,-0.038 1.46881,-0.3629 0.38978,-0.3255 0.4252,-0.7506 0.4252,-1.1866 l 0,-13.7898 c 0,-0.3888 3.4e-4,-0.7804 -0.36727,-1.1237 -0.36747,-0.3428 -0.92202,-0.428 -1.52677,-0.428 l -0.947,0 c -0.55014,0 -1.07908,0.038 -1.46881,0.3629 -0.38968,0.3255 -0.4252,0.7506 -0.4252,1.1867 l 0,5.1238 -6.18425,0 0,-5.1238 c 0,-0.3887 3.5e-4,-0.7803 -0.36728,-1.1236 -0.36746,-0.3428 -0.92192,-0.428 -1.52676,-0.428 l -0.92767,0 z"
       style="font-size:44.94163513px;font-style:normal;font-variant:normal;font-weight:600;font-stretch:normal;text-align:start;line-height:125%;letter-spacing:0px;word-spacing:0px;writing-mode:lr-tb;text-anchor:start;fill:#2b240a;fill-opacity:1;stroke:none;font-family:LMSansDemiCond10;-inkscape-font-specification:LMSansDemiCond10 Semi-Bold" />
    <path
       inkscape:connector-curvature="0"
       id="path6859"
       d="m 213.19332,1024.2784 c -0.54603,0 -1.0712,0.038 -1.46881,0.3629 -0.39762,0.3274 -0.44454,0.7592 -0.44454,1.2183 l 0,13.7424 c 0,0.4433 0.0297,0.8713 0.4252,1.2025 0.39561,0.3294 0.92766,0.3629 1.48813,0.3629 l 0.92766,0 c 0.55025,0 1.07909,-0.038 1.46881,-0.3629 0.38968,-0.3255 0.4252,-0.7506 0.4252,-1.1867 l 0,-13.7898 c 0,-0.3887 3.5e-4,-0.7803 -0.36727,-1.1236 -0.36747,-0.3428 -0.92202,-0.428 -1.52677,-0.428 l -0.92766,0 z"
       style="font-size:44.94163513px;font-style:normal;font-variant:normal;font-weight:600;font-stretch:normal;text-align:start;line-height:125%;letter-spacing:0px;word-spacing:0px;writing-mode:lr-tb;text-anchor:start;fill:#2b240a;fill-opacity:1;stroke:none;font-family:LMSansDemiCond10;-inkscape-font-specification:LMSansDemiCond10 Semi-Bold" />
    <path
       inkscape:connector-curvature="0"
       id="path6861"
       d="m 239.40436,1024.2784 c -0.55015,0 -1.07908,0.038 -1.4688,0.3629 -0.38968,0.3255 -0.4252,0.7506 -0.4252,1.1867 l 0,11.3071 c 0,0.2068 -0.0124,0.6568 -0.19321,0.9955 -0.18134,0.3389 -0.38164,0.5697 -1.17883,0.5697 -0.38699,0 -1.42938,-0.099 -2.20313,-0.8541 -0.0766,-0.077 -0.13604,-0.158 -0.27066,-0.2528 -0.14984,-0.099 -0.43842,-0.1771 -0.61841,-0.1771 -0.23956,0 -0.58012,0.099 -0.7536,0.2844 -0.1735,0.1771 -0.19973,0.3054 -0.2318,0.4117 -0.0469,0.1579 -0.13213,0.4873 -0.21246,0.8377 -0.0412,0.1772 -0.067,0.3352 -0.0966,0.4749 -0.0145,0.077 -0.0297,0.1379 -0.0393,0.1973 -0.009,0.057 -0.0191,0.057 -0.0191,0.1771 0,0.2106 0.1597,0.5304 0.36727,0.6798 0.20738,0.1579 0.36488,0.1991 0.59907,0.2997 a 0.68233257,0.55834571 0 0 0 0.0393,0.019 c 1.20367,0.4806 2.56803,0.8224 4.21304,0.8224 1.51631,0 2.86175,-0.3926 3.80716,-1.1552 0.94548,-0.7631 1.44949,-1.8688 1.44949,-3.1786 l 0,-11.4493 c 0,-0.3868 3.4e-4,-0.7784 -0.36727,-1.1237 -0.36766,-0.3427 -0.92192,-0.4279 -1.52676,-0.4279 l -0.86974,0 z"
       style="font-size:44.94163513px;font-style:normal;font-variant:normal;font-weight:600;font-stretch:normal;text-align:start;line-height:125%;letter-spacing:0px;word-spacing:0px;writing-mode:lr-tb;text-anchor:start;fill:#2b240a;fill-opacity:1;stroke:none;font-family:LMSansDemiCond10;-inkscape-font-specification:LMSansDemiCond10 Semi-Bold" />
    <path
       inkscape:connector-curvature="0"
       id="path6863"
       d="m 257.27592,1024.2784 c -0.54622,0 -1.0712,0.038 -1.46881,0.3629 -0.39744,0.3274 -0.44454,0.7592 -0.44454,1.2183 l 0,13.7424 c 0,0.4433 0.0297,0.8713 0.4252,1.2025 0.39542,0.3294 0.92766,0.3629 1.48812,0.3629 l 0.61841,0 c 0.55024,0 1.07908,-0.038 1.46881,-0.3629 0.38968,-0.3255 0.4252,-0.7506 0.4252,-1.1867 l 0,-3.8429 1.93265,-1.7228 4.98605,6.3416 c 0.21543,0.2757 0.45067,0.5122 0.81162,0.6482 0.36097,0.1378 0.67396,0.1187 1.04361,0.1187 l 1.08223,0 c 0.29316,0 0.61545,0.057 1.02428,-0.1379 0.20443,-0.099 0.3915,-0.2757 0.48314,-0.4596 0.0909,-0.1771 0.11629,-0.3705 0.11629,-0.5696 a 0.68233257,0.55834571 0 0 0 -0.0966,-0.2997 l -6.49391,-8.271 5.95234,-5.3293 c 0.12621,-0.1188 0.2247,-0.1973 0.32858,-0.3332 0.10445,-0.1379 0.17356,-0.3505 0.17356,-0.5065 0,-0.203 -0.0747,-0.4184 -0.23179,-0.585 -0.15581,-0.1581 -0.36297,-0.2643 -0.54114,-0.315 -0.35646,-0.099 -0.64006,-0.077 -0.83107,-0.077 l -1.02428,0 c -0.27641,0 -0.59161,-0.01 -0.94701,0.077 -0.35541,0.098 -0.68782,0.2815 -1.00495,0.5697 l -6.76405,6.041 0,-5.1396 c 0,-0.3887 3.5e-4,-0.7784 -0.36728,-1.1236 -0.36746,-0.3427 -0.92201,-0.4279 -1.52676,-0.4279 l -0.61841,0 z"
       style="font-size:44.94163513px;font-style:normal;font-variant:normal;font-weight:600;font-stretch:normal;text-align:start;line-height:125%;letter-spacing:0px;word-spacing:0px;writing-mode:lr-tb;text-anchor:start;fill:#2b240a;fill-opacity:1;stroke:none;font-family:LMSansDemiCond10;-inkscape-font-specification:LMSansDemiCond10 Semi-Bold" />
    <path
       inkscape:connector-curvature="0"
       id="path6865"
       d="m 284.46731,1024.2784 c -0.54622,0 -1.07121,0.038 -1.4688,0.3629 -0.39744,0.3274 -0.44455,0.7592 -0.44455,1.2183 l 0,13.7424 c 0,0.4433 0.0296,0.8713 0.42521,1.2025 0.39541,0.3294 0.92766,0.3629 1.48813,0.3629 l 8.42605,0 c 0.63831,0 1.20583,-0.099 1.56539,-0.4433 0.35933,-0.3552 0.34794,-0.7526 0.34794,-1.1236 0,-0.2642 0.0355,-0.629 -0.25133,-1.0113 -0.28666,-0.3839 -0.89262,-0.6013 -1.60403,-0.6013 a 0.68233257,0.55834571 0 0 0 -0.0191,0 l -5.64313,0.077 0,-12.2401 c 0,-0.3858 3.5e-4,-0.7784 -0.36727,-1.1236 -0.36745,-0.3428 -0.92192,-0.428 -1.52676,-0.428 l -0.92766,0 z"
       style="font-size:44.94163513px;font-style:normal;font-variant:normal;font-weight:600;font-stretch:normal;text-align:start;line-height:125%;letter-spacing:0px;word-spacing:0px;writing-mode:lr-tb;text-anchor:start;fill:#2b240a;fill-opacity:1;stroke:none;font-family:LMSansDemiCond10;-inkscape-font-specification:LMSansDemiCond10 Semi-Bold" />
    <path
       inkscape:connector-curvature="0"
       id="path6867"
       d="m 306.13971,1024.2784 c -0.48667,0 -0.95467,0.038 -1.30914,0.3629 -0.35424,0.3274 -0.39629,0.7592 -0.39629,1.2183 l 0,13.7424 c 0,0.4433 0.0259,0.8713 0.37906,1.2025 0.35262,0.3294 0.82694,0.3629 1.32649,0.3629 l 0.37905,0 c 0.4904,0 0.96179,-0.038 1.30912,-0.3629 0.34737,-0.3255 0.37906,-0.7506 0.37906,-1.1867 l 0,-8.3023 0.74076,2.1506 a 0.60818363,0.55834571 0 0 0 0.0174,0 l 2.23935,6.0093 c 0.19753,0.5438 0.55493,0.9326 0.9819,1.1079 0.42721,0.1771 0.82771,0.158 1.13683,0.158 0.51291,0 0.95428,-0.019 1.36079,-0.2527 0.40212,-0.2327 0.61055,-0.6109 0.77534,-1.0606 0.002,0 -0.002,-0.01 0,-0.019 l 2.37713,-6.2939 0,-0.019 c 0.0374,-0.077 0.0651,-0.1379 0.12221,-0.2997 0.0575,-0.1581 0.13596,-0.3801 0.22394,-0.6329 0.0985,-0.2795 0.22376,-0.6644 0.34459,-1.0112 l 0,8.4603 c 0,0.3887 -3.3e-4,0.7803 0.32743,1.1237 0.32763,0.3427 0.82188,0.4279 1.36079,0.4279 l 0.39619,0 c 0.4905,0 0.96178,-0.038 1.30912,-0.3628 0.34737,-0.3256 0.37905,-0.7516 0.37905,-1.1868 l 0,-13.7897 c 0,-0.3887 3e-4,-0.7803 -0.32744,-1.1237 -0.32745,-0.3427 -0.82187,-0.4279 -1.36079,-0.4279 l -1.58471,0 c -0.64023,0 -1.15439,0.1378 -1.49858,0.4279 -0.3442,0.294 -0.43505,0.6444 -0.53406,0.9163 l -2.39436,6.3887 a 0.60818363,0.55834571 0 0 0 -0.0174,0 l -0.99904,2.7993 a 0.60818363,0.55834571 0 0 0 0,0.019 c -0.13596,0.4222 -0.13805,0.4988 -0.24128,0.8215 -0.12221,-0.3859 -0.11629,-0.5123 -0.29297,-1.0271 l -1.08519,-3.0996 a 0.60818363,0.55834571 0 0 0 -0.0174,0 l -2.24046,-5.9776 c -0.19973,-0.5495 -0.56672,-0.9325 -0.98191,-1.1078 -0.41495,-0.1772 -0.80366,-0.1581 -1.05069,-0.1581 l -1.53306,0 z"
       style="font-size:44.94163513px;font-style:normal;font-variant:normal;font-weight:600;font-stretch:normal;text-align:start;line-height:125%;letter-spacing:0px;word-spacing:0px;writing-mode:lr-tb;text-anchor:start;fill:#2b240a;fill-opacity:1;stroke:none;font-family:LMSansDemiCond10;-inkscape-font-specification:LMSansDemiCond10 Semi-Bold" />
    <path
       inkscape:connector-curvature="0"
       id="path6869"
       d="m 332.5182,1024.2784 c -0.54623,0 -1.0712,0.038 -1.46881,0.3629 -0.39744,0.3274 -0.44454,0.7592 -0.44454,1.2183 l 0,13.7424 c 0,0.4433 0.0298,0.8713 0.4252,1.2025 0.39541,0.3294 0.92766,0.3629 1.48811,0.3629 l 0.42521,0 c 0.55014,0 1.07908,-0.038 1.4688,-0.3629 0.38968,-0.3255 0.42521,-0.7506 0.42521,-1.1867 l 0,-9.52 5.14062,9.8363 c 0.21927,0.4222 0.47308,0.765 0.90843,0.9798 0.43525,0.2173 0.92001,0.2527 1.44949,0.2527 l 2.0292,0 c 0.55015,0 1.07909,-0.038 1.46879,-0.3648 0.38978,-0.3255 0.42521,-0.7506 0.42521,-1.1867 l 0,-13.7899 c 0,-0.3887 3.3e-4,-0.7803 -0.36727,-1.1237 -0.36748,-0.3427 -0.92192,-0.4279 -1.52676,-0.4279 l -0.44453,0 c -0.55016,0 -1.07908,0.038 -1.46881,0.3628 -0.38969,0.3256 -0.4252,0.7507 -0.4252,1.1868 l 0,9.5201 -5.12132,-9.8206 c -0.22003,-0.4241 -0.49165,-0.7765 -0.92767,-0.9954 -0.43582,-0.2193 -0.91549,-0.2528 -1.44948,-0.2528 l -2.00988,0 z"
       style="font-size:44.94163513px;font-style:normal;font-variant:normal;font-weight:600;font-stretch:normal;text-align:start;line-height:125%;letter-spacing:0px;word-spacing:0px;writing-mode:lr-tb;text-anchor:start;fill:#2b240a;fill-opacity:1;stroke:none;font-family:LMSansDemiCond10;-inkscape-font-specification:LMSansDemiCond10 Semi-Bold" />
    <path
       inkscape:connector-curvature="0"
       id="path6871"
       d="m 384.00606,1024.2784 c -0.54604,0 -1.06648,0.038 -1.46881,0.3629 -0.40231,0.3236 -0.46388,0.7554 -0.46388,1.2183 l 0,13.7424 c 0,0.4471 0.043,0.877 0.44454,1.2025 0.4004,0.3255 0.92767,0.3629 1.48811,0.3629 l 0.90843,0 c 0.55015,0 1.07416,-0.038 1.46881,-0.3629 0.39465,-0.3217 0.44455,-0.7468 0.44455,-1.1867 l 0,-4.7758 3.15008,0 c 1.44023,0 3.05986,-0.2624 4.36762,-1.0744 1.30777,-0.8138 2.22248,-2.1933 2.22248,-4.159 0,-1.5397 -0.54602,-2.9002 -1.71996,-3.8587 -1.17389,-0.958 -2.92256,-1.4705 -5.12134,-1.4705 l -5.72044,0 z"
       style="font-size:44.94163513px;font-style:normal;font-variant:normal;font-weight:600;font-stretch:normal;text-align:start;line-height:125%;letter-spacing:0px;word-spacing:0px;writing-mode:lr-tb;text-anchor:start;fill:#2b240a;fill-opacity:1;stroke:none;font-family:LMSansDemiCond10;-inkscape-font-specification:LMSansDemiCond10 Semi-Bold" />
    <path
       inkscape:connector-curvature="0"
       id="path6873"
       d="m 433.05614,1024.2784 c -0.54625,0 -1.0712,0.038 -1.46879,0.3629 -0.39742,0.3274 -0.44455,0.7592 -0.44455,1.2183 l 0,13.7424 c 0,0.4433 0.0296,0.8713 0.42522,1.2025 0.39544,0.3294 0.92769,0.3629 1.48812,0.3629 l 0.8311,0 c 0.55018,0 1.07416,-0.038 1.46881,-0.3629 0.39465,-0.3217 0.44452,-0.7468 0.44452,-1.1867 l 0,-5.6139 1.83587,0 3.92313,6.3255 c 0.15772,0.2442 0.29589,0.5065 0.65703,0.6798 0.36135,0.1771 0.69725,0.1579 1.12088,0.1579 l 1.17884,0 c 0.17339,0 0.47626,0.019 0.8504,-0.098 0.37397,-0.1187 0.79227,-0.5141 0.79227,-0.9479 0,-0.077 -0.0139,-0.2163 -0.0571,-0.3178 -0.0454,-0.099 -0.0848,-0.1772 -0.15372,-0.2844 a 0.68233257,0.55834571 0 0 0 -0.0193,0 l -3.82807,-5.9777 c 0.77767,-0.2422 1.56363,-0.5773 2.22247,-1.1236 0.87406,-0.7238 1.46881,-1.7801 1.46881,-3.1785 0,-1.3739 -0.55768,-2.653 -1.77792,-3.5582 -1.22023,-0.9048 -3.04205,-1.4075 -5.41122,-1.4075 l -5.54649,0 z"
       style="font-size:44.94163513px;font-style:normal;font-variant:normal;font-weight:600;font-stretch:normal;text-align:start;line-height:125%;letter-spacing:0px;word-spacing:0px;writing-mode:lr-tb;text-anchor:start;fill:#2b240a;fill-opacity:1;stroke:none;font-family:LMSansDemiCond10;-inkscape-font-specification:LMSansDemiCond10 Semi-Bold" />
    <path
       inkscape:connector-curvature="0"
       id="path6875"
       d="m 508.41109,1024.2784 c -0.54606,0 -1.06648,0.038 -1.46881,0.3629 -0.40235,0.3236 -0.46385,0.7554 -0.46385,1.2183 l 0,9.5677 c 0,1.6991 0.60834,3.2638 1.89401,4.3962 1.28548,1.1316 3.2209,1.786 5.70111,1.786 2.49727,0 4.41175,-0.6922 5.66245,-1.8352 1.25079,-1.1434 1.81654,-2.6883 1.81654,-4.3491 l 0,-9.599 c 0,-0.3887 3.5e-4,-0.7803 -0.36725,-1.1236 -0.36765,-0.3428 -0.92197,-0.428 -1.52676,-0.428 l -0.6377,0 c -0.55018,0 -1.07909,0.038 -1.46881,0.3629 -0.38973,0.3255 -0.42521,0.7506 -0.42521,1.1867 l 0,9.5989 c 0,0.6147 -0.063,1.52 -0.46385,2.1982 -0.39996,0.6779 -1.01028,1.171 -2.551,1.171 -1.46704,0 -2.04462,-0.4692 -2.43505,-1.1394 -0.39051,-0.6683 -0.46384,-1.5751 -0.46384,-2.1982 l 0,-9.6308 c 0,-0.3858 3.5e-4,-0.7784 -0.36725,-1.1235 -0.36744,-0.3428 -0.92197,-0.428 -1.52676,-0.428 l -0.90837,0 z"
       style="font-size:44.94163513px;font-style:normal;font-variant:normal;font-weight:600;font-stretch:normal;text-align:start;line-height:125%;letter-spacing:0px;word-spacing:0px;writing-mode:lr-tb;text-anchor:start;fill:#2b240a;fill-opacity:1;stroke:none;font-family:LMSansDemiCond10;-inkscape-font-specification:LMSansDemiCond10 Semi-Bold" />
    <path
       inkscape:connector-curvature="0"
       id="path6877"
       d="m 532.30512,1024.2784 c -0.22276,0 -0.55079,-0.019 -0.94701,0.1188 -0.39623,0.1378 -0.77293,0.5677 -0.77293,1.0112 0,0.057 0.007,0.1992 0.0395,0.2844 0.0296,0.077 0.0729,0.1771 0.13596,0.315 l 5.58516,13.8848 c 0.21862,0.5495 0.62037,0.9402 1.08223,1.1236 0.46187,0.1771 0.89102,0.1581 1.17884,0.1581 l 1.70062,0 c 0.26337,0 0.70001,0.019 1.15951,-0.1581 0.45952,-0.1771 0.8589,-0.5582 1.08225,-1.1078 a 0.68233257,0.55834571 0 0 0 0.0193,0 l 5.58374,-13.9006 c 0.067,-0.1579 0.10846,-0.2681 0.13596,-0.3648 0.0275,-0.099 0.0193,-0.2107 0.0193,-0.2365 0,-0.4395 -0.35896,-0.8713 -0.75361,-1.0113 -0.39484,-0.1379 -0.72425,-0.1179 -0.94701,-0.1179 l -0.52178,0 c -0.42916,0 -0.89064,0.01 -1.33339,0.2212 -0.44275,0.2125 -0.7341,0.5878 -0.9277,1.0743 l -2.87952,7.1164 0.0193,0 c -0.40097,0.9836 -0.83505,2.2879 -1.27543,3.5424 -0.0414,-0.1187 -0.0749,-0.2125 -0.11629,-0.3169 -0.002,-0.01 0.002,-0.01 0,-0.019 -0.27638,-0.7909 -0.65308,-1.7998 -0.88905,-2.3563 l 0.0193,0 -3.18875,-8.0019 a 0.68233257,0.55834571 0 0 0 -0.0193,0 c -0.22176,-0.5438 -0.62312,-0.9306 -1.08223,-1.1078 -0.45912,-0.1771 -0.88235,-0.1581 -1.15951,-0.1581 l -0.94701,0 z"
       style="font-size:44.94163513px;font-style:normal;font-variant:normal;font-weight:600;font-stretch:normal;text-align:start;line-height:125%;letter-spacing:0px;word-spacing:0px;writing-mode:lr-tb;text-anchor:start;fill:#2b240a;fill-opacity:1;stroke:none;font-family:LMSansDemiCond10;-inkscape-font-specification:LMSansDemiCond10 Semi-Bold" />
    <path
       inkscape:connector-curvature="0"
       id="path6879"
       d="m 554.7077,1024.2784 c -0.16155,0 -0.47233,-0.019 -0.81611,0.1188 -0.33493,0.1378 -0.66473,0.5457 -0.68287,1.0112 -4.7e-4,0.01 -0.0174,0.019 -0.0174,0.038 7e-5,0.019 -0.0104,0.098 0,0.1579 0.0104,0.077 0.0473,0.1581 0.0829,0.2844 l 0,0.038 3.54771,13.9479 c 0.13405,0.5544 0.46937,0.9699 0.8662,1.1553 0.39661,0.1771 0.76052,0.158 0.99924,0.158 l 1.016,0 c 0.26456,0 0.64619,0.019 1.04932,-0.1972 0.40312,-0.2087 0.70652,-0.6348 0.84943,-1.2182 l 1.83212,-7.3694 0,-0.019 c 0.0649,-0.2249 0.27203,-1.0763 0.51627,-2.135 0.0237,-0.098 0.0256,-0.1771 0.0493,-0.2833 0.206,0.8789 0.36765,1.6952 0.56635,2.4826 l 1.83213,7.3694 c 0.14397,0.562 0.45142,0.9876 0.84943,1.1868 0.39799,0.1991 0.76898,0.1771 1.03255,0.1771 l 1.14926,0 c 0.23893,0 0.60282,0.019 0.99925,-0.1579 0.39661,-0.1772 0.73115,-0.5994 0.86619,-1.1553 l 3.54772,-13.948 0,-0.038 c 0.0355,-0.1178 0.071,-0.2106 0.0829,-0.2834 0.0104,-0.077 -7e-5,-0.1378 0,-0.1578 0,-0.01 3.5e-4,-0.019 0,-0.038 l -0.0174,0 c -0.0186,-0.4615 -0.35128,-0.8809 -0.69961,-1.0113 -0.3574,-0.1379 -0.67932,-0.1187 -0.8995,-0.1187 -0.27756,0 -0.6598,-0.019 -1.06587,0.1581 -0.40628,0.1771 -0.74594,0.5917 -0.88275,1.1393 l -1.86543,7.4801 c -0.17741,0.698 -0.33807,1.579 -0.5496,2.4986 -0.19515,-0.8396 -0.34793,-1.6303 -0.53303,-2.3878 l -1.88139,-7.5749 c -0.13596,-0.5601 -0.46918,-0.9718 -0.8662,-1.1552 -0.39682,-0.1771 -0.77255,-0.158 -0.99925,-0.158 l -1.03255,0 c -0.25468,0 -0.63337,-0.019 -1.03257,0.1771 -0.39917,0.1972 -0.71636,0.607 -0.84943,1.171 l -1.63222,6.5469 c -0.25115,1.0133 -0.49717,2.0857 -0.71636,3.068 -0.13996,-0.5937 -0.22631,-1.1572 -0.34991,-1.6599 l -1.98213,-8.0018 c -0.13805,-0.5495 -0.47212,-0.96 -0.86618,-1.1394 -0.39408,-0.1772 -0.76921,-0.1581 -0.99925,-0.1581 l -0.49973,0 z"
       style="font-size:44.94163513px;font-style:normal;font-variant:normal;font-weight:600;font-stretch:normal;text-align:start;line-height:125%;letter-spacing:0px;word-spacing:0px;writing-mode:lr-tb;text-anchor:start;fill:#2b240a;fill-opacity:1;stroke:none;font-family:LMSansDemiCond10;-inkscape-font-specification:LMSansDemiCond10 Semi-Bold" />
    <path
       inkscape:connector-curvature="0"
       id="path6881"
       d="m 583.12396,1024.2784 c -0.21093,0 -0.50563,-0.019 -0.86973,0.099 -0.36408,0.1187 -0.75381,0.5123 -0.75381,0.9163 0,0.1379 0.0393,0.3112 0.11629,0.4433 0.077,0.1379 0.1518,0.2164 0.25114,0.3332 l 5.21797,6.1991 -5.64314,7.1323 -0.0193,0.019 c -0.1182,0.1379 -0.19711,0.2623 -0.25113,0.3964 -0.0571,0.1378 -0.0571,0.3035 -0.0571,0.3312 0,0.3926 0.34302,0.8081 0.715,0.9326 0.37218,0.1187 0.66864,0.099 0.88904,0.099 l 1.33357,0 c 0.30103,0 0.60342,0.019 0.96633,-0.099 0.36273,-0.1188 0.64816,-0.3571 0.86973,-0.6645 l 3.67189,-4.9656 3.80719,4.9813 c 0.20328,0.2566 0.44025,0.4873 0.7923,0.6166 0.35203,0.1379 0.66866,0.1187 1.04359,0.1187 l 1.5654,0 c 0.29316,0 0.61696,0.038 1.02427,-0.1579 0.20364,-0.099 0.38145,-0.2776 0.46388,-0.4595 0.0824,-0.1772 0.0966,-0.3591 0.0966,-0.5544 a 0.68233257,0.55834571 0 0 0 -0.11629,-0.315 l -6.20436,-7.4168 4.94742,-6.2623 a 0.68233257,0.55834571 0 0 0 0,-0.019 c 0.0747,-0.099 0.12812,-0.1579 0.19319,-0.2528 0.0651,-0.099 0.13614,-0.2815 0.13614,-0.428 0,-0.4165 -0.38518,-0.8186 -0.75362,-0.9325 -0.36841,-0.1179 -0.67738,-0.099 -0.86972,-0.099 l -1.37202,0 c -0.23735,0 -0.53225,-0.01 -0.86973,0.077 -0.32937,0.077 -0.66332,0.2939 -0.88909,0.585 l -0.0191,0 0,0.019 -2.99618,3.9059 -3.07281,-3.8586 c -0.18726,-0.2423 -0.40628,-0.4711 -0.75361,-0.6013 -0.34754,-0.1379 -0.6661,-0.1187 -1.04361,-0.1187 l -1.54606,0 z"
       style="font-size:44.94163513px;font-style:normal;font-variant:normal;font-weight:600;font-stretch:normal;text-align:start;line-height:125%;letter-spacing:0px;word-spacing:0px;writing-mode:lr-tb;text-anchor:start;fill:#2b240a;fill-opacity:1;stroke:none;font-family:LMSansDemiCond10;-inkscape-font-specification:LMSansDemiCond10 Semi-Bold" />
    <path
       inkscape:connector-curvature="0"
       id="path6883"
       d="m 607.05324,1024.2784 c -0.1932,0 -0.50006,-0.019 -0.86954,0.099 -0.36958,0.1187 -0.77313,0.5103 -0.77313,0.9326 0,0.3801 0.18335,0.5476 0.27067,0.6482 l 0.0191,0.038 6.35815,8.4606 0,5.1712 c 0,0.4356 0.0355,0.8617 0.4252,1.1867 0.38976,0.3256 0.91866,0.3648 1.46881,0.3648 l 0.86973,0 c 0.45554,0 0.92785,0.01 1.35271,-0.2843 0.4248,-0.2921 0.54114,-0.7488 0.54114,-1.2498 l 0,-5.1555 6.30026,-8.4288 c 0.093,-0.1379 0.16364,-0.2049 0.2318,-0.3169 0.067,-0.1188 0.11629,-0.2959 0.11629,-0.428 0,-0.2107 -0.0574,-0.428 -0.21247,-0.6013 -0.15581,-0.1771 -0.37436,-0.2757 -0.56038,-0.3313 -0.37236,-0.1178 -0.68266,-0.099 -0.8889,-0.099 l -0.69566,0 c -0.44312,0 -1.46606,0.019 -2.20322,0.7114 a 0.68233257,0.55834571 0 0 0 -0.0191,0.038 c -0.0891,0.099 -0.0594,0.058 -0.0966,0.1187 -0.0374,0.038 -0.093,0.098 -0.15372,0.1973 -0.12621,0.158 -0.2949,0.3906 -0.50246,0.6644 -0.41514,0.5506 -0.96711,1.2933 -1.52676,2.0559 -0.55963,0.7631 -1.12699,1.5455 -1.58471,2.2139 -0.15372,0.225 -0.18528,0.3351 -0.30927,0.5228 -0.21666,-0.3294 -0.35033,-0.5754 -0.73436,-1.1079 l -3.15162,-4.3013 c -0.37809,-0.5065 -0.893,-0.8224 -1.37222,-0.9639 -0.47919,-0.1379 -0.90737,-0.1187 -1.15951,-0.1187 l -1.14019,0 z"
       style="font-size:44.94163513px;font-style:normal;font-variant:normal;font-weight:600;font-stretch:normal;text-align:start;line-height:125%;letter-spacing:0px;word-spacing:0px;writing-mode:lr-tb;text-anchor:start;fill:#2b240a;fill-opacity:1;stroke:none;font-family:LMSansDemiCond10;-inkscape-font-specification:LMSansDemiCond10 Semi-Bold" />
    <path
       inkscape:connector-curvature="0"
       id="path6885"
       d="m 633.82687,1024.2784 c -0.33377,0 -0.78023,-0.019 -1.23679,0.2212 -0.4565,0.2422 -0.69568,0.7296 -0.69568,1.297 0,0.2815 0.0221,0.5266 0.13596,0.7593 0.11438,0.2327 0.34516,0.4356 0.59908,0.5544 0.50783,0.2345 0.96494,0.1972 1.44949,0.1972 l 6.20355,-0.057 -8.3874,11.2598 0,0.019 c -0.261,0.337 -0.34793,0.6644 -0.34793,1.0901 0,0.3705 -0.007,0.7707 0.34793,1.1236 0.35501,0.3533 0.91962,0.4433 1.54607,0.4433 l 10.89976,0 c 0.63834,0 1.21176,-0.099 1.56541,-0.4596 0.35367,-0.359 0.32839,-0.743 0.32839,-1.1079 0,-0.5639 -0.1222,-1.0507 -0.59906,-1.3444 -0.47622,-0.2939 -0.96552,-0.2681 -1.4688,-0.2681 a 0.68233257,0.55834571 0 0 0 -0.0191,0 l -6.76401,0.077 8.32938,-11.2123 0,-0.019 c 0.25486,-0.3293 0.34793,-0.6462 0.34793,-1.0269 0,-0.4912 -0.10446,-0.9421 -0.52181,-1.2341 -0.41754,-0.292 -0.90898,-0.2997 -1.37221,-0.2997 l -10.33926,0 z"
       style="font-size:44.94163513px;font-style:normal;font-variant:normal;font-weight:600;font-stretch:normal;text-align:start;line-height:125%;letter-spacing:0px;word-spacing:0px;writing-mode:lr-tb;text-anchor:start;fill:#2b240a;fill-opacity:1;stroke:none;font-family:LMSansDemiCond10;-inkscape-font-specification:LMSansDemiCond10 Semi-Bold" />
    <path
       inkscape:connector-curvature="0"
       id="path6887"
       d="m 108.25095,1024.3416 c -0.54622,0 -1.06647,0.038 -1.4688,0.3648 -0.40232,0.3236 -0.46388,0.7554 -0.46388,1.2184 l 0,13.6793 c 0,0.4471 0.0431,0.877 0.44454,1.2024 0.4004,0.3256 0.92785,0.3648 1.48812,0.3648 l 9.89482,0 c 0.55015,0 1.07909,-0.038 1.4688,-0.3648 0.38978,-0.3255 0.4252,-0.7506 0.4252,-1.1866 l 0,-0.1973 c 0,-0.2901 -0.0335,-0.5285 -0.13605,-0.7592 -0.10053,-0.2307 -0.29584,-0.4557 -0.54114,-0.585 -0.49069,-0.2585 -0.9427,-0.2049 -1.37221,-0.2049 a 0.68233257,0.55834571 0 0 0 -0.0191,0 l -3.90382,0.038 -0.0191,0 c -0.34009,0 -1.12542,-0.01 -1.89402,0 -0.45775,0 -0.7311,0.019 -1.08223,0.038 l 0,-4.0168 5.99098,0 c 0.28168,0 0.70439,0.038 1.15951,-0.1973 0.45516,-0.225 0.73435,-0.7152 0.73435,-1.2813 0,-0.5697 -0.2565,-1.0665 -0.71501,-1.2972 -0.45871,-0.2307 -0.88669,-0.1972 -1.17883,-0.1972 l -5.99098,0 0,-3.5423 0.59907,0 5.89437,0.057 c 0.47374,0 0.94834,0.038 1.44949,-0.2212 0.25056,-0.1379 0.44023,-0.3514 0.54114,-0.585 0.10054,-0.2346 0.13605,-0.4806 0.13605,-0.7745 0,-0.3409 0.0124,-0.7277 -0.32859,-1.0902 -0.34143,-0.3628 -0.91962,-0.4911 -1.58472,-0.4911 l -9.52763,0 z"
       style="font-size:44.94163513px;font-style:normal;font-variant:normal;font-weight:600;font-stretch:normal;text-align:start;line-height:125%;letter-spacing:0px;word-spacing:0px;writing-mode:lr-tb;text-anchor:start;fill:#2b240a;fill-opacity:1;stroke:none;font-family:LMSansDemiCond10;-inkscape-font-specification:LMSansDemiCond10 Semi-Bold" />
    <path
       inkscape:connector-curvature="0"
       id="path6889"
       d="m 133.66591,1024.3416 c -0.54622,0 -1.06646,0.038 -1.4688,0.3648 -0.40232,0.3236 -0.46388,0.7554 -0.46388,1.2184 l 0,13.6793 c 0,0.4471 0.0431,0.877 0.44453,1.2024 0.40041,0.3256 0.92786,0.3648 1.48813,0.3648 l 0.90842,0 c 0.55015,0 1.07416,-0.038 1.46881,-0.3648 0.39466,-0.3217 0.44454,-0.7468 0.44454,-1.1866 l 0,-5.3769 5.23728,0 c 0.28167,0 0.70438,0.038 1.15951,-0.1972 0.45517,-0.225 0.73426,-0.7152 0.73426,-1.2814 0,-0.5697 -0.2563,-1.0665 -0.71501,-1.2971 -0.45871,-0.2308 -0.88669,-0.1972 -1.17884,-0.1972 l -5.23727,0 0,-3.8428 0.4252,0 5.70109,0.057 c 0.45986,0 0.93504,0.038 1.43018,-0.2212 0.24759,-0.1379 0.4431,-0.3533 0.54114,-0.585 0.0985,-0.2326 0.11633,-0.4825 0.11633,-0.7746 0,-0.337 0.0258,-0.7238 -0.30935,-1.0921 -0.3353,-0.3667 -0.91962,-0.4912 -1.58472,-0.4912 l -9.1411,0 z"
       style="font-size:44.94163513px;font-style:normal;font-variant:normal;font-weight:600;font-stretch:normal;text-align:start;line-height:125%;letter-spacing:0px;word-spacing:0px;writing-mode:lr-tb;text-anchor:start;fill:#2b240a;fill-opacity:1;stroke:none;font-family:LMSansDemiCond10;-inkscape-font-specification:LMSansDemiCond10 Semi-Bold" />
    <path
       inkscape:connector-curvature="0"
       id="path6891"
       d="m 482.13106,1024.4207 c -0.54626,0 -1.06646,0.038 -1.46881,0.3648 -0.40234,0.3236 -0.46385,0.7554 -0.46385,1.2182 0,0.5027 0.0808,0.9621 0.5218,1.2656 0.44157,0.3035 0.94661,0.2997 1.46881,0.2997 a 0.68233257,0.55834571 0 0 0 0.0193,0 l 4.30968,-0.038 0,12.082 c 0,0.4471 0.0434,0.877 0.44453,1.2024 0.40036,0.3256 0.92768,0.3648 1.48811,0.3648 l 0.90838,0 c 0.55018,0 1.07908,-0.038 1.46881,-0.3648 0.38972,-0.3255 0.4252,-0.7506 0.4252,-1.1866 l 0,-12.0978 4.30965,0.038 a 0.68233257,0.55834571 0 0 0 0.0193,0 c 0.5287,0 1.0231,0 1.44949,-0.315 0.42639,-0.3131 0.50248,-0.765 0.50248,-1.2499 0,-0.337 0.0256,-0.7238 -0.3093,-1.092 -0.33532,-0.3667 -0.9196,-0.4912 -1.58471,-0.4912 l -13.50873,0 z"
       style="font-size:44.94163513px;font-style:normal;font-variant:normal;font-weight:600;font-stretch:normal;text-align:start;line-height:125%;letter-spacing:0px;word-spacing:0px;writing-mode:lr-tb;text-anchor:start;fill:#2b240a;fill-opacity:1;stroke:none;font-family:LMSansDemiCond10;-inkscape-font-specification:LMSansDemiCond10 Semi-Bold" />
    <path
       inkscape:connector-curvature="0"
       id="path6893"
       d="m 363.85489,1026.5556 c 0.71598,0 2.28925,0.1379 3.26606,1.6756 0.81852,1.2991 0.86975,2.9488 0.86975,4.2383 0,1.4212 -0.0613,3.008 -0.77315,4.3804 -0.94939,1.7998 -2.51763,2.0085 -3.36266,2.0085 -0.86102,0 -2.39901,-0.2403 -3.32403,-2.0401 -0.64043,-1.236 -0.79247,-2.5521 -0.79247,-4.3488 0,-1.1158 0.0517,-3.0616 0.947,-4.3489 0.87462,-1.2912 2.17924,-1.5652 3.16941,-1.5652 z"
       style="font-size:44.94163513px;font-style:normal;font-variant:normal;font-weight:600;font-stretch:normal;text-align:start;line-height:125%;letter-spacing:0px;word-spacing:0px;writing-mode:lr-tb;text-anchor:start;fill:#ffffff;fill-opacity:1;stroke:none;font-family:LMSansDemiCond10;-inkscape-font-specification:LMSansDemiCond10 Semi-Bold" />
    <path
       inkscape:connector-curvature="0"
       id="path6895"
       d="m 414.11256,1026.5556 c 1.32885,0 2.60587,0.5879 3.30471,1.7387 0.002,0 -0.002,0.01 0,0.019 0.75835,1.3326 0.90838,2.8077 0.90838,4.507 0,1.0408 -0.12029,2.962 -0.94701,4.3013 l -0.79245,-0.964 a 0.68233257,0.55834571 0 0 0 -0.0193,-0.019 c -0.1478,-0.1579 -0.36152,-0.3466 -0.65703,-0.428 -0.2955,-0.077 -0.49716,-0.057 -0.77294,-0.057 l -1.27542,0 c -0.19318,0 -0.50112,-0.019 -0.86973,0.099 -0.36843,0.1188 -0.75363,0.5171 -0.75363,0.9326 0,0.1771 0.0374,0.2585 0.077,0.3485 0.0395,0.099 0.10253,0.1581 0.15371,0.2528 0.10445,0.1771 0.21508,0.3609 0.32862,0.5065 l 0.67634,0.8693 0,0.019 0.0966,0.1187 c -0.95942,-0.099 -2.10514,-0.4155 -2.87954,-1.8037 -0.69901,-1.2262 -0.79246,-2.7343 -0.79246,-4.1748 0,-1.6204 0.1203,-3.378 1.12089,-4.7918 0.66155,-0.901 1.812,-1.4706 3.09211,-1.4706 z"
       style="font-size:44.94163513px;font-style:normal;font-variant:normal;font-weight:600;font-stretch:normal;text-align:start;line-height:125%;letter-spacing:0px;word-spacing:0px;writing-mode:lr-tb;text-anchor:start;fill:#ffffff;fill-opacity:1;stroke:none;font-family:LMSansDemiCond10;-inkscape-font-specification:LMSansDemiCond10 Semi-Bold" />
    <path
       inkscape:connector-curvature="0"
       id="path6897"
       d="m 35.028012,1027.0934 2.067842,0 c 0.305711,0 1.248999,0.019 2.048538,0.2681 0.399828,0.1187 0.744793,0.2977 0.985647,0.5381 0.240892,0.2384 0.405858,0.5419 0.405858,1.027 0,0.6032 -0.222604,1.1315 -0.715016,1.5178 -0.492412,0.3888 -1.316231,0.6798 -2.724931,0.6798 l -2.067862,0 0,-4.0327 z"
       style="font-size:44.94163513px;font-style:normal;font-variant:normal;font-weight:600;font-stretch:normal;text-align:start;line-height:125%;letter-spacing:0px;word-spacing:0px;writing-mode:lr-tb;text-anchor:start;fill:#ffffff;fill-opacity:1;stroke:none;font-family:LMSansDemiCond10;-inkscape-font-specification:LMSansDemiCond10 Semi-Bold" />
    <path
       inkscape:connector-curvature="0"
       id="path6899"
       d="m 84.613383,1027.0934 2.396395,0 c 2.60169,0 3.680409,0.9201 4.309649,2.1191 0.629229,1.1985 0.656995,2.7005 0.656995,3.6215 0,0.9105 -0.01915,2.3529 -0.637751,3.4949 -0.618793,1.1413 -1.69373,2.0241 -4.290337,2.0241 l -2.435047,0 0,-11.2596 z"
       style="font-size:44.94163513px;font-style:normal;font-variant:normal;font-weight:600;font-stretch:normal;text-align:start;line-height:125%;letter-spacing:0px;word-spacing:0px;writing-mode:lr-tb;text-anchor:start;fill:#ffffff;fill-opacity:1;stroke:none;font-family:LMSansDemiCond10;-inkscape-font-specification:LMSansDemiCond10 Semi-Bold" />
    <path
       inkscape:connector-curvature="0"
       id="path6901"
       d="m 386.731,1027.0934 2.16448,0 c 1.62592,0 2.31159,0.3408 2.68629,0.7593 0.37476,0.4174 0.48312,1.0585 0.48312,1.7859 0,0.6979 -0.0947,1.3345 -0.46386,1.7545 -0.36978,0.4222 -1.05405,0.7746 -2.70562,0.7746 l -2.16447,0 0,-5.0763 z"
       style="font-size:44.94163513px;font-style:normal;font-variant:normal;font-weight:600;font-stretch:normal;text-align:start;line-height:125%;letter-spacing:0px;word-spacing:0px;writing-mode:lr-tb;text-anchor:start;fill:#ffffff;fill-opacity:1;stroke:none;font-family:LMSansDemiCond10;-inkscape-font-specification:LMSansDemiCond10 Semi-Bold" />
    <path
       inkscape:connector-curvature="0"
       id="path6903"
       d="m 435.80042,1027.0934 2.3964,0 c 1.51651,0 2.22016,0.2863 2.58964,0.6329 0.36941,0.3466 0.50248,0.8751 0.50248,1.5494 0,0.653 -0.13405,1.1709 -0.50248,1.5179 -0.36765,0.3466 -1.0653,0.6482 -2.60898,0.6482 l -2.37706,0 0,-4.3489 z"
       style="font-size:44.94163513px;font-style:normal;font-variant:normal;font-weight:600;font-stretch:normal;text-align:start;line-height:125%;letter-spacing:0px;word-spacing:0px;writing-mode:lr-tb;text-anchor:start;fill:#ffffff;fill-opacity:1;stroke:none;font-family:LMSansDemiCond10;-inkscape-font-specification:LMSansDemiCond10 Semi-Bold" />
    <path
       inkscape:connector-curvature="0"
       id="path6905"
       d="m 11.620787,1029.3864 c 0.209582,0.5878 0.389964,1.2182 0.521804,1.581 l 1.275426,3.4948 -3.5945839,0 1.3528899,-3.6687 c 0.20384,-0.5562 0.271052,-0.9009 0.44454,-1.4075 z"
       style="font-size:44.94163513px;font-style:normal;font-variant:normal;font-weight:600;font-stretch:normal;text-align:start;line-height:125%;letter-spacing:0px;word-spacing:0px;writing-mode:lr-tb;text-anchor:start;fill:#ffffff;fill-opacity:1;stroke:none;font-family:LMSansDemiCond10;-inkscape-font-specification:LMSansDemiCond10 Semi-Bold" />
    <path
       inkscape:connector-curvature="0"
       id="path6907"
       d="m 35.028012,1033.688 2.319083,0 c 0.389965,0 1.403751,0.01 2.261118,0.3312 0.857293,0.3189 1.565407,0.8321 1.565407,2.1822 0,0.7612 -0.285606,1.236 -0.811815,1.581 -0.526113,0.3446 -1.377937,0.5696 -2.570344,0.5696 l -2.763592,0 0,-4.6651 z"
       style="font-size:44.94163513px;font-style:normal;font-variant:normal;font-weight:600;font-stretch:normal;text-align:start;line-height:125%;letter-spacing:0px;word-spacing:0px;writing-mode:lr-tb;text-anchor:start;fill:#ffffff;fill-opacity:1;stroke:none;font-family:LMSansDemiCond10;-inkscape-font-specification:LMSansDemiCond10 Semi-Bold" />
  </g>
</svg>
