<?xml version="1.0" encoding="UTF-8" standalone="no"?>
<!-- Created with Inkscape (http://www.inkscape.org/) -->

<svg
   xmlns:dc="http://purl.org/dc/elements/1.1/"
   xmlns:cc="http://creativecommons.org/ns#"
   xmlns:rdf="http://www.w3.org/1999/02/22-rdf-syntax-ns#"
   xmlns:svg="http://www.w3.org/2000/svg"
   xmlns="http://www.w3.org/2000/svg"
   xmlns:sodipodi="http://sodipodi.sourceforge.net/DTD/sodipodi-0.dtd"
   xmlns:inkscape="http://www.inkscape.org/namespaces/inkscape"
   width="412.01999"
   height="77.419998"
   id="svg7689"
   version="1.1"
   inkscape:version="0.48.2 r9819"
   sodipodi:docname="numbers.svg">
  <defs
     id="defs7691">
    <linearGradient
       id="linearGradient3831">
      <stop
         style="stop-color:#ffd40b;stop-opacity:1;"
         offset="0"
         id="stop3833" />
      <stop
         style="stop-color:#d57a05;stop-opacity:1;"
         offset="1"
         id="stop3835" />
    </linearGradient>
    <linearGradient
       id="linearGradient7819">
      <stop
         style="stop-color:#ffd40b;stop-opacity:1;"
         offset="0"
         id="stop7821" />
      <stop
         style="stop-color:#d57a05;stop-opacity:1;"
         offset="1"
         id="stop7823" />
    </linearGradient>
  </defs>
  <sodipodi:namedview
     id="base"
     pagecolor="#ffffff"
     bordercolor="#666666"
     borderopacity="1.0"
     inkscape:pageopacity="0.0"
     inkscape:pageshadow="2"
     inkscape:zoom="1"
     inkscape:cx="130.90262"
     inkscape:cy="206.59087"
     inkscape:document-units="px"
     inkscape:current-layer="layer1"
     showgrid="false"
     inkscape:window-width="1920"
     inkscape:window-height="1028"
     inkscape:window-x="0"
     inkscape:window-y="0"
     inkscape:window-maximized="1" />
  <metadata
     id="metadata7694">
    <rdf:RDF>
      <cc:Work
         rdf:about="">
        <dc:format>image/svg+xml</dc:format>
        <dc:type
           rdf:resource="http://purl.org/dc/dcmitype/StillImage" />
        <dc:title></dc:title>
      </cc:Work>
    </rdf:RDF>
  </metadata>
  <g
     inkscape:label="Layer 1"
     inkscape:groupmode="layer"
     id="layer1"
     transform="translate(0,-974.94218)">
    <path
       style="font-size:44.94163513px;font-style:normal;font-variant:normal;font-weight:600;font-stretch:normal;text-align:start;line-height:125%;letter-spacing:0px;word-spacing:0px;writing-mode:lr-tb;text-anchor:start;fill:#2b240a;fill-opacity:1;stroke:none;font-family:LMSansDemiCond10;-inkscape-font-specification:LMSansDemiCond10 Semi-Bold"
       d="m 110.5031,999.6588 c -0.93515,0.7186 -1.60192,1.4369 -2.05482,2.0354 -0.20969,0.3993 -0.41934,0.5988 -0.53258,0.8381 -0.1258,0.3993 -0.2516,0.3993 -0.2516,0.7983 0,0.4392 0.0419,0.3993 0.0838,0.4392 0.17345,0.1999 0.25661,0.3052 0.33549,0.399 0.16776,0.3989 0.37743,0.6386 0.65839,0.9579 0.2516,0.399 0.5829,0.6785 0.9058,0.9576 0.16773,0 0.29353,0.3993 0.53258,0.3993 0.25161,0 0.54095,0.399 1.19096,0.399 0.54096,0 1.24548,-0.399 1.56418,-0.5586 0.33548,-0.399 0.37741,-0.5188 0.45289,-0.6785 0.90162,-1.5966 2.12193,-2.3149 3.2458,-2.7537 1.12385,-0.4391 2.1932,-0.5191 2.59159,-0.5191 1.50127,0 1.81159,0.3993 2.13868,0.7983 0.33549,0.5188 0.45291,1.3967 0.45291,2.2349 0,1.4767 -0.42774,2.9933 -1.14904,3.9114 -1.8e-4,0.01 -1.8e-4,0.021 0,0.031 -0.54515,0.6784 -0.94772,0.9178 -1.39644,1.0376 -0.79663,0.2656 -1.12575,0.3281 -2.09675,0.399 -0.74644,0.04 -1.11547,0 -1.39643,0 -0.29355,0.03 -0.73388,0 -0.88272,0 -0.38321,0 -0.77366,0.4791 -0.92882,0.9182 -0.16776,0.3989 -0.1258,0.7182 -0.1258,1.1972 l 0,0.5587 c 0,0.3993 -0.004,0.5589 0.041,0.8382 0.0419,0.3992 0.16775,0.6784 0.5745,1.0375 0.41936,0.3993 0.9184,0.3993 1.27484,0.4392 0.37742,0.037 0.66676,0.03 1.0274,0.03 l 2.01289,0 c 1.79065,0 2.51193,0.3993 3.12418,1.0778 0.61225,0.7581 1.02742,2.1549 1.02742,4.2583 0,0.9979 -0.0419,2.5145 -0.57452,3.6318 -0.2516,0.5589 -0.6458,0.9977 -1.11129,1.2772 -0.46547,0.399 -1.03997,0.4789 -2.05483,0.4789 -1.15321,0 -4.94792,0 -7.60577,-3.1529 -0.25161,-0.399 -0.37741,-0.4791 -0.70033,-0.7582 -0.33547,-0.3993 -1.09449,-0.3993 -1.39644,-0.3993 -0.29355,0 -0.67514,0 -1.06934,0 -0.37742,0 -0.68773,0.5189 -0.82193,0.7585 -0.25159,0.479 -0.29356,0.7983 -0.37741,1.2372 -0.003,0 0.003,0.03 0,0.03 -0.0281,0 -0.1258,0.5189 -0.20969,0.8784 -0.0419,0 -0.0838,0.3989 -0.12579,0.5587 -0.0158,0 -0.0302,0 -0.0411,0.3989 -0.0106,0 0,0 0,0.3993 0,0.5188 0.16773,0.6786 0.33547,0.9179 0.16774,0.3989 0.37741,0.5187 0.65839,0.7983 0.54933,0.5585 1.34611,1.237 2.38611,1.8757 2.07579,1.2769 5.17731,2.4746 9.20897,2.4746 3.68191,0 7.1491,-0.8382 9.66102,-2.7142 2.51191,-1.8757 3.94609,-4.7612 3.94609,-8.4849 0,-2.674 -0.98966,-4.8051 -2.59158,-6.3097 -0.98548,-0.9182 -2.18063,-1.5166 -3.45546,-2.0355 2.39869,-1.6762 4.52229,-4.2105 4.52229,-7.651 0,-2.5144 -1.05257,-4.7453 -3.1661,-6.30572 -2.11354,-1.55675 -5.17691,-2.39456 -9.07851,-2.30656 -3.90161,0.088 -6.88447,1.44493 -8.75855,2.92138 z"
       id="path6265"
       inkscape:connector-curvature="0"
       sodipodi:nodetypes="cccsccccsscccscscccccccsscccsscsccsccssccscccscccscsccsccc" />
    <path
       style="font-size:44.94163513px;font-style:normal;font-variant:normal;font-weight:600;font-stretch:normal;text-align:start;line-height:125%;letter-spacing:0px;word-spacing:0px;writing-mode:lr-tb;text-anchor:start;fill:#2b240a;fill-opacity:1;stroke:none;font-family:LMSansDemiCond10;-inkscape-font-specification:LMSansDemiCond10 Semi-Bold"
       d="m 17.637647,996.82541 c -3.254172,0 -5.889378,0.79798 -7.8108496,2.15493 -1.92063,1.31706 -3.111589,3.11316 -3.904162,5.02476 -1.5893429,3.7917 -1.5641833,8.1499 -1.5641833,10.9834 0,2.8337 -0.030593,7.1083 1.5641833,10.82 0.796767,1.8355 2.021276,3.552 3.9461,4.8687 1.9248236,1.2773 4.5252236,2.0756 7.7697496,2.0756 3.245783,0 5.849119,-0.7983 7.770167,-2.0756 1.920633,-1.2769 3.15772,-3.0332 3.946104,-4.901 1.580953,-3.7117 1.522247,-7.958 1.522247,-10.7877 0,-2.8335 0.04192,-7.1798 -1.522247,-10.9834 -0.788384,-1.9156 -1.987729,-3.6718 -3.904167,-5.02476 -1.916438,-1.31711 -4.556255,-2.15493 -7.811264,-2.15493 z"
       id="path6271"
       inkscape:connector-curvature="0" />
    <path
       style="font-size:44.94163513px;font-style:normal;font-variant:normal;font-weight:600;font-stretch:normal;text-align:start;line-height:125%;letter-spacing:0px;word-spacing:0px;writing-mode:lr-tb;text-anchor:start;fill:#2b240a;fill-opacity:1;stroke:none;font-family:LMSansDemiCond10;-inkscape-font-specification:LMSansDemiCond10 Semi-Bold"
       d="m 51.642885,997.22441 c -0.561934,0.39898 -0.876449,0.55864 -1.153219,0.83812 l -0.04109,0 c -2.004504,1.87575 -5.149221,1.95547 -6.49576,2.03537 -0.0087,0 -0.03188,0 -0.04109,0 -1.149028,0.04 -2.159665,0.4392 -2.713208,0.9978 -0.561933,0.5587 -0.700318,1.1176 -0.700318,1.5963 0,1.0778 0.901605,1.9956 1.807405,2.3149 0.905802,0.399 1.731926,0.399 2.054824,0.399 1.1658,0 2.31063,-0.399 3.455458,-0.4787 l 0,21.9946 -2.507721,0 c -0.377419,0 -1.237089,-0.04 -2.180631,0.3992 -0.939346,0.3991 -1.933211,1.2371 -1.933211,2.3547 0,1.1173 0.989669,2.0355 1.933211,2.3548 0.939348,0.399 1.794828,0.399 2.180631,0.399 l 14.183734,0 c 0.377419,0 1.207736,0.04 2.138697,-0.399 0.930961,-0.3993 1.891274,-1.2375 1.891274,-2.3548 0,-1.1176 -0.960313,-2.0357 -1.891274,-2.3547 -0.930961,-0.3992 -1.752892,-0.3992 -2.138697,-0.3992 l -2.18063,0 0,-26.7362 c 0,-0.39901 0.125803,-1.11732 -0.419352,-1.87576 -0.515795,-0.75815 -1.794819,-1.27696 -2.890802,-1.38069 -1.095983,-0.10374 -1.775333,-0.10374 -2.358231,0.29526 z"
       id="path6269"
       inkscape:connector-curvature="0"
       sodipodi:nodetypes="ccccccscsccscscsscscscsccc" />
    <path
       style="font-size:44.94163513px;font-style:normal;font-variant:normal;font-weight:600;font-stretch:normal;text-align:start;line-height:125%;letter-spacing:0px;word-spacing:0px;writing-mode:lr-tb;text-anchor:start;fill:#2b240a;fill-opacity:1;stroke:none;font-family:LMSansDemiCond10;-inkscape-font-specification:LMSansDemiCond10 Semi-Bold"
       d="m 77.425052,999.53929 c -1.37547,1.15741 -2.272881,2.51441 -2.834814,3.59181 -0.293564,0.5188 -0.482257,1.0377 -0.616451,1.357 -0.08388,0 -0.08388,0.399 -0.125801,0.4391 -0.01771,0 -0.02865,0 -0.04109,0 -0.01257,0.04 -0.04109,0.031 -0.04109,0.399 0,0.5188 0.167757,0.6785 0.293559,0.878 0.125802,0 0.29356,0.3993 0.494841,0.5988 0.377411,0.4388 0.85967,0.9978 1.358698,1.5564 0.01368,2e-4 0.02735,2e-4 0.04103,0 0.167731,0 0.293528,0.399 0.574513,0.5587 0.293558,0.3992 0.977088,0.4391 1.438375,0.4391 0.561932,0 1.463544,-0.3991 1.765471,-0.7585 0.293558,-0.399 0.335479,-0.6383 0.452907,-0.9576 l 0,0 c 0.377412,-1.3171 0.943535,-2.5542 1.72772,-3.3924 0.779995,-0.8381 1.652256,-1.3171 3.329664,-1.3171 1.165786,0 1.91224,0.399 2.507723,0.6387 0.595475,0.399 1.031602,0.9576 1.358691,1.5564 0.654197,1.277 0.742263,2.7537 0.742263,3.0331 0,2.9135 -2.109344,5.879 -4.727784,8.4531 l -10.031308,9.8259 -0.0839,0 c -0.293566,0.3993 -0.557743,0.5589 -0.70032,0.9181 -0.167758,0.3989 -0.125802,0.7182 -0.125802,1.1574 0,0.9178 0.08388,1.7559 0.905796,2.4345 0.830319,0.6784 1.962564,0.7584 3.166104,0.7584 l 17.225712,0 c 1.17,0 2.29386,0 3.12417,-0.7187 0.83032,-0.6784 0.90581,-1.5165 0.90581,-2.3945 l 0,-0.3991 c 0,-0.5589 -0.0274,-1.0375 -0.25161,-1.5165 -0.20968,-0.479 -0.7129,-0.958 -1.31677,-1.2374 -1.20773,-0.4788 -2.33578,-0.399 -3.988042,-0.399 l -3.698666,0.03 -5.139162,0 3.577077,-3.1527 0,-0.03 c 3.711259,-3.113 6.354853,-5.2642 8.140033,-7.3633 1.79063,-2.1154 2.67126,-4.1748 2.67126,-6.6254 0,-2.9133 -1.1574,-5.755 -3.45545,-7.8784 -2.293858,-2.11504 -5.754337,-3.47198 -9.597673,-3.33438 -3.843337,0.13759 -6.859315,1.05539 -9.025684,2.85147 z"
       id="path6267"
       inkscape:connector-curvature="0"
       sodipodi:nodetypes="cccccscccccsccccsccsccccscsscssccccccccsccc" />
    <path
       style="font-size:44.94163513px;font-style:normal;font-variant:normal;font-weight:600;font-stretch:normal;text-align:start;line-height:125%;letter-spacing:0px;word-spacing:0px;writing-mode:lr-tb;text-anchor:start;fill:#2b240a;fill-opacity:1;stroke:none;font-family:LMSansDemiCond10;-inkscape-font-specification:LMSansDemiCond10 Semi-Bold"
       d="m 213.50934,1002.301 c -1.8e-4,0.01 -1.8e-4,0.021 0,0.031 -3.58546,4.5856 -3.53515,10.0376 -3.53515,12.8032 0,2.0354 -0.0167,6.266 1.5642,10.1174 0.78837,1.9158 1.95415,3.7915 3.86641,5.1884 1.90805,1.3967 4.56968,2.3149 7.85237,2.3149 2.99417,0 6.75408,-0.6386 9.53773,-3.4724 l 0.041,0 c 0.006,0 -0.006,-0.03 0,-0.03 2.9774,-3.0332 3.32966,-5.867 3.32966,-9.2195 0,-2.3945 -0.0838,-5.1963 -2.21838,-8.0377 -1.8116,-2.3547 -4.74035,-4.1946 -9.16786,-4.1946 -1.8787,0 -3.43869,0.4789 -4.72778,1.2371 0.16775,-1.0775 0.37741,-2.1552 0.82193,-3.1129 0.47805,-1.0777 1.12387,-1.9159 1.97513,-2.5143 0.8471,-0.5988 1.88291,-0.958 3.45548,-0.958 0.92676,0 1.93321,0.399 2.59157,0.5587 0.0137,2e-4 0.0274,2e-4 0.0411,0 0.41937,0 0.72128,0.3993 0.98548,0.3993 0.1258,0.037 0.2516,0 0.37742,0 0.1258,0.031 0.33547,0 0.33547,0 0.37742,0 0.8429,-0.04 1.2329,-0.3993 0.37741,-0.399 0.63742,-0.5587 0.74226,-0.798 0.20969,-0.5191 0.1258,-0.8381 0.1258,-1.1976 l 0,-1.11731 c 0,-0.39929 0.003,-0.47897 -0.0411,-0.75845 -0.0419,-0.39899 -0.16775,-0.63863 -0.4529,-0.91781 -0.57451,-0.59878 -1.24546,-0.75844 -2.18062,-1.07776 -0.0178,0 -0.0234,0 -0.0411,0 -1.70258,-0.55865 -3.30448,-0.51882 -5.79265,-0.41939 -2.48818,0.0994 -7.54724,1.65586 -10.71837,5.57502 z"
       id="path6263"
       inkscape:connector-curvature="0"
       sodipodi:nodetypes="ccsccscscscscccscccccccsscccccc" />
    <path
       style="font-size:44.94163513px;font-style:normal;font-variant:normal;font-weight:600;font-stretch:normal;text-align:start;line-height:125%;letter-spacing:0px;word-spacing:0px;writing-mode:lr-tb;text-anchor:start;fill:#2b240a;fill-opacity:1;stroke:none;font-family:LMSansDemiCond10;-inkscape-font-specification:LMSansDemiCond10 Semi-Bold"
       d="m 291.71885,996.82541 c -3.92933,0 -7.12772,0.95764 -9.25045,2.71388 -2.12192,1.75591 -3.08226,4.24641 -3.08226,7.07611 0,1.4366 0.33547,3.0332 1.39643,4.5137 0.67097,0.9181 1.77385,1.7164 3.08224,2.3547 -1.52226,0.7584 -2.81804,1.6364 -3.61899,2.7142 -1.2245,1.676 -1.64386,3.5519 -1.64386,5.3796 0,3.5524 1.22868,6.3658 3.57706,8.2897 2.34839,1.9156 5.7246,2.8337 9.53817,2.8337 3.93772,0 7.31558,-0.9979 9.61993,-2.9535 2.30224,-1.9558 3.45127,-4.7533 3.45127,-8.1938 0,-3.5918 -1.84935,-6.4614 -5.18025,-8.1337 1.32095,-0.6784 2.42802,-1.4767 3.08221,-2.3945 1.05679,-1.4768 1.31677,-3.1132 1.31677,-4.4502 0,-2.8736 -0.99386,-5.3518 -3.12416,-7.10802 -2.13031,-1.75593 -5.30103,-2.67405 -9.16787,-2.67405 z"
       id="path6261"
       inkscape:connector-curvature="0" />
    <path
       style="font-size:44.94163513px;font-style:normal;font-variant:normal;font-weight:600;font-stretch:normal;text-align:start;line-height:125%;letter-spacing:0px;word-spacing:0px;writing-mode:lr-tb;text-anchor:start;fill:#2b240a;fill-opacity:1;stroke:none;font-family:LMSansDemiCond10;-inkscape-font-specification:LMSansDemiCond10 Semi-Bold"
       d="m 316.35117,1000.3373 c -3.16611,3.153 -3.24578,6.3458 -3.24578,9.1237 0,2.155 -0.0322,5.0286 2.05483,7.8423 0.0105,0.03 0.0322,0.03 0.0412,0.037 1.58512,2.1552 4.32602,4.4184 9.25006,4.4184 1.64384,0 3.24578,-0.3993 4.6049,-1.0379 0.0837,-0.04 0.1259,0 0.20962,0 -0.1259,1.0777 -0.37744,1.9955 -0.82196,3.0332 -0.97708,2.3948 -2.82223,3.2329 -4.68709,3.2329 -2.17222,0 -2.7719,-0.6785 -3.32964,-1.1975 -0.0279,-6e-4 -0.0557,-6e-4 -0.0836,0 -0.20962,0 -0.42351,-0.3991 -0.74222,-0.4388 -0.33549,0 -0.71712,0 -0.9855,0 -0.75484,0 -1.04836,0.3989 -1.27482,0.3989 -0.20963,0 -0.37744,0.3993 -0.53257,0.479 -0.29366,0.3989 -0.59968,0.7182 -0.86386,1.0775 -0.52841,0.7583 -0.94775,1.4766 -0.94775,1.4766 -0.086,0.15 -0.12932,0.3148 -0.12592,0.4791 0,0.5988 0.16776,0.6386 0.29366,0.7982 0.1259,0 0.29366,0.399 0.49483,0.5188 0.37741,0.399 0.96031,0.7582 1.6858,1.1177 1.45515,0.758 3.63158,1.4366 6.49575,1.4366 5.01503,0 9.25595,-2.1152 11.63491,-4.9329 3.7616,-4.6138 3.78257,-9.9496 3.78257,-13.5096 0,-2.0358 0.0419,-6.242 -1.48029,-10.0536 -0.76744,-1.9156 -1.91647,-3.7515 -3.78259,-5.15652 -1.86611,-1.39678 -4.17759,-2.5716 -7.90466,-2.58986 -3.72707,-0.0183 -7.25144,1.01235 -9.73988,3.44678 z"
       id="path6259"
       inkscape:connector-curvature="0"
       sodipodi:nodetypes="csccscccscccsscccccccscscczc" />
    <path
       style="font-size:44.94163513px;font-style:normal;font-variant:normal;font-weight:600;font-stretch:normal;text-align:start;line-height:125%;letter-spacing:0px;word-spacing:0px;writing-mode:lr-tb;text-anchor:start;fill:#2b240a;fill-opacity:1;stroke:none;font-family:LMSansDemiCond10;-inkscape-font-specification:LMSansDemiCond10 Semi-Bold"
       d="m 248.17296,997.62339 c -0.69194,0.0367 -1.30838,0 -1.93323,0.3993 -0.62483,0.399 -1.14063,0.75815 -1.3587,1.23712 -0.20968,0.51881 -0.2516,0.99779 -0.2516,1.51659 l 0,0.399 c 0,0.559 0.0302,1.0379 0.2516,1.5166 0.2097,0.479 0.70453,0.9978 1.31678,1.2374 1.22031,0.479 2.36932,0.399 4.10963,0.399 l 3.74065,-0.031 6.20763,0 c -6.57835,7.3115 -10.56554,15.8844 -10.56554,24.8802 0,0.6385 -0.0836,1.3969 0.61641,2.1952 0.69616,0.7581 1.97099,1.0376 3.45128,1.0376 l 1.68582,0 c 0.3774,0 1.24546,0 2.18061,-0.3993 0.93516,-0.3989 1.89129,-1.2371 1.89129,-2.3548 0.1259,-9.4946 3.09901,-18.0195 10.52487,-26.8317 l -0.0412,0 c 0.25148,-0.3989 0.52839,-0.5586 0.65838,-0.9579 0.12589,-0.399 0.12589,-0.7183 0.12589,-1.1571 0,-0.559 -0.0419,-1.03798 -0.25148,-1.4768 -0.20961,-0.43914 -0.56192,-0.87797 -1.06932,-1.15745 -1.01065,-0.5188 -1.97936,-0.43913 -2.91871,-0.47896 a 1.4515255,1.1304213 0 0 0 -0.0412,0 l -13.77236,0 -2.13869,0 c -0.9645,0 -1.7319,-0.0367 -2.42381,0 z"
       id="path6257"
       inkscape:connector-curvature="0" />
    <path
       style="font-size:44.94163513px;font-style:normal;font-variant:normal;font-weight:600;font-stretch:normal;text-align:start;line-height:125%;letter-spacing:0px;word-spacing:0px;writing-mode:lr-tb;text-anchor:start;fill:#2b240a;fill-opacity:1;stroke:none;font-family:LMSansDemiCond10;-inkscape-font-specification:LMSansDemiCond10 Semi-Bold"
       d="m 154.49731,998.08644 c -0.78001,0.399 -1.26645,0.83812 -1.64388,1.47676 l -11.63448,18.8258 0,0.03 c -0.41936,0.6785 -0.53258,1.2371 -0.53258,1.9955 l 0,0.8382 c 0,0.798 -4.2e-4,1.5564 0.77999,2.2748 0.77999,0.6785 1.96258,0.878 3.24579,0.878 l 9.99023,0 0,4.5178 c 0,0.7983 -8.5e-4,1.5966 0.77997,2.2751 0.77999,0.6784 1.96257,0.8779 3.2458,0.8779 l 0.98547,0 c 1.16999,0 2.28547,0 3.12417,-0.7183 0.8387,-0.6386 0.94774,-1.5166 0.94774,-2.3948 l 0,-4.5176 0.65837,0 c 0.58292,0 1.48451,0 2.46579,-0.3993 0.98128,-0.4389 1.60194,-1.4366 1.60194,-2.5941 0,-1.1575 -0.54096,-2.1552 -1.52225,-2.6343 -0.98127,-0.4788 -1.92902,-0.3989 -2.54967,-0.3989 l -0.65838,0 0,-17.449 c 0,-0.878 -0.1258,-1.75593 -0.94774,-2.39457 -0.8387,-0.63863 -1.95417,-0.75845 -3.12416,-0.75845 l -3.39655,-0.0648 c -0.35624,-0.0648 -1.03139,-0.10466 -1.81557,0.33423 z"
       id="path6255"
       inkscape:connector-curvature="0"
       sodipodi:nodetypes="ccccsscscscsscscscscscscscc" />
    <path
       style="font-size:44.94163513px;font-style:normal;font-variant:normal;font-weight:600;font-stretch:normal;text-align:start;line-height:125%;letter-spacing:0px;word-spacing:0px;writing-mode:lr-tb;text-anchor:start;fill:#2b240a;fill-opacity:1;stroke:none;font-family:LMSansDemiCond10;-inkscape-font-specification:LMSansDemiCond10 Semi-Bold"
       d="m 182.25462,997.68745 c -1.23709,0 -2.37773,0 -3.20804,0.79799 -0.82612,0.67845 -0.9058,1.55676 -0.9058,2.43466 l 0,13.7371 c 0,0.5589 -0.0838,1.317 0.57451,2.0756 0.64162,0.7581 1.91644,1.1573 3.41353,1.1573 0.64579,0 1.27903,0 1.97514,-0.3992 0.65838,-0.3991 1.15322,-0.6785 1.52225,-1.1974 l 0.0411,0 c 0.0148,-0.03 0.0267,-0.04 0.0411,0 0.65001,-0.7981 1.59774,-2.1551 4.02998,-2.1551 0.53676,0 0.73807,0 1.02741,0.3992 0.29355,0.3991 0.57871,0.7582 0.77999,1.3969 0.41936,1.2771 0.45291,3.0729 0.45291,4.5138 0,1.5167 -0.0838,3.2726 -0.65838,4.4818 -0.57871,1.1972 -1.27065,1.8761 -3.65675,1.8761 -0.53258,0 -4.18094,0 -6.0848,-3.4325 l -0.0411,0.03 c -0.0838,0 -0.20968,-0.4389 -0.49484,-0.6785 -0.33548,-0.3991 -0.92258,-0.4388 -1.4803,-0.4388 -0.68356,0 -1.02741,0.3989 -1.27483,0.3989 -0.2516,0 -0.41937,0.3991 -0.57453,0.5189 -0.33547,0.3992 -0.61225,0.7584 -0.86386,1.1574 -0.50321,0.7982 -0.90579,1.5166 -0.90579,1.5166 a 1.4515255,1.1304213 0 0 0 -0.0838,0.3989 c 0,0.5188 0.1258,0.5989 0.25161,0.8382 0.1258,0.3993 0.33548,0.5188 0.57451,0.7984 0.47808,0.5986 1.17838,1.317 2.13869,1.9954 1.92062,1.3968 4.93283,2.7537 9.00348,2.7537 4.932,0 8.48476,-1.5165 10.48339,-3.1526 3.66512,-3.153 3.74061,-7.2319 3.74061,-8.9319 0,-2.2752 -0.25161,-5.4441 -2.83481,-8.2297 -1.84934,-1.9955 -5.27126,-3.3924 -9.37336,-3.3924 -0.90161,0 -1.75289,0.3991 -2.63351,0.3991 l 0,-5.5397 8.92127,0 c 1.05257,0 2.08837,-0.031 2.96062,-0.6386 0.87227,-0.5985 1.06936,-1.5166 1.06936,-2.4742 0,-0.91814 -0.16776,-1.7961 -1.02742,-2.43474 -0.85548,-0.63863 -1.90805,-0.67847 -3.00256,-0.67847 l -13.89563,0 z"
       id="path6253"
       inkscape:connector-curvature="0" />
    <path
       style="font-size:44.94163513px;font-style:normal;font-variant:normal;font-weight:600;font-stretch:normal;text-align:start;line-height:125%;letter-spacing:0px;word-spacing:0px;writing-mode:lr-tb;text-anchor:start;fill:#ffffff;fill-opacity:1;stroke:none;font-family:LMSansDemiCond10;-inkscape-font-specification:LMSansDemiCond10 Semi-Bold"
       d="m 17.637647,1002.0095 c 0.943541,0 1.425795,0.3993 1.933211,0.7187 0.507416,0.4786 0.930962,1.3168 1.232892,2.4742 0.60387,2.275 0.658383,5.5794 0.658383,9.1274 0,3.6718 -0.04191,7.2438 -0.658383,9.7304 -0.293559,1.2374 -0.746443,2.195 -1.274828,2.7539 -0.528381,0.5587 -0.98967,0.7583 -1.891275,0.7583 -0.901608,0 -1.362893,0 -1.891278,-0.7583 -0.528385,-0.5589 -0.968701,-1.5165 -1.274828,-2.7539 -0.612255,-2.4743 -0.658383,-6.0465 -0.658383,-9.7304 0,-2.7935 -0.0057,-5.7068 0.33548,-8.0377 0.0013,0 -0.0013,-0.031 0,-0.031 0.08388,-0.5191 0.29356,-1.7164 0.863865,-2.674 0.574513,-0.958 1.232895,-1.5568 2.629336,-1.5568 z"
       id="path6251"
       inkscape:connector-curvature="0" />
    <path
       style="font-size:44.94163513px;font-style:normal;font-variant:normal;font-weight:600;font-stretch:normal;text-align:start;line-height:125%;letter-spacing:0px;word-spacing:0px;writing-mode:lr-tb;text-anchor:start;fill:#ffffff;fill-opacity:1;stroke:none;font-family:LMSansDemiCond10;-inkscape-font-specification:LMSansDemiCond10 Semi-Bold"
       d="m 291.71885,1002.4925 c 1.99613,0 2.42804,0.4391 2.83481,1.1574 0.41938,0.7184 0.49484,1.9156 0.49484,3.0332 0,1.0775 -0.0836,2.3149 -0.49484,3.0333 -0.41932,0.7584 -0.85546,1.1972 -2.83481,1.1972 -1.98352,0 -2.45318,-0.4388 -2.87675,-1.1972 -0.42353,-0.7583 -0.49483,-1.9558 -0.49483,-3.0333 0,-1.1574 0.0836,-2.3148 0.49483,-3.0332 0.41936,-0.7183 0.87227,-1.1574 2.87675,-1.1574 z"
       id="path6249"
       inkscape:connector-curvature="0" />
    <path
       style="font-size:44.94163513px;font-style:normal;font-variant:normal;font-weight:600;font-stretch:normal;text-align:start;line-height:125%;letter-spacing:0px;word-spacing:0px;writing-mode:lr-tb;text-anchor:start;fill:#ffffff;fill-opacity:1;stroke:none;font-family:LMSansDemiCond10;-inkscape-font-specification:LMSansDemiCond10 Semi-Bold"
       d="m 326.34137,1002.4925 c 0.56612,0 0.89324,0 1.27482,0.3993 0.37745,0.399 0.76326,0.878 1.06938,1.5963 0.60804,1.4767 0.86387,3.6717 0.86387,5.9545 0,0.3994 -0.0419,2.1154 -0.61645,3.5922 -0.29366,0.7581 -0.68774,1.3968 -1.19098,1.8359 -0.50323,0.4389 -1.0316,0.6785 -1.93321,0.6785 -0.81773,0 -1.23287,0 -1.60192,-0.4391 -0.37742,-0.3991 -0.66678,-0.7582 -0.90578,-1.3969 -0.47388,-1.317 -0.5326,-3.2728 -0.5326,-5.1565 0,-1.836 0.0419,-3.7914 0.57451,-5.1204 0.25148,-0.6386 0.63323,-1.1575 1.06934,-1.4369 0.43615,-0.399 0.95193,-0.479 1.93324,-0.479 z"
       id="path6247"
       inkscape:connector-curvature="0" />
    <path
       style="font-size:44.94163513px;font-style:normal;font-variant:normal;font-weight:600;font-stretch:normal;text-align:start;line-height:125%;letter-spacing:0px;word-spacing:0px;writing-mode:lr-tb;text-anchor:start;fill:#ffffff;fill-opacity:1;stroke:none;font-family:LMSansDemiCond10;-inkscape-font-specification:LMSansDemiCond10 Semi-Bold"
       d="m 155.03323,1009.0219 0,9.2553 -5.46793,0 c 1.14903,-1.8757 3.28772,-5.352 5.46793,-9.2553 z"
       id="path6241"
       inkscape:connector-curvature="0" />
    <path
       style="font-size:44.94163513px;font-style:normal;font-variant:normal;font-weight:600;font-stretch:normal;text-align:start;line-height:125%;letter-spacing:0px;word-spacing:0px;writing-mode:lr-tb;text-anchor:start;fill:#ffffff;fill-opacity:1;stroke:none;font-family:LMSansDemiCond10;-inkscape-font-specification:LMSansDemiCond10 Semi-Bold"
       d="m 225.01928,1013.432 c 0.37741,0.399 0.66676,0.7585 0.90579,1.3968 0.46967,1.317 0.53258,3.3127 0.53258,5.1884 0,1.8359 -0.0419,3.7516 -0.53258,4.9929 -0.2516,0.6386 -0.59128,1.0775 -0.98547,1.3569 -0.37741,0.399 -0.86387,0.4392 -1.76547,0.4392 -0.71709,0 -1.12805,0 -1.56419,-0.5589 -0.43192,-0.3991 -0.81773,-0.9577 -1.11129,-1.7161 -0.58707,-1.5565 -0.73805,-3.6719 -0.73805,-5.3482 0,-2.4343 0.50742,-4.1066 1.19096,-5.0248 0.68774,-0.9177 1.37966,-1.1973 2.33369,-1.1812 0.95402,0.016 1.36499,0.016 1.73403,0.455 z"
       id="path6239"
       inkscape:connector-curvature="0"
       sodipodi:nodetypes="ccsccsccsccc" />
    <path
       style="font-size:44.94163513px;font-style:normal;font-variant:normal;font-weight:600;font-stretch:normal;text-align:start;line-height:125%;letter-spacing:0px;word-spacing:0px;writing-mode:lr-tb;text-anchor:start;fill:#ffffff;fill-opacity:1;stroke:none;font-family:LMSansDemiCond10;-inkscape-font-specification:LMSansDemiCond10 Semi-Bold"
       d="m 291.71885,1016.098 c 0.97708,0 1.51388,0 1.93321,0.4392 0.41936,0.399 0.74647,0.5985 0.98549,1.1173 0.47805,1.0376 0.53257,2.5542 0.53257,3.8314 0,1.357 -0.0836,2.8737 -0.53257,3.8316 -0.25148,0.4789 -0.53258,0.8382 -0.94773,1.0376 -0.41935,0.399 -0.98129,0.399 -1.97515,0.399 -1.98354,0 -2.48256,-0.4791 -2.96062,-1.4768 -0.47806,-0.9576 -0.53258,-2.4741 -0.53258,-3.8311 0,-1.2773 0.0419,-2.7939 0.53258,-3.8315 0.25148,-0.5188 0.56613,-0.8781 0.98546,-1.1177 0.42355,-0.399 0.99808,-0.4387 1.97516,-0.4387 z"
       id="path5479"
       inkscape:connector-curvature="0" />
    <path
       sodipodi:type="inkscape:offset"
       inkscape:radius="1.6096212"
       inkscape:original="M -325 -210 L -325 -190 L -315 -200 L -325 -210 z "
       style="fill:#2b240a;fill-opacity:1;stroke:none"
       id="path7064"
       d="M -325.1875,-211.59375 A 1.6097821,1.6097821 0 0 0 -326.625,-210 l 0,20 a 1.6097821,1.6097821 0 0 0 2.75,1.125 l 10,-10 a 1.6097821,1.6097821 0 0 0 0,-2.25 l -10,-10 a 1.6097821,1.6097821 0 0 0 -1.3125,-0.46875 z"
       transform="matrix(-2.1353549,0,0,2.0322572,-324.16287,1420.7836)" />
    <path
       transform="matrix(2.1353549,0,0,2.0322572,1078.4276,1420.7836)"
       d="M -325.1875,-211.59375 A 1.6097821,1.6097821 0 0 0 -326.625,-210 l 0,20 a 1.6097821,1.6097821 0 0 0 2.75,1.125 l 10,-10 a 1.6097821,1.6097821 0 0 0 0,-2.25 l -10,-10 a 1.6097821,1.6097821 0 0 0 -1.3125,-0.46875 z"
       id="path7096"
       style="fill:#2b240a;fill-opacity:1;stroke:none"
       inkscape:original="M -325 -210 L -325 -190 L -315 -200 L -325 -210 z "
       inkscape:radius="1.6096212"
       sodipodi:type="inkscape:offset" />
  </g>
</svg>
