<?xml version="1.0" encoding="UTF-8" standalone="no"?>
<!-- Created with Inkscape (http://www.inkscape.org/) -->

<svg
   xmlns:dc="http://purl.org/dc/elements/1.1/"
   xmlns:cc="http://creativecommons.org/ns#"
   xmlns:rdf="http://www.w3.org/1999/02/22-rdf-syntax-ns#"
   xmlns:svg="http://www.w3.org/2000/svg"
   xmlns="http://www.w3.org/2000/svg"
   xmlns:sodipodi="http://sodipodi.sourceforge.net/DTD/sodipodi-0.dtd"
   xmlns:inkscape="http://www.inkscape.org/namespaces/inkscape"
   width="400"
   height="300"
   id="svg2"
   version="1.1"
   inkscape:version="0.48.2 r9819"
   sodipodi:docname="stars.svg">
  <defs
     id="defs4" />
  <sodipodi:namedview
     id="base"
     pagecolor="#ffffff"
     bordercolor="#666666"
     borderopacity="1.0"
     inkscape:pageopacity="0.0"
     inkscape:pageshadow="2"
     inkscape:zoom="2.8"
     inkscape:cx="278.61505"
     inkscape:cy="116.13411"
     inkscape:document-units="px"
     inkscape:current-layer="layer1"
     showgrid="true"
     inkscape:window-width="1920"
     inkscape:window-height="1028"
     inkscape:window-x="0"
     inkscape:window-y="0"
     inkscape:window-maximized="1">
    <inkscape:grid
       type="xygrid"
       id="grid3755"
       empspacing="5"
       visible="true"
       enabled="true"
       snapvisiblegridlinesonly="true" />
  </sodipodi:namedview>
  <metadata
     id="metadata7">
    <rdf:RDF>
      <cc:Work
         rdf:about="">
        <dc:format>image/svg+xml</dc:format>
        <dc:type
           rdf:resource="http://purl.org/dc/dcmitype/StillImage" />
        <dc:title />
      </cc:Work>
    </rdf:RDF>
  </metadata>
  <g
     inkscape:label="Layer 1"
     inkscape:groupmode="layer"
     id="layer1"
     transform="translate(0,-752.36218)">
    <g
       id="g3059"
       transform="matrix(0.5,0,0,0.5,0,526.1811)">
      <rect
         ry="0"
         y="452.36218"
         x="0"
         height="600"
         width="800"
         id="rect2985"
         style="fill:#000000;fill-opacity:1;stroke:none" />
      <path
         sodipodi:nodetypes="czczczczc"
         inkscape:connector-curvature="0"
         id="path3759"
         d="m 157.82318,544.96688 c 0,0 0.0587,-4.91672 -0.93386,-5.87494 -0.99258,-0.95822 -5.75468,-0.81361 -5.75468,-0.81361 0,0 4.60748,0.0931 5.7375,-1.07129 1.13002,-1.16439 0.95104,-5.61725 0.95104,-5.61725 0,0 0.13026,4.65902 1.20874,5.70315 1.07848,1.04411 5.47981,0.98539 5.47981,0.98539 0,0 -4.40133,-0.1618 -5.58289,0.96822 -1.18156,1.13002 -1.10566,5.72033 -1.10566,5.72033 z"
         style="fill:#fb9393;fill-opacity:1;stroke:#404040;stroke-width:0.10123199;stroke-miterlimit:4;stroke-opacity:1" />
      <path
         style="fill:#ffffff;fill-opacity:1;stroke:#404040;stroke-width:0.14503527;stroke-miterlimit:4;stroke-opacity:1"
         d="m 93.596373,683.63421 c 0,0 0.0841,-7.04419 -1.33794,-8.41704 -1.42208,-1.37284 -8.24475,-1.16565 -8.24475,-1.16565 0,0 6.60115,0.13336 8.22013,-1.53485 1.61898,-1.66821 1.36256,-8.04784 1.36256,-8.04784 0,0 0.18662,6.67499 1.73176,8.17091 1.54514,1.49591 7.850927,1.41178 7.850927,1.41178 0,0 -6.305787,-0.23181 -7.998607,1.38717 -1.69282,1.61898 -1.58408,8.19552 -1.58408,8.19552 z"
         id="path3775"
         inkscape:connector-curvature="0"
         sodipodi:nodetypes="czczczczc" />
      <path
         sodipodi:nodetypes="czczczczc"
         inkscape:connector-curvature="0"
         id="path3777"
         d="m 238.59637,637.20564 c 0,0 0.0841,-7.04419 -1.33794,-8.41704 -1.42208,-1.37284 -8.24475,-1.16565 -8.24475,-1.16565 0,0 6.60115,0.13336 8.22013,-1.53485 1.61898,-1.66821 1.36256,-8.04784 1.36256,-8.04784 0,0 0.18662,6.67499 1.73176,8.17091 1.54514,1.49591 7.85093,1.41178 7.85093,1.41178 0,0 -6.30579,-0.23181 -7.99861,1.38717 -1.69282,1.61898 -1.58408,8.19552 -1.58408,8.19552 z"
         style="fill:#ffffff;fill-opacity:1;stroke:#404040;stroke-width:0.14503527;stroke-miterlimit:4;stroke-opacity:1" />
      <path
         style="fill:#9be1fa;fill-opacity:1;stroke:#404040;stroke-width:0.14503527;stroke-miterlimit:4;stroke-opacity:1"
         d="m 56.453513,528.63421 c 0,0 0.0841,-7.04419 -1.33794,-8.41704 -1.42208,-1.37284 -8.24475,-1.16565 -8.24475,-1.16565 0,0 6.60115,0.13336 8.22013,-1.53485 1.61898,-1.66821 1.36256,-8.04784 1.36256,-8.04784 0,0 0.18662,6.67499 1.73176,8.17091 1.54514,1.49591 7.85093,1.41178 7.85093,1.41178 0,0 -6.30579,-0.23181 -7.99861,1.38717 -1.69282,1.61898 -1.58408,8.19552 -1.58408,8.19552 z"
         id="path3779"
         inkscape:connector-curvature="0"
         sodipodi:nodetypes="czczczczc" />
      <path
         style="fill:#ffffff;fill-opacity:1;stroke:#404040;stroke-width:0.10123199;stroke-miterlimit:4;stroke-opacity:1"
         d="m 393.08563,515.83923 c 0,0 0.0587,-4.91672 -0.93386,-5.87494 -0.99259,-0.95822 -5.75469,-0.81361 -5.75469,-0.81361 0,0 4.60749,0.0931 5.73751,-1.0713 1.13001,-1.16438 0.95104,-5.61724 0.95104,-5.61724 0,0 0.13026,4.65902 1.20874,5.70315 1.07847,1.04411 5.4798,0.98539 5.4798,0.98539 0,0 -4.40133,-0.1618 -5.58288,0.96822 -1.18156,1.13002 -1.10566,5.72033 -1.10566,5.72033 z"
         id="path3781"
         inkscape:connector-curvature="0"
         sodipodi:nodetypes="czczczczc" />
      <path
         sodipodi:nodetypes="czczczczc"
         inkscape:connector-curvature="0"
         id="path3783"
         d="m 291.93542,657.14254 c 0,0 0.0587,-4.91672 -0.93385,-5.87494 -0.99259,-0.95822 -5.75469,-0.81361 -5.75469,-0.81361 0,0 4.60748,0.0931 5.7375,-1.07129 1.13002,-1.16439 0.95104,-5.61725 0.95104,-5.61725 0,0 0.13026,4.65902 1.20874,5.70315 1.07848,1.04411 5.4798,0.98539 5.4798,0.98539 0,0 -4.40132,-0.1618 -5.58288,0.96822 -1.18156,1.13002 -1.10566,5.72033 -1.10566,5.72033 z"
         style="fill:#ffffff;fill-opacity:1;stroke:#404040;stroke-width:0.10123199;stroke-miterlimit:4;stroke-opacity:1" />
      <path
         style="fill:#ffffff;fill-opacity:1;stroke:#404040;stroke-width:0.14503527;stroke-miterlimit:4;stroke-opacity:1"
         d="m 474.31065,650.06278 c 0,0 0.0841,-7.04419 -1.33794,-8.41704 -1.42208,-1.37284 -8.24475,-1.16565 -8.24475,-1.16565 0,0 6.60115,0.13336 8.22013,-1.53485 1.61898,-1.66821 1.36256,-8.04784 1.36256,-8.04784 0,0 0.18662,6.67499 1.73176,8.17091 1.54514,1.49591 7.85093,1.41178 7.85093,1.41178 0,0 -6.30579,-0.23181 -7.99861,1.38717 -1.69282,1.61898 -1.58408,8.19552 -1.58408,8.19552 z"
         id="path3785"
         inkscape:connector-curvature="0"
         sodipodi:nodetypes="czczczczc" />
      <path
         sodipodi:nodetypes="czczczczc"
         inkscape:connector-curvature="0"
         id="path3787"
         d="m 315.73923,556.49135 c 0,0 0.0841,-7.04419 -1.33794,-8.41704 -1.42208,-1.37284 -8.24475,-1.16565 -8.24475,-1.16565 0,0 6.60115,0.13336 8.22013,-1.53485 1.61898,-1.66821 1.36256,-8.04784 1.36256,-8.04784 0,0 0.18662,6.67499 1.73176,8.17091 1.54514,1.49591 7.85093,1.41178 7.85093,1.41178 0,0 -6.30579,-0.23181 -7.99861,1.38717 -1.69282,1.61898 -1.58408,8.19552 -1.58408,8.19552 z"
         style="fill:#fb9393;fill-opacity:1;stroke:#404040;stroke-width:0.14503527;stroke-miterlimit:4;stroke-opacity:1" />
      <path
         sodipodi:nodetypes="czczczczc"
         inkscape:connector-curvature="0"
         id="path3789"
         d="m 291.45351,770.06278 c 0,0 0.0841,-7.04419 -1.33794,-8.41704 -1.42208,-1.37284 -8.24475,-1.16565 -8.24475,-1.16565 0,0 6.60115,0.13336 8.22013,-1.53485 1.61898,-1.66821 1.36256,-8.04784 1.36256,-8.04784 0,0 0.18662,6.67499 1.73176,8.17091 1.54514,1.49591 7.85093,1.41178 7.85093,1.41178 0,0 -6.30579,-0.23181 -7.99861,1.38717 -1.69282,1.61898 -1.58408,8.19552 -1.58408,8.19552 z"
         style="fill:#fb9393;fill-opacity:1;stroke:#404040;stroke-width:0.14503527;stroke-miterlimit:4;stroke-opacity:1" />
      <path
         style="fill:#ffffff;fill-opacity:1;stroke:#404040;stroke-width:0.14503527;stroke-miterlimit:4;stroke-opacity:1"
         d="m 224.31066,902.91992 c 0,0 0.0841,-7.04419 -1.33794,-8.41704 -1.42208,-1.37284 -8.24475,-1.16565 -8.24475,-1.16565 0,0 6.60115,0.13336 8.22013,-1.53485 1.61898,-1.66821 1.36256,-8.04784 1.36256,-8.04784 0,0 0.18662,6.67499 1.73176,8.17091 1.54514,1.49591 7.85092,1.41178 7.85092,1.41178 0,0 -6.30578,-0.23181 -7.9986,1.38717 -1.69282,1.61898 -1.58408,8.19552 -1.58408,8.19552 z"
         id="path3791"
         inkscape:connector-curvature="0"
         sodipodi:nodetypes="czczczczc" />
      <path
         sodipodi:nodetypes="czczczczc"
         inkscape:connector-curvature="0"
         id="path3793"
         d="m 369.31065,856.49135 c 0,0 0.0841,-7.04419 -1.33794,-8.41704 -1.42208,-1.37284 -8.24475,-1.16565 -8.24475,-1.16565 0,0 6.60115,0.13336 8.22013,-1.53485 1.61898,-1.66821 1.36256,-8.04784 1.36256,-8.04784 0,0 0.18662,6.67499 1.73176,8.17091 1.54514,1.49591 7.85093,1.41178 7.85093,1.41178 0,0 -6.30579,-0.23181 -7.99861,1.38717 -1.69282,1.61898 -1.58408,8.19552 -1.58408,8.19552 z"
         style="fill:#ffffff;fill-opacity:1;stroke:#404040;stroke-width:0.14503527;stroke-miterlimit:4;stroke-opacity:1" />
      <path
         style="fill:#bcfbc2;fill-opacity:1;stroke:#404040;stroke-width:0.10123199;stroke-miterlimit:4;stroke-opacity:1"
         d="m 176.26985,682.56902 c 0,0 0.0587,-4.91672 -0.93386,-5.87494 -0.99259,-0.95822 -5.75469,-0.8136 -5.75469,-0.8136 0,0 4.60749,0.0931 5.7375,-1.0713 1.13002,-1.16438 0.95105,-5.61725 0.95105,-5.61725 0,0 0.13025,4.65902 1.20873,5.70315 1.07848,1.04412 5.47981,0.9854 5.47981,0.9854 0,0 -4.40133,-0.1618 -5.58288,0.96822 -1.18156,1.13001 -1.10566,5.72032 -1.10566,5.72032 z"
         id="path3795"
         inkscape:connector-curvature="0"
         sodipodi:nodetypes="czczczczc" />
      <path
         style="fill:#ffffff;fill-opacity:1;stroke:#404040;stroke-width:0.14503527;stroke-miterlimit:4;stroke-opacity:1"
         d="m 589.31065,763.63421 c 0,0 0.0841,-7.04419 -1.33794,-8.41704 -1.42208,-1.37284 -8.24475,-1.16565 -8.24475,-1.16565 0,0 6.60115,0.13336 8.22013,-1.53485 1.61898,-1.66821 1.36256,-8.04784 1.36256,-8.04784 0,0 0.18662,6.67499 1.73176,8.17091 1.54514,1.49591 7.85093,1.41178 7.85093,1.41178 0,0 -6.30579,-0.23181 -7.99861,1.38717 -1.69282,1.61898 -1.58408,8.19552 -1.58408,8.19552 z"
         id="path3797"
         inkscape:connector-curvature="0"
         sodipodi:nodetypes="czczczczc" />
      <path
         sodipodi:nodetypes="czczczczc"
         inkscape:connector-curvature="0"
         id="path3799"
         d="m 522.1678,896.49135 c 0,0 0.0841,-7.04419 -1.33794,-8.41704 -1.42208,-1.37284 -8.24475,-1.16565 -8.24475,-1.16565 0,0 6.60115,0.13336 8.22013,-1.53485 1.61898,-1.66821 1.36256,-8.04784 1.36256,-8.04784 0,0 0.18662,6.67499 1.73176,8.17091 1.54514,1.49591 7.85092,1.41178 7.85092,1.41178 0,0 -6.30578,-0.23181 -7.9986,1.38717 -1.69282,1.61898 -1.58408,8.19552 -1.58408,8.19552 z"
         style="fill:#ffffff;fill-opacity:1;stroke:#404040;stroke-width:0.14503527;stroke-miterlimit:4;stroke-opacity:1" />
      <path
         style="fill:#bcfbc2;fill-opacity:1;stroke:#404040;stroke-width:0.14503527;stroke-miterlimit:4;stroke-opacity:1"
         d="m 667.16779,850.06278 c 0,0 0.0841,-7.04419 -1.33794,-8.41704 -1.42208,-1.37284 -8.24475,-1.16565 -8.24475,-1.16565 0,0 6.60115,0.13336 8.22013,-1.53485 1.61898,-1.66821 1.36256,-8.04784 1.36256,-8.04784 0,0 0.18662,6.67499 1.73176,8.17091 1.54514,1.49591 7.85093,1.41178 7.85093,1.41178 0,0 -6.30579,-0.23181 -7.99861,1.38717 -1.69282,1.61898 -1.58408,8.19552 -1.58408,8.19552 z"
         id="path3801"
         inkscape:connector-curvature="0"
         sodipodi:nodetypes="czczczczc" />
      <path
         sodipodi:nodetypes="czczczczc"
         inkscape:connector-curvature="0"
         id="path3803"
         d="m 485.02494,741.49135 c 0,0 0.0841,-7.04419 -1.33794,-8.41704 -1.42208,-1.37284 -8.24475,-1.16565 -8.24475,-1.16565 0,0 6.60115,0.13336 8.22013,-1.53485 1.61898,-1.66821 1.36256,-8.04784 1.36256,-8.04784 0,0 0.18662,6.67499 1.73176,8.17091 1.54514,1.49591 7.85093,1.41178 7.85093,1.41178 0,0 -6.30579,-0.23181 -7.99861,1.38717 -1.69282,1.61898 -1.58408,8.19552 -1.58408,8.19552 z"
         style="fill:#ffffff;fill-opacity:1;stroke:#404040;stroke-width:0.14503527;stroke-miterlimit:4;stroke-opacity:1" />
      <path
         sodipodi:nodetypes="czczczczc"
         inkscape:connector-curvature="0"
         id="path3805"
         d="m 665.02494,514.3485 c 0,0 0.0841,-7.04419 -1.33794,-8.41704 -1.42208,-1.37284 -8.24475,-1.16565 -8.24475,-1.16565 0,0 6.60115,0.13336 8.22013,-1.53485 1.61898,-1.66821 1.36256,-8.04784 1.36256,-8.04784 0,0 0.18662,6.67499 1.73176,8.17091 1.54514,1.49591 7.85093,1.41178 7.85093,1.41178 0,0 -6.30579,-0.23181 -7.99861,1.38717 -1.69282,1.61898 -1.58408,8.19552 -1.58408,8.19552 z"
         style="fill:#9be1fa;fill-opacity:1;stroke:#404040;stroke-width:0.14503527;stroke-miterlimit:4;stroke-opacity:1" />
      <path
         style="fill:#bcfbc2;fill-opacity:1;stroke:#404040;stroke-width:0.10123199;stroke-miterlimit:4;stroke-opacity:1"
         d="m 462.94099,612.27227 c 0,0 0.0587,-4.91671 -0.93386,-5.87494 -0.99258,-0.95821 -5.75468,-0.8136 -5.75468,-0.8136 0,0 4.60748,0.0931 5.7375,-1.0713 1.13002,-1.16438 0.95104,-5.61724 0.95104,-5.61724 0,0 0.13026,4.65902 1.20874,5.70314 1.07848,1.04412 5.4798,0.9854 5.4798,0.9854 0,0 -4.40132,-0.1618 -5.58288,0.96822 -1.18156,1.13002 -1.10566,5.72032 -1.10566,5.72032 z"
         id="path3807"
         inkscape:connector-curvature="0"
         sodipodi:nodetypes="czczczczc" />
      <path
         sodipodi:nodetypes="czczczczc"
         inkscape:connector-curvature="0"
         id="path3809"
         d="m 742.88208,600.77707 c 0,0 0.0841,-7.04419 -1.33794,-8.41704 -1.42208,-1.37284 -8.24475,-1.16565 -8.24475,-1.16565 0,0 6.60115,0.13336 8.22013,-1.53485 1.61898,-1.66821 1.36256,-8.04784 1.36256,-8.04784 0,0 0.18662,6.67499 1.73176,8.17091 1.54514,1.49591 7.85093,1.41178 7.85093,1.41178 0,0 -6.30579,-0.23181 -7.99861,1.38717 -1.69282,1.61898 -1.58408,8.19552 -1.58408,8.19552 z"
         style="fill:#ffffff;fill-opacity:1;stroke:#404040;stroke-width:0.14503527;stroke-miterlimit:4;stroke-opacity:1" />
      <path
         style="fill:#ffffff;fill-opacity:1;stroke:#404040;stroke-width:0.14503527;stroke-miterlimit:4;stroke-opacity:1"
         d="m 560.73923,492.20564 c 0,0 0.0841,-7.04419 -1.33794,-8.41704 -1.42208,-1.37284 -8.24475,-1.16565 -8.24475,-1.16565 0,0 6.60115,0.13336 8.22013,-1.53485 1.61898,-1.66821 1.36256,-8.04784 1.36256,-8.04784 0,0 0.18662,6.67499 1.73176,8.17091 1.54514,1.49591 7.85093,1.41178 7.85093,1.41178 0,0 -6.30579,-0.23181 -7.99861,1.38717 -1.69282,1.61898 -1.58408,8.19552 -1.58408,8.19552 z"
         id="path3811"
         inkscape:connector-curvature="0"
         sodipodi:nodetypes="czczczczc" />
      <path
         sodipodi:nodetypes="czczczczc"
         inkscape:connector-curvature="0"
         id="path3813"
         d="m 433.59637,1014.3485 c 0,0 0.0841,-7.0442 -1.33794,-8.417 -1.42208,-1.3729 -8.24475,-1.1657 -8.24475,-1.1657 0,0 6.60115,0.1334 8.22013,-1.5348 1.61898,-1.6683 1.36256,-8.04789 1.36256,-8.04789 0,0 0.18662,6.67499 1.73176,8.17089 1.54514,1.4959 7.85092,1.4118 7.85092,1.4118 0,0 -6.30578,-0.2318 -7.9986,1.3872 -1.69282,1.619 -1.58408,8.1955 -1.58408,8.1955 z"
         style="fill:#ffffff;fill-opacity:1;stroke:#404040;stroke-width:0.14503527;stroke-miterlimit:4;stroke-opacity:1" />
      <path
         style="fill:#9be1fa;fill-opacity:1;stroke:#404040;stroke-width:0.10123199;stroke-miterlimit:4;stroke-opacity:1"
         d="m 449.4799,836.12504 c 0,0 0.0587,-4.91672 -0.93386,-5.87494 -0.99258,-0.95822 -5.75468,-0.8136 -5.75468,-0.8136 0,0 4.60748,0.0931 5.7375,-1.0713 1.13002,-1.16438 0.95104,-5.61725 0.95104,-5.61725 0,0 0.13026,4.65902 1.20874,5.70315 1.07848,1.04412 5.4798,0.9854 5.4798,0.9854 0,0 -4.40132,-0.1618 -5.58288,0.96822 -1.18156,1.13001 -1.10566,5.72032 -1.10566,5.72032 z"
         id="path3815"
         inkscape:connector-curvature="0"
         sodipodi:nodetypes="czczczczc" />
      <path
         style="fill:#ffffff;fill-opacity:1;stroke:#404040;stroke-width:0.14503527;stroke-miterlimit:4;stroke-opacity:1"
         d="m 731.45351,1007.9199 c 0,0 0.0841,-7.0442 -1.33794,-8.41702 -1.42208,-1.37284 -8.24475,-1.16565 -8.24475,-1.16565 0,0 6.60115,0.13336 8.22013,-1.53485 1.61898,-1.66821 1.36256,-8.04784 1.36256,-8.04784 0,0 0.18662,6.67499 1.73176,8.17091 1.54514,1.49591 7.85092,1.41178 7.85092,1.41178 0,0 -6.30578,-0.23181 -7.9986,1.38717 -1.69282,1.619 -1.58408,8.1955 -1.58408,8.1955 z"
         id="path3817"
         inkscape:connector-curvature="0"
         sodipodi:nodetypes="czczczczc" />
      <path
         sodipodi:nodetypes="czczczczc"
         inkscape:connector-curvature="0"
         id="path3819"
         d="m 69.310659,949.3485 c 0,0 0.0841,-7.04419 -1.33794,-8.41704 -1.42208,-1.37284 -8.24475,-1.16565 -8.24475,-1.16565 0,0 6.60115,0.13336 8.22013,-1.53485 1.61898,-1.66821 1.36256,-8.04784 1.36256,-8.04784 0,0 0.18662,6.67499 1.73176,8.17091 1.54514,1.49591 7.850927,1.41178 7.850927,1.41178 0,0 -6.305787,-0.23181 -7.998607,1.38717 -1.69282,1.61898 -1.58408,8.19552 -1.58408,8.19552 z"
         style="fill:#9be1fa;fill-opacity:1;stroke:#404040;stroke-width:0.14503527;stroke-miterlimit:4;stroke-opacity:1" />
      <path
         sodipodi:nodetypes="czczczczc"
         inkscape:connector-curvature="0"
         id="path3821"
         d="m 162.88209,1013.6342 c 0,0 0.0841,-7.0442 -1.33794,-8.417 -1.42208,-1.3729 -8.24475,-1.1657 -8.24475,-1.1657 0,0 6.60115,0.1334 8.22013,-1.5348 1.61898,-1.6682 1.36256,-8.04787 1.36256,-8.04787 0,0 0.18662,6.67497 1.73176,8.17087 1.54514,1.4959 7.85093,1.4118 7.85093,1.4118 0,0 -6.30579,-0.2318 -7.99861,1.3872 -1.69282,1.619 -1.58408,8.1955 -1.58408,8.1955 z"
         style="fill:#ffffff;fill-opacity:1;stroke:#404040;stroke-width:0.14503527;stroke-miterlimit:4;stroke-opacity:1" />
      <path
         sodipodi:nodetypes="czczczczc"
         inkscape:connector-curvature="0"
         id="path3823"
         d="m 71.453516,807.20564 c 0,0 0.0841,-7.04419 -1.33794,-8.41704 -1.42208,-1.37284 -8.24475,-1.16565 -8.24475,-1.16565 0,0 6.60115,0.13336 8.22013,-1.53485 1.61898,-1.66821 1.36256,-8.04784 1.36256,-8.04784 0,0 0.18662,6.67499 1.73176,8.17091 1.54514,1.49591 7.850927,1.41178 7.850927,1.41178 0,0 -6.305787,-0.23181 -7.998607,1.38717 -1.69282,1.61898 -1.58408,8.19552 -1.58408,8.19552 z"
         style="fill:#fb9393;fill-opacity:1;stroke:#404040;stroke-width:0.14503527;stroke-miterlimit:4;stroke-opacity:1" />
      <path
         style="fill:#9be1fa;fill-opacity:1;stroke:#404040;stroke-width:0.14503527;stroke-miterlimit:4;stroke-opacity:1"
         d="m 729.31065,725.77707 c 0,0 0.0841,-7.04419 -1.33794,-8.41704 -1.42208,-1.37284 -8.24475,-1.16565 -8.24475,-1.16565 0,0 6.60115,0.13336 8.22013,-1.53485 1.61898,-1.66821 1.36256,-8.04784 1.36256,-8.04784 0,0 0.18662,6.67499 1.73176,8.17091 1.54514,1.49591 7.85093,1.41178 7.85093,1.41178 0,0 -6.30579,-0.23181 -7.99861,1.38717 -1.69282,1.61898 -1.58408,8.19552 -1.58408,8.19552 z"
         id="path3825"
         inkscape:connector-curvature="0"
         sodipodi:nodetypes="czczczczc" />
      <path
         style="fill:#ffffff;fill-opacity:1;stroke:#404040;stroke-width:0.10123199;stroke-miterlimit:4;stroke-opacity:1"
         d="m 380.68032,956.39545 c 0,0 0.0587,-4.91672 -0.93386,-5.87494 -0.99258,-0.95822 -5.75468,-0.81361 -5.75468,-0.81361 0,0 4.60748,0.0931 5.7375,-1.07129 1.13002,-1.16439 0.95104,-5.61725 0.95104,-5.61725 0,0 0.13026,4.65902 1.20874,5.70315 1.07848,1.04411 5.47981,0.98539 5.47981,0.98539 0,0 -4.40133,-0.1618 -5.58289,0.96822 -1.18156,1.13002 -1.10566,5.72033 -1.10566,5.72033 z"
         id="path3833"
         inkscape:connector-curvature="0"
         sodipodi:nodetypes="czczczczc" />
      <path
         sodipodi:nodetypes="czczczczc"
         inkscape:connector-curvature="0"
         id="path3835"
         d="m 685.79813,1023.7008 c 0,0 0.0587,-4.9167 -0.93386,-5.8749 -0.99258,-0.9582 -5.75468,-0.8136 -5.75468,-0.8136 0,0 4.60748,0.093 5.7375,-1.0713 1.13002,-1.1644 0.95104,-5.6172 0.95104,-5.6172 0,0 0.13026,4.659 1.20874,5.7031 1.07848,1.0441 5.4798,0.9854 5.4798,0.9854 0,0 -4.40132,-0.1618 -5.58288,0.9682 -1.18156,1.13 -1.10566,5.7203 -1.10566,5.7203 z"
         style="fill:#9be1fa;fill-opacity:1;stroke:#404040;stroke-width:0.10123199;stroke-miterlimit:4;stroke-opacity:1" />
      <path
         sodipodi:nodetypes="czczczczc"
         inkscape:connector-curvature="0"
         id="path3837"
         d="m 632.94099,585.12941 c 0,0 0.0587,-4.91671 -0.93386,-5.87494 -0.99258,-0.95821 -5.75468,-0.8136 -5.75468,-0.8136 0,0 4.60748,0.0931 5.7375,-1.0713 1.13002,-1.16438 0.95104,-5.61724 0.95104,-5.61724 0,0 0.13026,4.65902 1.20874,5.70314 1.07848,1.04412 5.4798,0.9854 5.4798,0.9854 0,0 -4.40132,-0.1618 -5.58288,0.96822 -1.18156,1.13002 -1.10566,5.72032 -1.10566,5.72032 z"
         style="fill:#fb9393;fill-opacity:1;stroke:#404040;stroke-width:0.10123199;stroke-miterlimit:4;stroke-opacity:1" />
      <path
         sodipodi:nodetypes="czczczczc"
         inkscape:connector-curvature="0"
         id="path3839"
         d="m 175.94277,800.12494 c 0,0 0.0587,-4.91672 -0.93386,-5.87494 -0.99259,-0.95822 -5.75469,-0.81361 -5.75469,-0.81361 0,0 4.60749,0.0931 5.73751,-1.0713 1.13001,-1.16438 0.95104,-5.61724 0.95104,-5.61724 0,0 0.13026,4.65902 1.20874,5.70315 1.07847,1.04411 5.4798,0.98539 5.4798,0.98539 0,0 -4.40133,-0.1618 -5.58288,0.96822 -1.18156,1.13002 -1.10566,5.72033 -1.10566,5.72033 z"
         style="fill:#ffffff;fill-opacity:1;stroke:#404040;stroke-width:0.10123199;stroke-miterlimit:4;stroke-opacity:1" />
      <path
         sodipodi:nodetypes="czczczczc"
         inkscape:connector-curvature="0"
         id="path3841"
         d="m 389.83704,730.44712 c 0,0 0.0245,-2.05558 -0.39043,-2.45619 -0.41498,-0.40061 -2.40591,-0.34015 -2.40591,-0.34015 0,0 1.92629,0.0389 2.39873,-0.44789 0.47244,-0.4868 0.39761,-2.34845 0.39761,-2.34845 0,0 0.0545,1.94784 0.50535,2.38437 0.45089,0.43652 2.29099,0.41197 2.29099,0.41197 0,0 -1.8401,-0.0676 -2.33409,0.40479 -0.49398,0.47244 -0.46225,2.39155 -0.46225,2.39155 z"
         style="fill:#ffffff;fill-opacity:1;stroke:#404040;stroke-width:0.04232298;stroke-miterlimit:4;stroke-opacity:1" />
      <path
         style="fill:#fb9393;fill-opacity:1;stroke:#404040;stroke-width:0.04232298;stroke-miterlimit:4;stroke-opacity:1"
         d="m 560.55133,660.44712 c 0,0 0.0245,-2.05558 -0.39043,-2.45619 -0.41498,-0.40061 -2.40591,-0.34015 -2.40591,-0.34015 0,0 1.92629,0.0389 2.39873,-0.44789 0.47244,-0.4868 0.39761,-2.34845 0.39761,-2.34845 0,0 0.0545,1.94784 0.50535,2.38437 0.45089,0.43652 2.29099,0.41197 2.29099,0.41197 0,0 -1.8401,-0.0676 -2.33409,0.40479 -0.49398,0.47244 -0.46225,2.39155 -0.46225,2.39155 z"
         id="path3843"
         inkscape:connector-curvature="0"
         sodipodi:nodetypes="czczczczc" />
      <path
         style="fill:#fb9393;fill-opacity:1;stroke:#404040;stroke-width:0.04232298;stroke-miterlimit:4;stroke-opacity:1"
         d="m 68.408468,578.30426 c 0,0 0.0245,-2.05558 -0.39043,-2.45619 -0.41498,-0.40061 -2.40591,-0.34015 -2.40591,-0.34015 0,0 1.92629,0.0389 2.39873,-0.44789 0.47244,-0.4868 0.39761,-2.34845 0.39761,-2.34845 0,0 0.0545,1.94784 0.50535,2.38437 0.45089,0.43652 2.29099,0.41197 2.29099,0.41197 0,0 -1.8401,-0.0676 -2.33409,0.40479 -0.49398,0.47244 -0.46225,2.39155 -0.46225,2.39155 z"
         id="path3845"
         inkscape:connector-curvature="0"
         sodipodi:nodetypes="czczczczc" />
      <path
         sodipodi:nodetypes="czczczczc"
         inkscape:connector-curvature="0"
         id="path3847"
         d="m 239.12276,508.30426 c 0,0 0.0245,-2.05558 -0.39043,-2.45619 -0.41498,-0.40061 -2.40591,-0.34015 -2.40591,-0.34015 0,0 1.92629,0.0389 2.39873,-0.44789 0.47244,-0.4868 0.39761,-2.34845 0.39761,-2.34845 0,0 0.0545,1.94784 0.50535,2.38437 0.45089,0.43652 2.29099,0.41197 2.29099,0.41197 0,0 -1.8401,-0.0676 -2.33409,0.40479 -0.49398,0.47244 -0.46225,2.39155 -0.46225,2.39155 z"
         style="fill:#ffffff;fill-opacity:1;stroke:#404040;stroke-width:0.04232298;stroke-miterlimit:4;stroke-opacity:1" />
      <path
         sodipodi:nodetypes="czczczczc"
         inkscape:connector-curvature="0"
         id="path3849"
         d="m 106.9799,1024.0185 c 0,0 0.0245,-2.0555 -0.39043,-2.4561 -0.41498,-0.4007 -2.40591,-0.3402 -2.40591,-0.3402 0,0 1.92629,0.039 2.39873,-0.4479 0.47244,-0.4868 0.39761,-2.3484 0.39761,-2.3484 0,0 0.0545,1.9478 0.50535,2.3843 0.45089,0.4366 2.29099,0.412 2.29099,0.412 0,0 -1.8401,-0.068 -2.33409,0.4048 -0.49398,0.4724 -0.46225,2.3915 -0.46225,2.3915 z"
         style="fill:#ffffff;fill-opacity:1;stroke:#404040;stroke-width:0.04232298;stroke-miterlimit:4;stroke-opacity:1" />
      <path
         style="fill:#bcfbc2;fill-opacity:1;stroke:#404040;stroke-width:0.04232298;stroke-miterlimit:4;stroke-opacity:1"
         d="m 277.69419,954.01855 c 0,0 0.0245,-2.05558 -0.39043,-2.45619 -0.41498,-0.40061 -2.40591,-0.34015 -2.40591,-0.34015 0,0 1.92629,0.0389 2.39873,-0.44789 0.47244,-0.4868 0.39761,-2.34845 0.39761,-2.34845 0,0 0.0545,1.94784 0.50535,2.38437 0.45089,0.43652 2.29099,0.41197 2.29099,0.41197 0,0 -1.8401,-0.0676 -2.33409,0.40479 -0.49398,0.47244 -0.46225,2.39155 -0.46225,2.39155 z"
         id="path3851"
         inkscape:connector-curvature="0"
         sodipodi:nodetypes="czczczczc" />
    </g>
    <rect
       ry="0"
       y="-353.35211"
       x="0"
       height="600"
       width="800"
       id="rect3853"
       style="fill:#000000;fill-opacity:1;stroke:none" />
    <path
       sodipodi:nodetypes="czczczczc"
       inkscape:connector-curvature="0"
       id="path3855"
       d="m 157.82318,-260.74741 c 0,0 0.0587,-4.91672 -0.93386,-5.87494 -0.99258,-0.95822 -5.75468,-0.81361 -5.75468,-0.81361 0,0 4.60748,0.0931 5.7375,-1.07129 1.13002,-1.16439 0.95104,-5.61725 0.95104,-5.61725 0,0 0.13026,4.65902 1.20874,5.70315 1.07848,1.04411 5.47981,0.98539 5.47981,0.98539 0,0 -4.40133,-0.1618 -5.58289,0.96822 -1.18156,1.13002 -1.10566,5.72033 -1.10566,5.72033 z"
       style="fill:#ffffff;fill-opacity:1;stroke:#404040;stroke-width:0.10123199;stroke-miterlimit:4;stroke-opacity:1" />
    <path
       style="fill:#ffffff;fill-opacity:1;stroke:#404040;stroke-width:0.14503527;stroke-miterlimit:4;stroke-opacity:1"
       d="m 93.596373,-122.08008 c 0,0 0.0841,-7.04419 -1.33794,-8.41704 -1.42208,-1.37284 -8.24475,-1.16565 -8.24475,-1.16565 0,0 6.60115,0.13336 8.22013,-1.53485 1.61898,-1.66821 1.36256,-8.04784 1.36256,-8.04784 0,0 0.18662,6.67499 1.73176,8.17091 1.54514,1.49591 7.850927,1.41178 7.850927,1.41178 0,0 -6.305787,-0.23181 -7.998607,1.38717 -1.69282,1.61898 -1.58408,8.19552 -1.58408,8.19552 z"
       id="path3857"
       inkscape:connector-curvature="0"
       sodipodi:nodetypes="czczczczc" />
    <path
       sodipodi:nodetypes="czczczczc"
       inkscape:connector-curvature="0"
       id="path3859"
       d="m 238.59637,-168.50865 c 0,0 0.0841,-7.04419 -1.33794,-8.41704 -1.42208,-1.37284 -8.24475,-1.16565 -8.24475,-1.16565 0,0 6.60115,0.13336 8.22013,-1.53485 1.61898,-1.66821 1.36256,-8.04784 1.36256,-8.04784 0,0 0.18662,6.67499 1.73176,8.17091 1.54514,1.49591 7.85093,1.41178 7.85093,1.41178 0,0 -6.30579,-0.23181 -7.99861,1.38717 -1.69282,1.61898 -1.58408,8.19552 -1.58408,8.19552 z"
       style="fill:#ffffff;fill-opacity:1;stroke:#404040;stroke-width:0.14503527;stroke-miterlimit:4;stroke-opacity:1" />
    <path
       style="fill:#ffffff;fill-opacity:1;stroke:#404040;stroke-width:0.14503527;stroke-miterlimit:4;stroke-opacity:1"
       d="m 56.453513,-277.08008 c 0,0 0.0841,-7.04419 -1.33794,-8.41704 -1.42208,-1.37284 -8.24475,-1.16565 -8.24475,-1.16565 0,0 6.60115,0.13336 8.22013,-1.53485 1.61898,-1.66821 1.36256,-8.04784 1.36256,-8.04784 0,0 0.18662,6.67499 1.73176,8.17091 1.54514,1.49591 7.85093,1.41178 7.85093,1.41178 0,0 -6.30579,-0.23181 -7.99861,1.38717 -1.69282,1.61898 -1.58408,8.19552 -1.58408,8.19552 z"
       id="path3861"
       inkscape:connector-curvature="0"
       sodipodi:nodetypes="czczczczc" />
    <path
       style="fill:#ffffff;fill-opacity:1;stroke:#404040;stroke-width:0.10123199;stroke-miterlimit:4;stroke-opacity:1"
       d="m 393.08563,-289.87506 c 0,0 0.0587,-4.91672 -0.93386,-5.87494 -0.99259,-0.95822 -5.75469,-0.81361 -5.75469,-0.81361 0,0 4.60749,0.0931 5.73751,-1.0713 1.13001,-1.16438 0.95104,-5.61724 0.95104,-5.61724 0,0 0.13026,4.65902 1.20874,5.70315 1.07847,1.04411 5.4798,0.98539 5.4798,0.98539 0,0 -4.40133,-0.1618 -5.58288,0.96822 -1.18156,1.13002 -1.10566,5.72033 -1.10566,5.72033 z"
       id="path3863"
       inkscape:connector-curvature="0"
       sodipodi:nodetypes="czczczczc" />
    <path
       sodipodi:nodetypes="czczczczc"
       inkscape:connector-curvature="0"
       id="path3865"
       d="m 291.93542,-148.57175 c 0,0 0.0587,-4.91672 -0.93385,-5.87494 -0.99259,-0.95822 -5.75469,-0.81361 -5.75469,-0.81361 0,0 4.60748,0.0931 5.7375,-1.07129 1.13002,-1.16439 0.95104,-5.61725 0.95104,-5.61725 0,0 0.13026,4.65902 1.20874,5.70315 1.07848,1.04411 5.4798,0.98539 5.4798,0.98539 0,0 -4.40132,-0.1618 -5.58288,0.96822 -1.18156,1.13002 -1.10566,5.72033 -1.10566,5.72033 z"
       style="fill:#ffffff;fill-opacity:1;stroke:#404040;stroke-width:0.10123199;stroke-miterlimit:4;stroke-opacity:1" />
    <path
       style="fill:#ffffff;fill-opacity:1;stroke:#404040;stroke-width:0.14503527;stroke-miterlimit:4;stroke-opacity:1"
       d="m 474.31065,-155.65151 c 0,0 0.0841,-7.04419 -1.33794,-8.41704 -1.42208,-1.37284 -8.24475,-1.16565 -8.24475,-1.16565 0,0 6.60115,0.13336 8.22013,-1.53485 1.61898,-1.66821 1.36256,-8.04784 1.36256,-8.04784 0,0 0.18662,6.67499 1.73176,8.17091 1.54514,1.49591 7.85093,1.41178 7.85093,1.41178 0,0 -6.30579,-0.23181 -7.99861,1.38717 -1.69282,1.61898 -1.58408,8.19552 -1.58408,8.19552 z"
       id="path3867"
       inkscape:connector-curvature="0"
       sodipodi:nodetypes="czczczczc" />
    <path
       sodipodi:nodetypes="czczczczc"
       inkscape:connector-curvature="0"
       id="path3869"
       d="m 315.73923,-249.22294 c 0,0 0.0841,-7.04419 -1.33794,-8.41704 -1.42208,-1.37284 -8.24475,-1.16565 -8.24475,-1.16565 0,0 6.60115,0.13336 8.22013,-1.53485 1.61898,-1.66821 1.36256,-8.04784 1.36256,-8.04784 0,0 0.18662,6.67499 1.73176,8.17091 1.54514,1.49591 7.85093,1.41178 7.85093,1.41178 0,0 -6.30579,-0.23181 -7.99861,1.38717 -1.69282,1.61898 -1.58408,8.19552 -1.58408,8.19552 z"
       style="fill:#ffffff;fill-opacity:1;stroke:#404040;stroke-width:0.14503527;stroke-miterlimit:4;stroke-opacity:1" />
    <path
       sodipodi:nodetypes="czczczczc"
       inkscape:connector-curvature="0"
       id="path3871"
       d="m 291.45351,-35.651506 c 0,0 0.0841,-7.04419 -1.33794,-8.41704 -1.42208,-1.37284 -8.24475,-1.16565 -8.24475,-1.16565 0,0 6.60115,0.13336 8.22013,-1.53485 1.61898,-1.66821 1.36256,-8.04784 1.36256,-8.04784 0,0 0.18662,6.67499 1.73176,8.17091 1.54514,1.49591 7.85093,1.41178 7.85093,1.41178 0,0 -6.30579,-0.23181 -7.99861,1.38717 -1.69282,1.61898 -1.58408,8.19552 -1.58408,8.19552 z"
       style="fill:#ffffff;fill-opacity:1;stroke:#404040;stroke-width:0.14503527;stroke-miterlimit:4;stroke-opacity:1" />
    <path
       style="fill:#ffffff;fill-opacity:1;stroke:#404040;stroke-width:0.14503527;stroke-miterlimit:4;stroke-opacity:1"
       d="m 224.31066,97.205634 c 0,0 0.0841,-7.04419 -1.33794,-8.41704 -1.42208,-1.37284 -8.24475,-1.16565 -8.24475,-1.16565 0,0 6.60115,0.13336 8.22013,-1.53485 1.61898,-1.66821 1.36256,-8.04784 1.36256,-8.04784 0,0 0.18662,6.67499 1.73176,8.17091 1.54514,1.49591 7.85092,1.41178 7.85092,1.41178 0,0 -6.30578,-0.23181 -7.9986,1.38717 -1.69282,1.61898 -1.58408,8.19552 -1.58408,8.19552 z"
       id="path3873"
       inkscape:connector-curvature="0"
       sodipodi:nodetypes="czczczczc" />
    <path
       sodipodi:nodetypes="czczczczc"
       inkscape:connector-curvature="0"
       id="path3875"
       d="m 369.31065,50.777064 c 0,0 0.0841,-7.04419 -1.33794,-8.41704 -1.42208,-1.37284 -8.24475,-1.16565 -8.24475,-1.16565 0,0 6.60115,0.13336 8.22013,-1.53485 1.61898,-1.66821 1.36256,-8.04784 1.36256,-8.04784 0,0 0.18662,6.67499 1.73176,8.17091 1.54514,1.49591 7.85093,1.41178 7.85093,1.41178 0,0 -6.30579,-0.23181 -7.99861,1.38717 -1.69282,1.61898 -1.58408,8.19552 -1.58408,8.19552 z"
       style="fill:#ffffff;fill-opacity:1;stroke:#404040;stroke-width:0.14503527;stroke-miterlimit:4;stroke-opacity:1" />
    <path
       style="fill:#ffffff;fill-opacity:1;stroke:#404040;stroke-width:0.10123199;stroke-miterlimit:4;stroke-opacity:1"
       d="m 176.26985,-123.14527 c 0,0 0.0587,-4.91672 -0.93386,-5.87494 -0.99259,-0.95822 -5.75469,-0.8136 -5.75469,-0.8136 0,0 4.60749,0.0931 5.7375,-1.0713 1.13002,-1.16438 0.95105,-5.61725 0.95105,-5.61725 0,0 0.13025,4.65902 1.20873,5.70315 1.07848,1.04412 5.47981,0.9854 5.47981,0.9854 0,0 -4.40133,-0.1618 -5.58288,0.96822 -1.18156,1.13001 -1.10566,5.72032 -1.10566,5.72032 z"
       id="path3877"
       inkscape:connector-curvature="0"
       sodipodi:nodetypes="czczczczc" />
    <path
       style="fill:#ffffff;fill-opacity:1;stroke:#404040;stroke-width:0.14503527;stroke-miterlimit:4;stroke-opacity:1"
       d="m 589.31065,-42.080076 c 0,0 0.0841,-7.04419 -1.33794,-8.41704 -1.42208,-1.37284 -8.24475,-1.16565 -8.24475,-1.16565 0,0 6.60115,0.13336 8.22013,-1.53485 1.61898,-1.66821 1.36256,-8.04784 1.36256,-8.04784 0,0 0.18662,6.67499 1.73176,8.17091 1.54514,1.49591 7.85093,1.41178 7.85093,1.41178 0,0 -6.30579,-0.23181 -7.99861,1.38717 -1.69282,1.61898 -1.58408,8.19552 -1.58408,8.19552 z"
       id="path3879"
       inkscape:connector-curvature="0"
       sodipodi:nodetypes="czczczczc" />
    <path
       sodipodi:nodetypes="czczczczc"
       inkscape:connector-curvature="0"
       id="path3881"
       d="m 522.1678,90.777064 c 0,0 0.0841,-7.04419 -1.33794,-8.41704 -1.42208,-1.37284 -8.24475,-1.16565 -8.24475,-1.16565 0,0 6.60115,0.13336 8.22013,-1.53485 1.61898,-1.66821 1.36256,-8.04784 1.36256,-8.04784 0,0 0.18662,6.67499 1.73176,8.17091 1.54514,1.49591 7.85092,1.41178 7.85092,1.41178 0,0 -6.30578,-0.23181 -7.9986,1.38717 -1.69282,1.61898 -1.58408,8.19552 -1.58408,8.19552 z"
       style="fill:#ffffff;fill-opacity:1;stroke:#404040;stroke-width:0.14503527;stroke-miterlimit:4;stroke-opacity:1" />
    <path
       style="fill:#ffffff;fill-opacity:1;stroke:#404040;stroke-width:0.14503527;stroke-miterlimit:4;stroke-opacity:1"
       d="m 667.16779,44.348494 c 0,0 0.0841,-7.04419 -1.33794,-8.41704 -1.42208,-1.37284 -8.24475,-1.16565 -8.24475,-1.16565 0,0 6.60115,0.13336 8.22013,-1.53485 1.61898,-1.66821 1.36256,-8.04784 1.36256,-8.04784 0,0 0.18662,6.67499 1.73176,8.17091 1.54514,1.49591 7.85093,1.41178 7.85093,1.41178 0,0 -6.30579,-0.23181 -7.99861,1.38717 -1.69282,1.61898 -1.58408,8.19552 -1.58408,8.19552 z"
       id="path3883"
       inkscape:connector-curvature="0"
       sodipodi:nodetypes="czczczczc" />
    <path
       sodipodi:nodetypes="czczczczc"
       inkscape:connector-curvature="0"
       id="path3885"
       d="m 485.02494,-64.222936 c 0,0 0.0841,-7.04419 -1.33794,-8.41704 -1.42208,-1.37284 -8.24475,-1.16565 -8.24475,-1.16565 0,0 6.60115,0.13336 8.22013,-1.53485 1.61898,-1.66821 1.36256,-8.04784 1.36256,-8.04784 0,0 0.18662,6.67499 1.73176,8.17091 1.54514,1.49591 7.85093,1.41178 7.85093,1.41178 0,0 -6.30579,-0.23181 -7.99861,1.38717 -1.69282,1.61898 -1.58408,8.19552 -1.58408,8.19552 z"
       style="fill:#ffffff;fill-opacity:1;stroke:#404040;stroke-width:0.14503527;stroke-miterlimit:4;stroke-opacity:1" />
    <path
       sodipodi:nodetypes="czczczczc"
       inkscape:connector-curvature="0"
       id="path3887"
       d="m 665.02494,-291.36579 c 0,0 0.0841,-7.04419 -1.33794,-8.41704 -1.42208,-1.37284 -8.24475,-1.16565 -8.24475,-1.16565 0,0 6.60115,0.13336 8.22013,-1.53485 1.61898,-1.66821 1.36256,-8.04784 1.36256,-8.04784 0,0 0.18662,6.67499 1.73176,8.17091 1.54514,1.49591 7.85093,1.41178 7.85093,1.41178 0,0 -6.30579,-0.23181 -7.99861,1.38717 -1.69282,1.61898 -1.58408,8.19552 -1.58408,8.19552 z"
       style="fill:#ffffff;fill-opacity:1;stroke:#404040;stroke-width:0.14503527;stroke-miterlimit:4;stroke-opacity:1" />
    <path
       style="fill:#ffffff;fill-opacity:1;stroke:#404040;stroke-width:0.10123199;stroke-miterlimit:4;stroke-opacity:1"
       d="m 462.94099,-193.44202 c 0,0 0.0587,-4.91671 -0.93386,-5.87494 -0.99258,-0.95821 -5.75468,-0.8136 -5.75468,-0.8136 0,0 4.60748,0.0931 5.7375,-1.0713 1.13002,-1.16438 0.95104,-5.61724 0.95104,-5.61724 0,0 0.13026,4.65902 1.20874,5.70314 1.07848,1.04412 5.4798,0.9854 5.4798,0.9854 0,0 -4.40132,-0.1618 -5.58288,0.96822 -1.18156,1.13002 -1.10566,5.72032 -1.10566,5.72032 z"
       id="path3889"
       inkscape:connector-curvature="0"
       sodipodi:nodetypes="czczczczc" />
    <path
       sodipodi:nodetypes="czczczczc"
       inkscape:connector-curvature="0"
       id="path3891"
       d="m 742.88208,-204.93722 c 0,0 0.0841,-7.04419 -1.33794,-8.41704 -1.42208,-1.37284 -8.24475,-1.16565 -8.24475,-1.16565 0,0 6.60115,0.13336 8.22013,-1.53485 1.61898,-1.66821 1.36256,-8.04784 1.36256,-8.04784 0,0 0.18662,6.67499 1.73176,8.17091 1.54514,1.49591 7.85093,1.41178 7.85093,1.41178 0,0 -6.30579,-0.23181 -7.99861,1.38717 -1.69282,1.61898 -1.58408,8.19552 -1.58408,8.19552 z"
       style="fill:#ffffff;fill-opacity:1;stroke:#404040;stroke-width:0.14503527;stroke-miterlimit:4;stroke-opacity:1" />
    <path
       style="fill:#ffffff;fill-opacity:1;stroke:#404040;stroke-width:0.14503527;stroke-miterlimit:4;stroke-opacity:1"
       d="m 560.73923,-313.50865 c 0,0 0.0841,-7.04419 -1.33794,-8.41704 -1.42208,-1.37284 -8.24475,-1.16565 -8.24475,-1.16565 0,0 6.60115,0.13336 8.22013,-1.53485 1.61898,-1.66821 1.36256,-8.04784 1.36256,-8.04784 0,0 0.18662,6.67499 1.73176,8.17091 1.54514,1.49591 7.85093,1.41178 7.85093,1.41178 0,0 -6.30579,-0.23181 -7.99861,1.38717 -1.69282,1.61898 -1.58408,8.19552 -1.58408,8.19552 z"
       id="path3893"
       inkscape:connector-curvature="0"
       sodipodi:nodetypes="czczczczc" />
    <path
       sodipodi:nodetypes="czczczczc"
       inkscape:connector-curvature="0"
       id="path3895"
       d="m 433.59637,208.63421 c 0,0 0.0841,-7.0442 -1.33794,-8.417 -1.42208,-1.3729 -8.24475,-1.1657 -8.24475,-1.1657 0,0 6.60115,0.1334 8.22013,-1.5348 1.61898,-1.6683 1.36256,-8.04789 1.36256,-8.04789 0,0 0.18662,6.67499 1.73176,8.17089 1.54514,1.4959 7.85092,1.4118 7.85092,1.4118 0,0 -6.30578,-0.2318 -7.9986,1.3872 -1.69282,1.619 -1.58408,8.1955 -1.58408,8.1955 z"
       style="fill:#ffffff;fill-opacity:1;stroke:#404040;stroke-width:0.14503527;stroke-miterlimit:4;stroke-opacity:1" />
    <path
       style="fill:#ffffff;fill-opacity:1;stroke:#404040;stroke-width:0.10123199;stroke-miterlimit:4;stroke-opacity:1"
       d="m 449.4799,30.410754 c 0,0 0.0587,-4.91672 -0.93386,-5.87494 -0.99258,-0.95822 -5.75468,-0.8136 -5.75468,-0.8136 0,0 4.60748,0.0931 5.7375,-1.0713 1.13002,-1.16438 0.95104,-5.61725 0.95104,-5.61725 0,0 0.13026,4.65902 1.20874,5.70315 1.07848,1.04412 5.4798,0.9854 5.4798,0.9854 0,0 -4.40132,-0.1618 -5.58288,0.96822 -1.18156,1.13001 -1.10566,5.72032 -1.10566,5.72032 z"
       id="path3897"
       inkscape:connector-curvature="0"
       sodipodi:nodetypes="czczczczc" />
    <path
       style="fill:#ffffff;fill-opacity:1;stroke:#404040;stroke-width:0.14503527;stroke-miterlimit:4;stroke-opacity:1"
       d="m 731.45351,202.20561 c 0,0 0.0841,-7.0442 -1.33794,-8.41702 -1.42208,-1.37284 -8.24475,-1.16565 -8.24475,-1.16565 0,0 6.60115,0.13336 8.22013,-1.53485 1.61898,-1.66821 1.36256,-8.04784 1.36256,-8.04784 0,0 0.18662,6.67499 1.73176,8.17091 1.54514,1.49591 7.85092,1.41178 7.85092,1.41178 0,0 -6.30578,-0.23181 -7.9986,1.38717 -1.69282,1.619 -1.58408,8.1955 -1.58408,8.1955 z"
       id="path3899"
       inkscape:connector-curvature="0"
       sodipodi:nodetypes="czczczczc" />
    <path
       sodipodi:nodetypes="czczczczc"
       inkscape:connector-curvature="0"
       id="path3901"
       d="m 69.310659,143.63421 c 0,0 0.0841,-7.04419 -1.33794,-8.41704 -1.42208,-1.37284 -8.24475,-1.16565 -8.24475,-1.16565 0,0 6.60115,0.13336 8.22013,-1.53485 1.61898,-1.66821 1.36256,-8.04784 1.36256,-8.04784 0,0 0.18662,6.67499 1.73176,8.17091 1.54514,1.49591 7.850927,1.41178 7.850927,1.41178 0,0 -6.305787,-0.23181 -7.998607,1.38717 -1.69282,1.61898 -1.58408,8.19552 -1.58408,8.19552 z"
       style="fill:#ffffff;fill-opacity:1;stroke:#404040;stroke-width:0.14503527;stroke-miterlimit:4;stroke-opacity:1" />
    <path
       sodipodi:nodetypes="czczczczc"
       inkscape:connector-curvature="0"
       id="path3903"
       d="m 162.88209,207.91991 c 0,0 0.0841,-7.0442 -1.33794,-8.417 -1.42208,-1.3729 -8.24475,-1.1657 -8.24475,-1.1657 0,0 6.60115,0.1334 8.22013,-1.5348 1.61898,-1.6682 1.36256,-8.04787 1.36256,-8.04787 0,0 0.18662,6.67497 1.73176,8.17087 1.54514,1.4959 7.85093,1.4118 7.85093,1.4118 0,0 -6.30579,-0.2318 -7.99861,1.3872 -1.69282,1.619 -1.58408,8.1955 -1.58408,8.1955 z"
       style="fill:#ffffff;fill-opacity:1;stroke:#404040;stroke-width:0.14503527;stroke-miterlimit:4;stroke-opacity:1" />
    <path
       sodipodi:nodetypes="czczczczc"
       inkscape:connector-curvature="0"
       id="path3905"
       d="m 71.453516,1.4913539 c 0,0 0.0841,-7.04419 -1.33794,-8.41704 -1.42208,-1.37284 -8.24475,-1.16565 -8.24475,-1.16565 0,0 6.60115,0.13336 8.22013,-1.53485 1.61898,-1.6682099 1.36256,-8.0478399 1.36256,-8.0478399 0,0 0.18662,6.67499 1.73176,8.1709099 1.54514,1.49591 7.850927,1.41178 7.850927,1.41178 0,0 -6.305787,-0.23181 -7.998607,1.38717 -1.69282,1.61898 -1.58408,8.19552 -1.58408,8.19552 z"
       style="fill:#ffffff;fill-opacity:1;stroke:#404040;stroke-width:0.14503527;stroke-miterlimit:4;stroke-opacity:1" />
    <path
       style="fill:#ffffff;fill-opacity:1;stroke:#404040;stroke-width:0.14503527;stroke-miterlimit:4;stroke-opacity:1"
       d="m 729.31065,-79.937216 c 0,0 0.0841,-7.04419 -1.33794,-8.41704 -1.42208,-1.37284 -8.24475,-1.16565 -8.24475,-1.16565 0,0 6.60115,0.13336 8.22013,-1.53485 1.61898,-1.66821 1.36256,-8.04784 1.36256,-8.04784 0,0 0.18662,6.67499 1.73176,8.17091 1.54514,1.49591 7.85093,1.41178 7.85093,1.41178 0,0 -6.30579,-0.23181 -7.99861,1.38717 -1.69282,1.61898 -1.58408,8.19552 -1.58408,8.19552 z"
       id="path3907"
       inkscape:connector-curvature="0"
       sodipodi:nodetypes="czczczczc" />
    <path
       style="fill:#ffffff;fill-opacity:1;stroke:#404040;stroke-width:0.10123199;stroke-miterlimit:4;stroke-opacity:1"
       d="m 380.68032,150.68116 c 0,0 0.0587,-4.91672 -0.93386,-5.87494 -0.99258,-0.95822 -5.75468,-0.81361 -5.75468,-0.81361 0,0 4.60748,0.0931 5.7375,-1.07129 1.13002,-1.16439 0.95104,-5.61725 0.95104,-5.61725 0,0 0.13026,4.65902 1.20874,5.70315 1.07848,1.04411 5.47981,0.98539 5.47981,0.98539 0,0 -4.40133,-0.1618 -5.58289,0.96822 -1.18156,1.13002 -1.10566,5.72033 -1.10566,5.72033 z"
       id="path3909"
       inkscape:connector-curvature="0"
       sodipodi:nodetypes="czczczczc" />
    <path
       sodipodi:nodetypes="czczczczc"
       inkscape:connector-curvature="0"
       id="path3911"
       d="m 685.79813,217.98651 c 0,0 0.0587,-4.9167 -0.93386,-5.8749 -0.99258,-0.9582 -5.75468,-0.8136 -5.75468,-0.8136 0,0 4.60748,0.093 5.7375,-1.0713 1.13002,-1.1644 0.95104,-5.6172 0.95104,-5.6172 0,0 0.13026,4.659 1.20874,5.7031 1.07848,1.0441 5.4798,0.9854 5.4798,0.9854 0,0 -4.40132,-0.1618 -5.58288,0.9682 -1.18156,1.13 -1.10566,5.7203 -1.10566,5.7203 z"
       style="fill:#ffffff;fill-opacity:1;stroke:#404040;stroke-width:0.10123199;stroke-miterlimit:4;stroke-opacity:1" />
    <path
       sodipodi:nodetypes="czczczczc"
       inkscape:connector-curvature="0"
       id="path3913"
       d="m 632.94099,-220.58488 c 0,0 0.0587,-4.91671 -0.93386,-5.87494 -0.99258,-0.95821 -5.75468,-0.8136 -5.75468,-0.8136 0,0 4.60748,0.0931 5.7375,-1.0713 1.13002,-1.16438 0.95104,-5.61724 0.95104,-5.61724 0,0 0.13026,4.65902 1.20874,5.70314 1.07848,1.04412 5.4798,0.9854 5.4798,0.9854 0,0 -4.40132,-0.1618 -5.58288,0.96822 -1.18156,1.13002 -1.10566,5.72032 -1.10566,5.72032 z"
       style="fill:#ffffff;fill-opacity:1;stroke:#404040;stroke-width:0.10123199;stroke-miterlimit:4;stroke-opacity:1" />
    <path
       sodipodi:nodetypes="czczczczc"
       inkscape:connector-curvature="0"
       id="path3915"
       d="m 175.94277,-5.5893461 c 0,0 0.0587,-4.9167199 -0.93386,-5.8749399 -0.99259,-0.95822 -5.75469,-0.81361 -5.75469,-0.81361 0,0 4.60749,0.0931 5.73751,-1.0713 1.13001,-1.16438 0.95104,-5.61724 0.95104,-5.61724 0,0 0.13026,4.65902 1.20874,5.70315 1.07847,1.04411 5.4798,0.98539 5.4798,0.98539 0,0 -4.40133,-0.1618 -5.58288,0.96822 -1.18156,1.13002 -1.10566,5.7203299 -1.10566,5.7203299 z"
       style="fill:#ffffff;fill-opacity:1;stroke:#404040;stroke-width:0.10123199;stroke-miterlimit:4;stroke-opacity:1" />
    <path
       sodipodi:nodetypes="czczczczc"
       inkscape:connector-curvature="0"
       id="path3917"
       d="m 389.83704,-75.267166 c 0,0 0.0245,-2.05558 -0.39043,-2.45619 -0.41498,-0.40061 -2.40591,-0.34015 -2.40591,-0.34015 0,0 1.92629,0.0389 2.39873,-0.44789 0.47244,-0.4868 0.39761,-2.34845 0.39761,-2.34845 0,0 0.0545,1.94784 0.50535,2.38437 0.45089,0.43652 2.29099,0.41197 2.29099,0.41197 0,0 -1.8401,-0.0676 -2.33409,0.40479 -0.49398,0.47244 -0.46225,2.39155 -0.46225,2.39155 z"
       style="fill:#ffffff;fill-opacity:1;stroke:#404040;stroke-width:0.04232298;stroke-miterlimit:4;stroke-opacity:1" />
    <path
       style="fill:#ffffff;fill-opacity:1;stroke:#404040;stroke-width:0.04232298;stroke-miterlimit:4;stroke-opacity:1"
       d="m 560.55133,-145.26717 c 0,0 0.0245,-2.05558 -0.39043,-2.45619 -0.41498,-0.40061 -2.40591,-0.34015 -2.40591,-0.34015 0,0 1.92629,0.0389 2.39873,-0.44789 0.47244,-0.4868 0.39761,-2.34845 0.39761,-2.34845 0,0 0.0545,1.94784 0.50535,2.38437 0.45089,0.43652 2.29099,0.41197 2.29099,0.41197 0,0 -1.8401,-0.0676 -2.33409,0.40479 -0.49398,0.47244 -0.46225,2.39155 -0.46225,2.39155 z"
       id="path3919"
       inkscape:connector-curvature="0"
       sodipodi:nodetypes="czczczczc" />
    <path
       style="fill:#ffffff;fill-opacity:1;stroke:#404040;stroke-width:0.04232298;stroke-miterlimit:4;stroke-opacity:1"
       d="m 68.408468,-227.41003 c 0,0 0.0245,-2.05558 -0.39043,-2.45619 -0.41498,-0.40061 -2.40591,-0.34015 -2.40591,-0.34015 0,0 1.92629,0.0389 2.39873,-0.44789 0.47244,-0.4868 0.39761,-2.34845 0.39761,-2.34845 0,0 0.0545,1.94784 0.50535,2.38437 0.45089,0.43652 2.29099,0.41197 2.29099,0.41197 0,0 -1.8401,-0.0676 -2.33409,0.40479 -0.49398,0.47244 -0.46225,2.39155 -0.46225,2.39155 z"
       id="path3921"
       inkscape:connector-curvature="0"
       sodipodi:nodetypes="czczczczc" />
    <path
       sodipodi:nodetypes="czczczczc"
       inkscape:connector-curvature="0"
       id="path3923"
       d="m 239.12276,-297.41003 c 0,0 0.0245,-2.05558 -0.39043,-2.45619 -0.41498,-0.40061 -2.40591,-0.34015 -2.40591,-0.34015 0,0 1.92629,0.0389 2.39873,-0.44789 0.47244,-0.4868 0.39761,-2.34845 0.39761,-2.34845 0,0 0.0545,1.94784 0.50535,2.38437 0.45089,0.43652 2.29099,0.41197 2.29099,0.41197 0,0 -1.8401,-0.0676 -2.33409,0.40479 -0.49398,0.47244 -0.46225,2.39155 -0.46225,2.39155 z"
       style="fill:#ffffff;fill-opacity:1;stroke:#404040;stroke-width:0.04232298;stroke-miterlimit:4;stroke-opacity:1" />
    <path
       sodipodi:nodetypes="czczczczc"
       inkscape:connector-curvature="0"
       id="path3925"
       d="m 106.9799,218.30421 c 0,0 0.0245,-2.0555 -0.39043,-2.4561 -0.41498,-0.4007 -2.40591,-0.3402 -2.40591,-0.3402 0,0 1.92629,0.039 2.39873,-0.4479 0.47244,-0.4868 0.39761,-2.3484 0.39761,-2.3484 0,0 0.0545,1.9478 0.50535,2.3843 0.45089,0.4366 2.29099,0.412 2.29099,0.412 0,0 -1.8401,-0.068 -2.33409,0.4048 -0.49398,0.4724 -0.46225,2.3915 -0.46225,2.3915 z"
       style="fill:#ffffff;fill-opacity:1;stroke:#404040;stroke-width:0.04232298;stroke-miterlimit:4;stroke-opacity:1" />
    <path
       style="fill:#ffffff;fill-opacity:1;stroke:#404040;stroke-width:0.04232298;stroke-miterlimit:4;stroke-opacity:1"
       d="m 277.69419,148.30426 c 0,0 0.0245,-2.05558 -0.39043,-2.45619 -0.41498,-0.40061 -2.40591,-0.34015 -2.40591,-0.34015 0,0 1.92629,0.0389 2.39873,-0.44789 0.47244,-0.4868 0.39761,-2.34845 0.39761,-2.34845 0,0 0.0545,1.94784 0.50535,2.38437 0.45089,0.43652 2.29099,0.41197 2.29099,0.41197 0,0 -1.8401,-0.0676 -2.33409,0.40479 -0.49398,0.47244 -0.46225,2.39155 -0.46225,2.39155 z"
       id="path3927"
       inkscape:connector-curvature="0"
       sodipodi:nodetypes="czczczczc" />
  </g>
</svg>
